<svg width="281" height="281" viewBox="0 0 281 281" fill="none" xmlns="http://www.w3.org/2000/svg">
<path d="M220.629 42.2268C199.01 20.6524 170.565 8.78125 140.5 8.78125H140.297C110.056 8.83504 81.072 20.8859 59.7075 42.2886C38.3429 63.6912 26.3437 92.6965 26.3437 122.938V178.188C26.3096 186.974 28.9251 195.567 33.8488 202.844C38.7725 210.122 45.7756 215.746 53.9443 218.982L66.957 224.152C68.3158 224.691 69.5177 225.563 70.4525 226.686C71.3874 227.81 72.0254 229.15 72.3081 230.585L77.7963 258.097C78.6004 262.074 80.7528 265.651 83.8898 268.224C87.0268 270.797 90.9559 272.208 95.0131 272.219H100.984C102.149 272.219 103.266 271.756 104.089 270.933C104.912 270.109 105.375 268.993 105.375 267.828V246.122C105.375 241.397 109.008 237.341 113.734 237.105C114.921 237.048 116.107 237.232 117.221 237.647C118.335 238.062 119.353 238.699 120.214 239.519C121.074 240.339 121.76 241.325 122.228 242.417C122.696 243.51 122.937 244.686 122.937 245.875V267.828C122.937 268.993 123.4 270.109 124.223 270.933C125.047 271.756 126.164 272.219 127.328 272.219C128.493 272.219 129.609 271.756 130.433 270.933C131.256 270.109 131.719 268.993 131.719 267.828V246.122C131.719 241.397 135.352 237.341 140.077 237.105C141.265 237.048 142.451 237.232 143.565 237.647C144.679 238.062 145.697 238.699 146.558 239.519C147.418 240.339 148.103 241.325 148.571 242.417C149.04 243.51 149.281 244.686 149.281 245.875V267.828C149.281 268.993 149.744 270.109 150.567 270.933C151.391 271.756 152.507 272.219 153.672 272.219C154.836 272.219 155.953 271.756 156.776 270.933C157.6 270.109 158.062 268.993 158.062 267.828V246.122C158.062 241.397 161.696 237.341 166.421 237.105C167.608 237.048 168.795 237.232 169.909 237.647C171.023 238.062 172.041 238.699 172.901 239.519C173.762 240.339 174.447 241.325 174.915 242.417C175.383 243.51 175.625 244.686 175.625 245.875V267.828C175.625 268.993 176.087 270.109 176.911 270.933C177.734 271.756 178.851 272.219 180.016 272.219H185.987C190.044 272.21 193.974 270.8 197.112 268.228C200.25 265.656 202.404 262.08 203.209 258.103L208.697 230.585C208.983 229.153 209.622 227.814 210.555 226.691C211.488 225.568 212.687 224.695 214.043 224.152L227.056 218.982C235.224 215.746 242.227 210.122 247.151 202.844C252.075 195.567 254.69 186.974 254.656 178.188V123.854C254.656 93.1197 242.582 64.1361 220.629 42.2268V42.2268ZM94.2118 184.34C87.9751 184.749 81.7622 183.246 76.4015 180.033C71.0408 176.82 66.7871 172.048 64.2078 166.355C61.6285 160.663 60.8462 154.318 61.9651 148.169C63.084 142.02 66.051 136.359 70.4704 131.939C74.8899 127.52 80.5516 124.553 86.7006 123.434C92.8497 122.315 99.1937 123.097 104.887 125.677C110.58 128.256 115.351 132.51 118.564 137.87C121.777 143.231 123.28 149.444 122.872 155.681C122.384 163.121 119.208 170.131 113.935 175.404C108.663 180.677 101.653 183.853 94.2118 184.34V184.34ZM154.221 218.022C152.711 219.029 150.931 219.555 149.117 219.531H131.883C130.072 219.553 128.297 219.027 126.79 218.022C125.318 217.024 124.184 215.604 123.537 213.947C122.891 212.291 122.762 210.478 123.168 208.747L131.9 182.623C133.365 178.918 135.698 176.174 139.402 175.696C143.936 175.148 147.086 177.271 149.067 182.403L157.848 208.747C158.254 210.478 158.124 212.292 157.477 213.948C156.829 215.605 155.693 217.025 154.221 218.022ZM190.816 184.34C184.58 184.749 178.367 183.246 173.006 180.033C167.645 176.82 163.392 172.048 160.813 166.355C158.233 160.663 157.451 154.318 158.57 148.169C159.689 142.02 162.656 136.359 167.075 131.939C171.495 127.52 177.156 124.553 183.305 123.434C189.454 122.315 195.798 123.097 201.491 125.677C207.184 128.256 211.956 132.51 215.169 137.87C218.382 143.231 219.885 149.444 219.476 155.681C218.989 163.123 215.811 170.135 210.536 175.408C205.261 180.681 198.248 183.856 190.805 184.34H190.816Z" fill="#990000"/>
</svg>
