<svg width="312" height="312" viewBox="0 0 312 312" fill="none" xmlns="http://www.w3.org/2000/svg">
<path d="M78 46.8C69.7253 46.8 61.7895 50.0872 55.9383 55.9383C50.0872 61.7895 46.8 69.7253 46.8 78V234C46.8 242.275 50.0872 250.211 55.9383 256.062C61.7895 261.913 69.7253 265.2 78 265.2H234C242.275 265.2 250.211 261.913 256.062 256.062C261.913 250.211 265.2 242.275 265.2 234V78C265.2 69.7253 261.913 61.7895 256.062 55.9383C250.211 50.0872 242.275 46.8 234 46.8H78ZM163.8 101.4V148.2H210.6C212.669 148.2 214.653 149.022 216.115 150.485C217.578 151.947 218.4 153.931 218.4 156C218.4 158.069 217.578 160.053 216.115 161.515C214.653 162.978 212.669 163.8 210.6 163.8H163.8V210.6C163.8 212.669 162.978 214.653 161.515 216.115C160.053 217.578 158.069 218.4 156 218.4C153.931 218.4 151.947 217.578 150.485 216.115C149.022 214.653 148.2 212.669 148.2 210.6V163.8H101.4C99.3314 163.8 97.3474 162.978 95.8846 161.515C94.4218 160.053 93.6 158.069 93.6 156C93.6 153.931 94.4218 151.947 95.8846 150.485C97.3474 149.022 99.3314 148.2 101.4 148.2H148.2V101.4C148.2 99.3314 149.022 97.3474 150.485 95.8846C151.947 94.4218 153.931 93.6 156 93.6C158.069 93.6 160.053 94.4218 161.515 95.8846C162.978 97.3474 163.8 99.3314 163.8 101.4V101.4Z" fill="#999999"/>
</svg>
