<svg width="300" height="85" viewBox="0 0 300 85" fill="none" xmlns="http://www.w3.org/2000/svg">
<g clip-path="url(#clip0_24_46)">
<path d="M233.912 41.6133C233.86 39.6319 232.978 37.7509 231.459 36.3836C229.94 35.0163 227.908 34.2746 225.81 34.3214L219.581 34.4623C219.581 34.4623 214.983 32.5749 202.852 32.8514C190.722 33.1272 186.227 35.2227 186.227 35.2227L173.348 35.5142L173.405 37.7872L163.525 35.7396C163.525 35.7396 159.862 40.2665 153.84 42.4413L167.141 42.1368C167.285 41.9766 167.463 41.8468 167.663 41.7562C167.864 41.6655 168.083 41.6159 168.305 41.6107C168.725 41.6014 169.132 41.7497 169.436 42.0232C169.74 42.2967 169.917 42.673 169.927 43.0695C169.946 43.8956 169.256 44.579 168.381 44.6016C168.159 44.6045 167.938 44.5639 167.733 44.4822C167.528 44.4005 167.343 44.2796 167.189 44.127L153.891 44.4287C160.016 46.3259 163.904 50.6806 163.904 50.6806L173.671 48.1841L173.728 50.4598L186.605 50.1644C186.605 50.1644 191.203 52.0545 203.334 51.7773C215.463 51.5042 219.959 49.4047 219.959 49.4047L226.192 49.2636C228.29 49.2157 230.282 48.3828 231.729 46.9481C233.177 45.5134 233.962 43.5945 233.912 41.6133ZM184.468 49.0994L184.143 36.383L186.254 36.3363L186.578 49.0521L184.468 49.0994ZM219.932 48.2917L219.61 35.5746L221.717 35.5273L222.041 48.2437L219.932 48.2917Z" fill="#990000"/>
</g>
<path d="M16.2188 46.7256C17.125 46.7881 17.9375 47.2568 18.6562 48.1318C18.7812 48.3193 18.9062 48.5068 19.0312 48.6943C19.1562 48.8506 19.25 49.0381 19.3125 49.2568C19.5 49.7256 19.5625 50.3975 19.5 51.2725C19.4375 52.1475 19.4844 52.8662 19.6406 53.4287C19.7969 53.96 19.9531 54.4756 20.1094 54.9756C20.3906 55.8506 20.2188 57.0225 19.5938 58.4912C19.125 59.835 18.5469 60.6318 17.8594 60.8818L17.0156 61.1631C16.2031 61.4443 15.5 61.5537 14.9062 61.4912C14.3438 61.3975 13.9531 61.2256 13.7344 60.9756C13.1094 60.1631 12.9531 59.2256 13.2656 58.1631C13.3281 57.9443 13.3281 57.6006 13.2656 57.1318C13.2031 56.6631 12.9375 56.3662 12.4688 56.2412C12.2188 56.1787 12.0469 56.0693 11.9531 55.9131C11.8906 55.7568 11.8281 55.6318 11.7656 55.5381C11.7344 55.4131 11.6875 55.335 11.625 55.3037C11.5938 55.2412 11.4531 55.3037 11.2031 55.4912C10.9531 55.6787 10.8125 55.7881 10.7812 55.8193C10.75 55.8193 10.6406 55.7881 10.4531 55.7256C10.2969 55.6631 10.1406 55.6787 9.98438 55.7725C9.82812 55.8662 9.67188 56.0381 9.51562 56.2881C8.95312 57.2568 8.84375 58.835 9.1875 61.0225C9.3125 61.6787 9.4375 62.2881 9.5625 62.8506C9.8125 64.2568 9.92188 65.1943 9.89062 65.6631C9.89062 66.1318 9.79688 66.6318 9.60938 67.1631C9.45312 67.6631 9.3125 68.1631 9.1875 68.6631C8.8125 69.9443 8.85938 71.0381 9.32812 71.9443C9.89062 73.0693 10.25 73.7256 10.4062 73.9131C10.6875 74.1943 11.0312 74.3193 11.4375 74.2881C11.8438 74.2256 12.1562 74.0225 12.375 73.6787C12.5938 73.3037 12.7969 72.9131 12.9844 72.5068C13.1719 72.0693 13.375 71.6631 13.5938 71.2881C13.8125 70.9131 14.0625 70.6943 14.3438 70.6318C14.6562 70.5693 15.0469 70.5693 15.5156 70.6318C15.9844 70.6631 16.2969 70.6787 16.4531 70.6787C16.6406 70.6787 16.8594 70.7881 17.1094 71.0068C17.3594 71.1943 17.4844 71.6475 17.4844 72.3662C17.5156 73.0537 17.5469 73.6162 17.5781 74.0537C17.6094 74.46 17.5 74.835 17.25 75.1787C17 75.4912 16.8281 75.7881 16.7344 76.0693C16.6719 76.3193 16.625 76.5693 16.5938 76.8193C16.5625 77.4756 16.4375 77.96 16.2188 78.2725C16.0312 78.585 15.8438 78.8506 15.6562 79.0693C15.5 79.2568 15.0469 79.3506 14.2969 79.3506C13.5781 79.3506 12.9219 79.6943 12.3281 80.3818C11.7344 81.0693 11.1719 81.3662 10.6406 81.2725C10.1094 81.21 9.73438 80.8975 9.51562 80.335C9.29688 79.835 8.8125 79.5693 8.0625 79.5381C7.84375 79.5068 7.64062 79.46 7.45312 79.3975C7.26562 79.3037 7.04688 79.2412 6.79688 79.21C6.54688 79.1475 6.29688 79.0381 6.04688 78.8818C5.42188 78.5381 4.90625 77.9912 4.5 77.2412C4.25 76.7725 4 76.3818 3.75 76.0693C3.53125 75.7568 3.34375 75.46 3.1875 75.1787C2.78125 74.5537 2.625 73.96 2.71875 73.3975C2.90625 71.8975 2.70312 70.9131 2.10938 70.4443C1.76562 70.2256 1.59375 70.0537 1.59375 69.9287C1.59375 69.8037 1.53125 69.5381 1.40625 69.1318C1.21875 68.5693 1.21875 67.9131 1.40625 67.1631C1.625 66.4131 1.70312 65.8037 1.64062 65.335C1.57812 64.835 1.5 64.3193 1.40625 63.7881C1.21875 62.4131 1.20312 61.5068 1.35938 61.0693C1.51562 60.6318 1.54688 60.0068 1.45312 59.1943C1.39062 58.3818 1.35938 57.7256 1.35938 57.2256C1.35938 56.6943 1.3125 56.0068 1.21875 55.1631C1.15625 54.3193 1.15625 53.4131 1.21875 52.4443C1.4375 50.0068 2.26562 48.335 3.70312 47.4287C5.85938 46.1475 7.23438 45.5381 7.82812 45.6006C8.01562 45.6006 8.23438 45.6318 8.48438 45.6943C8.76562 45.7256 9.03125 45.71 9.28125 45.6475C9.53125 45.585 9.75 45.4912 9.9375 45.3662C10.125 45.2412 10.3125 45.1006 10.5 44.9443C11.25 44.2568 11.9219 44.1787 12.5156 44.71C13.0781 45.3662 13.5156 45.8037 13.8281 46.0225C14.3594 46.4287 15.1562 46.6631 16.2188 46.7256ZM33.6994 71.3818L33.84 73.6318C33.9025 74.8506 33.59 75.6475 32.9025 76.0225C32.715 77.2725 32.6213 78.3818 32.6213 79.3506C32.4025 79.7881 32.0431 80.0537 31.5431 80.1475C30.6056 80.2725 29.9963 80.0225 29.715 79.3975C29.3088 78.6162 28.9806 78.1943 28.7306 78.1318C28.6681 78.1006 28.5588 78.085 28.4025 78.085C28.2775 78.0537 28.1213 78.0068 27.9338 77.9443C27.7463 77.8506 27.6681 77.6006 27.6994 77.1943C27.7619 76.7881 27.7619 76.46 27.6994 76.21C27.6369 75.96 27.5588 75.6943 27.465 75.4131C27.215 74.6006 27.09 73.8193 27.09 73.0693C27.09 72.5381 27.09 72.0537 27.09 71.6162C27.1213 71.1787 27.1369 70.7412 27.1369 70.3037C27.0744 68.8975 26.8869 67.6943 26.5744 66.6943C26.2931 65.6943 26.1056 65.0381 26.0119 64.7256C25.8244 64.0381 25.7306 63.3818 25.7306 62.7568C25.7306 62.3818 25.7775 62.1162 25.8713 61.96C25.965 61.7725 26.0588 61.585 26.1525 61.3975C26.4025 60.9287 26.4963 60.3818 26.4338 59.7568C26.4025 59.1318 26.3556 58.5068 26.2931 57.8818C26.2619 57.2256 26.215 56.5068 26.1525 55.7256C26.1213 54.9131 26.0744 54.0537 26.0119 53.1475C25.9806 52.2412 25.965 51.3662 25.965 50.5225C25.965 47.7725 26.3088 46.2256 26.9963 45.8818C27.1213 45.8193 27.2619 45.7568 27.4181 45.6943C27.6056 45.6006 27.8244 45.4756 28.0744 45.3193C28.3244 45.1631 28.5431 45.0068 28.7306 44.8506C28.9494 44.6943 29.1681 44.5693 29.3869 44.4756C29.7931 44.2881 30.2775 44.3193 30.84 44.5693C31.4338 44.7881 31.8556 44.9443 32.1056 45.0381C32.3556 45.1006 32.6056 45.1631 32.8556 45.2256C33.1056 45.2568 33.3869 45.2725 33.6994 45.2725C34.0431 45.2412 34.5119 45.2256 35.1056 45.2256C35.7306 45.1943 36.3869 45.1943 37.0744 45.2256C37.7931 45.2568 38.4806 45.3506 39.1369 45.5068C41.2619 45.9443 42.9025 47.1162 44.0588 49.0225C44.5588 49.8662 44.8244 50.6162 44.8556 51.2725C44.8869 51.9287 44.9181 52.5693 44.9494 53.1943C45.0119 53.7881 45.1369 54.4756 45.3244 55.2568C45.5119 56.0068 45.5744 56.7256 45.5119 57.4131C45.4494 58.1006 45.3713 58.585 45.2775 58.8662C45.215 59.1162 45.1369 59.3506 45.0431 59.5693C44.8869 60.0381 44.8244 60.5225 44.8556 61.0225C44.9181 61.835 44.8556 62.4756 44.6681 62.9443C44.4806 63.3818 44.2931 63.835 44.1056 64.3037C43.5744 65.46 42.9963 66.1162 42.3713 66.2725C42.0275 66.335 41.7463 66.3975 41.5275 66.46C41.3088 66.5225 41.1838 66.6631 41.1525 66.8818C41.09 67.0381 41.1838 67.2256 41.4338 67.4443C41.6838 67.6318 41.9338 67.9287 42.1838 68.335C42.465 68.7412 42.6994 69.0068 42.8869 69.1318C43.0744 69.2568 43.2463 69.335 43.4025 69.3662C43.8713 69.46 44.1681 69.5693 44.2931 69.6943C44.5744 70.0381 44.7775 70.3193 44.9025 70.5381C45.0588 70.7568 45.1056 71.085 45.0431 71.5225C44.9806 71.96 44.9806 72.4131 45.0431 72.8818C45.1056 73.3506 45.1681 73.8506 45.2306 74.3818C45.2931 74.8818 45.2931 75.3037 45.2306 75.6475C45.1994 75.9912 45.1838 76.2412 45.1838 76.3975L45.3713 77.6162C45.3713 78.3662 45.1525 78.9756 44.715 79.4443C44.2775 79.9131 43.9338 80.1787 43.6838 80.2412C43.4338 80.3037 43.1994 80.2881 42.9806 80.1943C42.7619 80.1006 42.5744 79.9756 42.4181 79.8193C42.2619 79.6943 42.1369 79.6162 42.0431 79.585C41.9494 79.5225 41.8244 79.4912 41.6681 79.4912C41.5431 79.46 41.4025 79.4131 41.2463 79.3506C40.6838 79.1943 40.1994 78.1006 39.7931 76.0693C39.5744 75.0693 39.1994 74.4287 38.6681 74.1475C37.8556 73.7412 37.4181 73.1787 37.3556 72.46C37.3244 72.1162 37.2931 71.6475 37.2619 71.0537C37.1369 69.8662 36.7306 69.1318 36.0431 68.8506C35.6994 68.7256 35.3869 68.6631 35.1056 68.6631C34.8244 68.6631 34.5431 68.8193 34.2619 69.1318C33.8869 69.6006 33.6994 70.3506 33.6994 71.3818ZM36.0431 62.4756C36.4494 62.1006 36.84 61.7725 37.215 61.4912C37.6213 61.1787 37.9494 60.7881 38.1994 60.3193C38.4806 59.8193 38.6994 59.3193 38.8556 58.8193C39.1056 57.8818 39.1838 57.0225 39.09 56.2412C39.0275 55.4287 38.9338 54.8975 38.8088 54.6475C38.715 54.3662 38.4025 54.2256 37.8713 54.2256C37.3713 54.2256 36.8556 54.1006 36.3244 53.8506C35.8244 53.6006 35.5431 53.3037 35.4806 52.96C35.4181 52.21 35.1838 51.9443 34.7775 52.1631C34.5588 52.2881 34.4025 52.4131 34.3088 52.5381C34.215 52.6318 34.1369 52.9443 34.0744 53.4756C33.9806 54.5693 33.9806 55.4287 34.0744 56.0537C34.1994 56.6787 34.2775 57.1006 34.3088 57.3193C34.34 57.5068 34.3556 57.7256 34.3556 57.9756C34.3869 58.1943 34.4025 58.46 34.4025 58.7725C34.4338 59.0537 34.465 59.5225 34.4963 60.1787C34.5588 60.8037 34.5744 61.335 34.5431 61.7725C34.5119 62.21 34.5588 62.6631 34.6838 63.1318C35.1838 63.0693 35.6369 62.8506 36.0431 62.4756ZM51.8363 51.9287L51.93 49.2568C51.93 48.8193 51.8831 48.3818 51.7894 47.9443C51.7269 47.5068 51.8363 47.0537 52.1175 46.585C52.43 46.085 52.8831 45.6475 53.4769 45.2725C54.0706 44.8975 54.7425 44.71 55.4925 44.71C56.2425 44.71 56.8363 44.835 57.2738 45.085C57.7113 45.335 58.1175 45.5381 58.4925 45.6943C58.8675 45.8506 59.2894 45.9756 59.7581 46.0693C60.7581 46.2256 61.7269 46.085 62.6644 45.6475C63.6956 45.1475 64.5238 45.1787 65.1488 45.7412C65.805 45.7725 66.4925 45.71 67.2113 45.5537C68.3988 45.3037 69.2113 45.2881 69.6488 45.5068C70.6175 46.0693 70.7738 47.1943 70.1175 48.8818C70.0238 49.1318 69.9769 49.3506 69.9769 49.5381C69.9769 49.7256 69.9769 49.9131 69.9769 50.1006C69.9769 50.6631 69.93 51.085 69.8363 51.3662C69.7425 51.6475 69.6956 51.8818 69.6956 52.0693C69.6956 52.2568 69.6956 52.4756 69.6956 52.7256C69.7581 53.2256 69.68 53.71 69.4613 54.1787C69.3363 54.46 69.2738 54.6943 69.2738 54.8818C69.2738 55.0381 69.2738 55.1943 69.2738 55.3506C69.2738 55.7568 69.055 56.1475 68.6175 56.5225C67.8988 57.2725 67.305 57.6475 66.8363 57.6475C66.7425 57.6475 66.6488 57.6162 66.555 57.5537C66.4613 57.4912 66.3206 57.4287 66.1331 57.3662C65.3831 57.1162 64.5863 56.96 63.7425 56.8975C62.93 56.835 62.3363 56.8506 61.9613 56.9443C61.0238 57.1318 60.4456 57.585 60.2269 58.3037C59.9769 59.0537 60.0394 59.6318 60.4144 60.0381C60.5706 60.2256 60.7425 60.3506 60.93 60.4131C61.1175 60.4756 61.2894 60.4912 61.4456 60.46C61.6331 60.3975 61.8675 60.3975 62.1488 60.46C62.4613 60.5225 62.7738 60.6006 63.0863 60.6943C63.93 60.8818 64.4925 60.9131 64.7738 60.7881C65.0863 60.6318 65.2894 60.5693 65.3831 60.6006C65.5081 60.6318 65.6019 60.6787 65.6644 60.7412C65.8831 60.96 66.0863 61.0693 66.2738 61.0693C66.7738 61.0381 67.1175 61.2568 67.305 61.7256C67.4925 62.1631 67.4613 62.71 67.2113 63.3662C67.2113 63.46 67.1644 63.6943 67.0706 64.0693C66.8519 64.8193 66.7425 65.335 66.7425 65.6162C66.7738 65.8975 66.7269 66.1943 66.6019 66.5068C66.4769 66.7881 66.305 67.0381 66.0863 67.2568C65.555 67.7256 64.9769 67.8662 64.3519 67.6787C64.0706 67.5537 63.8206 67.3818 63.6019 67.1631C62.0081 66.6943 60.93 66.8037 60.3675 67.4912C60.055 67.8662 59.8831 68.1943 59.8519 68.4756C59.8206 68.7568 59.805 69.2568 59.805 69.9756V71.71C60.2113 71.9912 60.5863 72.3193 60.93 72.6943C61.2738 73.0381 61.6956 73.2256 62.1956 73.2568C62.6956 73.2881 63.1331 73.2568 63.5081 73.1631C63.9144 73.0381 64.2894 72.9131 64.6331 72.7881C65.3831 72.4756 66.0706 72.4287 66.6956 72.6475C67.3206 72.835 67.7113 73.1006 67.8675 73.4443C68.0238 73.7881 68.055 74.2412 67.9613 74.8037C67.8675 75.3662 67.8206 75.7881 67.8206 76.0693C67.8519 76.3193 67.8675 76.5537 67.8675 76.7725C67.8675 77.3037 67.6644 77.8193 67.2581 78.3193C66.8206 78.9756 66.4144 79.3818 66.0394 79.5381C65.6644 79.6631 65.18 79.6943 64.5863 79.6318C63.9925 79.5381 63.5081 79.5693 63.1331 79.7256C62.7581 79.8506 62.4144 80.0225 62.1019 80.2412C61.8206 80.46 61.5394 80.6631 61.2581 80.8506C60.7894 81.1631 60.2581 81.1631 59.6644 80.8506C59.4456 80.7256 59.2269 80.6006 59.0081 80.4756C58.4456 80.1943 57.7581 80.0693 56.9456 80.1006C56.1331 80.1631 55.4144 79.9443 54.7894 79.4443C54.1644 78.9131 53.8363 78.2725 53.805 77.5225C53.805 76.7725 53.8519 76.2412 53.9456 75.9287C54.0394 75.585 54.1331 75.3193 54.2269 75.1318C54.3519 74.7256 54.2894 74.4131 54.0394 74.1943C53.2894 73.6006 53.0238 72.8193 53.2425 71.8506C53.3363 71.3506 53.43 70.96 53.5238 70.6787C53.6175 70.3975 53.6331 70.1006 53.5706 69.7881C53.5081 69.4443 53.4769 69.1475 53.4769 68.8975C53.5081 68.6162 53.5081 68.3506 53.4769 68.1006C53.4144 67.6006 53.1956 67.3193 52.8206 67.2568C52.3519 67.1943 52.0394 66.6943 51.8831 65.7568C51.6956 64.8506 51.7581 63.9443 52.0706 63.0381C52.4144 62.1318 52.555 61.4287 52.4925 60.9287C52.43 60.3975 52.3831 59.9131 52.3519 59.4756L52.3988 57.6475C52.3988 56.7412 52.3206 56.1318 52.1644 55.8193C52.0081 55.5068 51.9613 55.0537 52.0238 54.46C52.0863 53.835 52.0706 53.3662 51.9769 53.0537C51.8831 52.71 51.8363 52.335 51.8363 51.9287ZM75.8325 51.9287L75.9262 49.2568C75.9262 48.8193 75.8794 48.3818 75.7856 47.9443C75.7231 47.5068 75.8325 47.0537 76.1137 46.585C76.4262 46.085 76.8794 45.6475 77.4731 45.2725C78.0669 44.8975 78.7387 44.71 79.4887 44.71C80.2387 44.71 80.8325 44.835 81.27 45.085C81.7075 45.335 82.1137 45.5381 82.4887 45.6943C82.8637 45.8506 83.2856 45.9756 83.7544 46.0693C84.7544 46.2256 85.7231 46.085 86.6606 45.6475C87.6919 45.1475 88.52 45.1787 89.145 45.7412C89.8012 45.7725 90.4887 45.71 91.2075 45.5537C92.395 45.3037 93.2075 45.2881 93.645 45.5068C94.6137 46.0693 94.77 47.1943 94.1137 48.8818C94.02 49.1318 93.9731 49.3506 93.9731 49.5381C93.9731 49.7256 93.9731 49.9131 93.9731 50.1006C93.9731 50.6631 93.9262 51.085 93.8325 51.3662C93.7387 51.6475 93.6919 51.8818 93.6919 52.0693C93.6919 52.2568 93.6919 52.4756 93.6919 52.7256C93.7544 53.2256 93.6762 53.71 93.4575 54.1787C93.3325 54.46 93.27 54.6943 93.27 54.8818C93.27 55.0381 93.27 55.1943 93.27 55.3506C93.27 55.7568 93.0512 56.1475 92.6137 56.5225C91.895 57.2725 91.3012 57.6475 90.8325 57.6475C90.7387 57.6475 90.645 57.6162 90.5512 57.5537C90.4575 57.4912 90.3169 57.4287 90.1294 57.3662C89.3794 57.1162 88.5825 56.96 87.7387 56.8975C86.9262 56.835 86.3325 56.8506 85.9575 56.9443C85.02 57.1318 84.4419 57.585 84.2231 58.3037C83.9731 59.0537 84.0356 59.6318 84.4106 60.0381C84.5669 60.2256 84.7387 60.3506 84.9262 60.4131C85.1137 60.4756 85.2856 60.4912 85.4419 60.46C85.6294 60.3975 85.8637 60.3975 86.145 60.46C86.4575 60.5225 86.77 60.6006 87.0825 60.6943C87.9262 60.8818 88.4887 60.9131 88.77 60.7881C89.0825 60.6318 89.2856 60.5693 89.3794 60.6006C89.5044 60.6318 89.5981 60.6787 89.6606 60.7412C89.8794 60.96 90.0825 61.0693 90.27 61.0693C90.77 61.0381 91.1137 61.2568 91.3012 61.7256C91.4887 62.1631 91.4575 62.71 91.2075 63.3662C91.2075 63.46 91.1606 63.6943 91.0669 64.0693C90.8481 64.8193 90.7387 65.335 90.7387 65.6162C90.77 65.8975 90.7231 66.1943 90.5981 66.5068C90.4731 66.7881 90.3012 67.0381 90.0825 67.2568C89.5512 67.7256 88.9731 67.8662 88.3481 67.6787C88.0669 67.5537 87.8169 67.3818 87.5981 67.1631C86.0044 66.6943 84.9262 66.8037 84.3637 67.4912C84.0512 67.8662 83.8794 68.1943 83.8481 68.4756C83.8169 68.7568 83.8012 69.2568 83.8012 69.9756V71.71C84.2075 71.9912 84.5825 72.3193 84.9262 72.6943C85.27 73.0381 85.6919 73.2256 86.1919 73.2568C86.6919 73.2881 87.1294 73.2568 87.5044 73.1631C87.9106 73.0381 88.2856 72.9131 88.6294 72.7881C89.3794 72.4756 90.0669 72.4287 90.6919 72.6475C91.3169 72.835 91.7075 73.1006 91.8637 73.4443C92.02 73.7881 92.0512 74.2412 91.9575 74.8037C91.8637 75.3662 91.8169 75.7881 91.8169 76.0693C91.8481 76.3193 91.8637 76.5537 91.8637 76.7725C91.8637 77.3037 91.6606 77.8193 91.2544 78.3193C90.8169 78.9756 90.4106 79.3818 90.0356 79.5381C89.6606 79.6631 89.1762 79.6943 88.5825 79.6318C87.9887 79.5381 87.5044 79.5693 87.1294 79.7256C86.7544 79.8506 86.4106 80.0225 86.0981 80.2412C85.8169 80.46 85.5356 80.6631 85.2544 80.8506C84.7856 81.1631 84.2544 81.1631 83.6606 80.8506C83.4419 80.7256 83.2231 80.6006 83.0044 80.4756C82.4419 80.1943 81.7544 80.0693 80.9419 80.1006C80.1294 80.1631 79.4106 79.9443 78.7856 79.4443C78.1606 78.9131 77.8325 78.2725 77.8012 77.5225C77.8012 76.7725 77.8481 76.2412 77.9419 75.9287C78.0356 75.585 78.1294 75.3193 78.2231 75.1318C78.3481 74.7256 78.2856 74.4131 78.0356 74.1943C77.2856 73.6006 77.02 72.8193 77.2387 71.8506C77.3325 71.3506 77.4262 70.96 77.52 70.6787C77.6137 70.3975 77.6294 70.1006 77.5669 69.7881C77.5044 69.4443 77.4731 69.1475 77.4731 68.8975C77.5044 68.6162 77.5044 68.3506 77.4731 68.1006C77.4106 67.6006 77.1919 67.3193 76.8169 67.2568C76.3481 67.1943 76.0356 66.6943 75.8794 65.7568C75.6919 64.8506 75.7544 63.9443 76.0669 63.0381C76.4106 62.1318 76.5512 61.4287 76.4887 60.9287C76.4262 60.3975 76.3794 59.9131 76.3481 59.4756L76.395 57.6475C76.395 56.7412 76.3169 56.1318 76.1606 55.8193C76.0044 55.5068 75.9575 55.0537 76.02 54.46C76.0825 53.835 76.0669 53.3662 75.9731 53.0537C75.8794 52.71 75.8325 52.335 75.8325 51.9287ZM99.8756 55.3037L99.6413 51.4131C99.6413 50.7568 99.6256 50.0537 99.5944 49.3037C99.4694 47.4287 99.5944 46.3818 99.9694 46.1631C100.313 45.9756 100.548 45.7725 100.673 45.5537C100.829 45.335 100.985 45.2256 101.141 45.2256C101.329 45.2256 101.594 45.2256 101.938 45.2256C102.313 45.1943 102.704 45.1943 103.11 45.2256C104.079 45.2881 104.719 45.4287 105.032 45.6475C105.376 45.8662 105.751 46.0068 106.157 46.0693C106.563 46.1318 106.969 46.1787 107.376 46.21C107.813 46.21 108.219 46.21 108.594 46.21C108.969 46.1787 109.298 46.1631 109.579 46.1631C109.891 46.1631 110.094 46.1943 110.188 46.2568C110.563 46.4131 110.876 46.4756 111.126 46.4443C111.407 46.4131 111.673 46.5381 111.923 46.8193C112.173 47.0693 112.344 47.2725 112.438 47.4287C112.532 47.5537 112.829 47.6475 113.329 47.71C113.86 47.7725 114.298 47.835 114.641 47.8975C114.985 47.9287 115.329 48.0693 115.673 48.3193C116.016 48.5693 116.298 48.7256 116.516 48.7881C116.735 48.8506 116.969 49.0537 117.219 49.3975C117.501 49.7412 117.688 49.9912 117.782 50.1475C117.876 50.3037 117.938 50.5693 117.969 50.9443C118.001 51.8193 118.219 52.46 118.626 52.8662C119.032 53.2725 119.251 53.6631 119.282 54.0381C119.344 54.4131 119.391 54.8506 119.423 55.3506C119.454 55.8506 119.501 56.4756 119.563 57.2256C119.657 57.9443 119.501 58.7568 119.094 59.6631C118.719 60.5381 118.329 61.1475 117.923 61.4912C117.548 61.835 117.235 62.2568 116.985 62.7568C116.735 63.2256 116.548 63.7725 116.423 64.3975C116.329 64.9912 116.001 65.6006 115.438 66.2256C115.094 66.6631 114.813 66.9287 114.594 67.0225C114.407 67.1162 114.219 67.2256 114.032 67.3506C113.844 67.4443 113.626 67.585 113.376 67.7725C113.126 67.9287 112.844 68.0693 112.532 68.1943C111.751 68.5693 111.079 68.6475 110.516 68.4287C110.173 68.585 109.829 68.6943 109.485 68.7568C109.173 68.7881 108.844 68.8506 108.501 68.9443C107.782 69.1943 107.376 69.6162 107.282 70.21C107.219 70.8037 107.282 71.4131 107.469 72.0381C107.688 72.6631 107.813 73.1943 107.844 73.6318C108.001 75.0381 107.657 76.2568 106.813 77.2881C106.282 77.9131 105.938 78.585 105.782 79.3037C105.626 79.9912 105.344 80.46 104.938 80.71C104.251 81.335 103.594 81.1943 102.969 80.2881C102.876 80.1943 102.673 80.0693 102.36 79.9131C101.923 79.6631 101.641 79.2725 101.516 78.7412C101.423 78.1787 101.376 77.6162 101.376 77.0537C101.376 76.4912 101.329 75.96 101.235 75.46C101.141 74.96 101.032 74.4287 100.907 73.8662C100.626 72.335 100.485 71.2881 100.485 70.7256C100.485 70.1631 100.469 69.585 100.438 68.9912C100.438 68.3975 100.516 67.8662 100.673 67.3975C100.86 66.9287 100.938 66.6162 100.907 66.46C100.876 66.3037 100.907 66.1318 101.001 65.9443C101.094 65.7256 101.204 65.4756 101.329 65.1943C101.454 64.8818 101.548 64.5693 101.61 64.2568C101.735 63.6006 101.548 63.0381 101.048 62.5693C100.485 62.0381 100.204 61.4756 100.204 60.8818V60.6006C100.298 59.5381 100.313 58.8193 100.251 58.4443C100.001 57.3818 99.8756 56.335 99.8756 55.3037ZM107.376 57.46C107.438 57.585 107.485 57.7725 107.516 58.0225C107.579 58.2412 107.626 58.5693 107.657 59.0068C107.719 59.4443 107.719 59.9131 107.657 60.4131C107.626 60.8818 107.594 61.3193 107.563 61.7256C107.501 62.7568 107.626 63.335 107.938 63.46C108.282 63.6162 108.844 63.1943 109.626 62.1943C110.469 61.1631 111.173 59.9131 111.735 58.4443C112.016 57.6631 112.032 57.085 111.782 56.71C111.251 56.085 111.032 55.5225 111.126 55.0225C111.157 54.9912 111.157 54.9131 111.126 54.7881C111.063 54.7256 110.985 54.6475 110.891 54.5537C110.798 54.4287 110.657 54.3193 110.469 54.2256C109.751 53.9443 109.094 53.9443 108.501 54.2256C107.938 54.4756 107.563 54.8506 107.376 55.3506C107.219 55.8506 107.141 56.2412 107.141 56.5225C107.173 56.7725 107.204 56.96 107.235 57.085C107.266 57.1787 107.313 57.3037 107.376 57.46ZM136.387 72.7412C136.544 74.1475 136.622 75.1475 136.622 75.7412C136.653 76.3037 136.637 76.7725 136.575 77.1475C136.544 77.5225 136.481 77.8662 136.387 78.1787C136.169 78.8975 135.856 79.2881 135.45 79.3506C135.169 79.3506 134.887 79.4912 134.606 79.7725C134.356 80.0225 134.153 80.21 133.997 80.335C133.841 80.46 133.606 80.5225 133.294 80.5225C133.012 80.5225 132.684 80.4756 132.309 80.3818C131.966 80.2881 131.653 80.0381 131.372 79.6318C130.747 78.7256 130.544 76.9443 130.762 74.2881C130.325 73.9756 130.012 73.5225 129.825 72.9287C129.669 72.335 129.684 71.46 129.872 70.3037C130.091 69.1475 130.216 68.3037 130.247 67.7725C130.309 67.2412 130.309 66.8037 130.247 66.46C130.216 66.085 130.137 65.7881 130.012 65.5693C129.887 65.3193 129.716 64.9756 129.497 64.5381C129.278 64.0693 129.122 63.6318 129.028 63.2256C128.966 62.7881 128.841 62.4756 128.653 62.2881C128.466 62.0693 128.341 61.8037 128.278 61.4912C128.216 61.1475 128.106 60.8193 127.95 60.5068C127.794 60.1943 127.684 59.7412 127.622 59.1475C127.591 58.5537 127.45 58.0693 127.2 57.6943C126.981 57.2881 126.747 56.96 126.497 56.71C126.278 56.4287 126.059 56.1631 125.841 55.9131C125.216 55.2256 124.778 54.6475 124.528 54.1787C124.278 53.6787 124.137 53.2568 124.106 52.9131C124.106 52.5693 124.122 52.2412 124.153 51.9287C124.247 51.1162 124.216 50.5693 124.059 50.2881L123.544 49.2568C123.012 48.1943 122.747 47.3506 122.747 46.7256C122.747 46.1006 122.919 45.6318 123.262 45.3193C123.575 45.0068 123.919 44.9131 124.294 45.0381C124.669 45.1631 125.184 45.3037 125.841 45.46C126.497 45.585 126.997 45.6162 127.341 45.5537C127.716 45.46 128.059 45.3506 128.372 45.2256C129.153 44.9756 129.778 44.9443 130.247 45.1318C130.716 45.2881 131.028 45.5693 131.184 45.9756C131.372 46.3506 131.481 46.7725 131.512 47.2412C131.544 47.71 131.559 48.1787 131.559 48.6475C131.591 49.1162 131.7 49.5225 131.887 49.8662C132.106 50.21 132.278 50.5068 132.403 50.7568C132.528 51.0068 132.622 51.2725 132.684 51.5537C132.778 51.8037 132.841 52.0693 132.872 52.3506C132.903 52.6318 132.934 52.9756 132.966 53.3818C133.028 53.7881 133.122 54.085 133.247 54.2725C133.372 54.4287 133.512 54.5068 133.669 54.5068C134.044 54.4443 134.294 54.0693 134.419 53.3818C134.544 52.6631 134.684 52.0693 134.841 51.6006C134.997 51.1006 135.137 50.6631 135.262 50.2881C135.544 49.5381 135.653 49.0225 135.591 48.7412C135.559 48.4287 135.528 48.1162 135.497 47.8037C135.497 47.46 135.559 47.1475 135.684 46.8662C135.997 46.1787 136.653 45.8975 137.653 46.0225C138.684 46.1475 139.512 46.2256 140.137 46.2568C140.762 46.2881 141.247 46.1631 141.591 45.8818C141.934 45.6006 142.278 45.4756 142.622 45.5068C142.966 45.5381 143.262 45.6787 143.512 45.9287C144.106 46.5225 144.059 47.3818 143.372 48.5068C142.716 49.6006 142.278 50.4756 142.059 51.1318C141.841 51.7568 141.778 52.3037 141.872 52.7725C141.997 53.21 142.044 53.5381 142.012 53.7568C141.981 53.9756 141.903 54.21 141.778 54.46C141.653 54.6787 141.497 54.9443 141.309 55.2568C139.966 57.6318 138.762 60.6006 137.7 64.1631C137.169 65.9131 136.809 68.0693 136.622 70.6318C136.559 71.6006 136.481 72.3037 136.387 72.7412ZM265.311 44.8506C266.28 44.5693 266.983 44.6787 267.42 45.1787C268.233 45.0225 268.983 45.21 269.67 45.7412C270.358 46.2725 270.53 47.2881 270.186 48.7881C269.967 49.5381 269.905 50.0693 269.999 50.3818C270.092 50.6943 270.217 51.0068 270.374 51.3193C270.561 51.6318 270.624 52.0068 270.561 52.4443C270.499 52.8506 270.42 53.3037 270.327 53.8037C270.014 55.21 269.952 56.3506 270.139 57.2256C270.608 59.2881 270.42 61.4443 269.577 63.6943C268.67 66.1631 268.389 69.1318 268.733 72.6006C269.014 75.1006 269.108 76.7412 269.014 77.5225C268.952 78.2725 268.78 78.8818 268.499 79.3506C268.217 79.8193 267.749 80.0537 267.092 80.0537C265.967 80.0537 265.186 79.7256 264.749 79.0693C264.499 78.6943 264.374 78.21 264.374 77.6162C264.374 77.0225 264.28 76.4912 264.092 76.0225C263.936 75.5537 263.733 75.1162 263.483 74.71C262.889 73.835 262.327 73.2256 261.795 72.8818C260.92 72.2881 260.249 70.8662 259.78 68.6162C259.499 66.96 259.139 65.6006 258.702 64.5381C258.577 64.2256 258.483 63.8975 258.42 63.5537C258.358 63.1787 258.295 62.8193 258.233 62.4756C258.045 61.7256 257.717 61.3506 257.249 61.3506C256.53 61.3506 256.249 62.3818 256.405 64.4443C256.436 64.8818 256.499 65.2881 256.592 65.6631C256.717 66.0068 256.733 66.4287 256.639 66.9287C256.545 67.4287 256.42 67.9443 256.264 68.4756C255.889 69.8506 255.811 70.8662 256.03 71.5225C256.249 72.2725 256.327 73.0693 256.264 73.9131C256.202 74.7256 256.077 75.3662 255.889 75.835C255.702 76.2725 255.374 76.585 254.905 76.7725C254.624 77.2725 254.389 77.8506 254.202 78.5068C254.014 79.1318 253.874 79.5537 253.78 79.7725C253.717 79.9912 253.624 80.1162 253.499 80.1475C252.967 80.335 252.42 80.3037 251.858 80.0537C251.327 79.8037 250.983 79.46 250.827 79.0225C250.67 78.5537 250.592 78.1162 250.592 77.71C250.624 77.3037 250.577 76.9443 250.452 76.6318C250.358 76.2881 250.311 76.0068 250.311 75.7881C250.342 75.5693 250.358 75.3506 250.358 75.1318C250.42 74.6318 250.342 74.2568 250.124 74.0068C249.842 73.6943 249.686 73.2725 249.655 72.7412C249.655 72.21 249.655 71.7568 249.655 71.3818C249.655 71.0068 249.686 70.6943 249.749 70.4443C249.967 69.8506 250.061 68.9443 250.03 67.7256C249.936 65.4443 249.655 64.0693 249.186 63.6006C248.592 63.0068 248.264 61.9131 248.202 60.3193C248.17 59.9443 248.186 59.6006 248.249 59.2881C248.342 58.9443 248.358 58.6006 248.295 58.2568C248.264 57.9131 248.327 57.5693 248.483 57.2256C248.733 56.5693 248.811 55.6475 248.717 54.46C248.624 53.2412 248.561 52.3818 248.53 51.8818C248.53 51.3506 248.499 50.8037 248.436 50.2412C248.405 49.6475 248.452 49.1318 248.577 48.6943C248.733 48.2256 248.983 47.8193 249.327 47.4756C250.108 46.6318 251.202 46.21 252.608 46.21C253.233 45.7725 253.952 45.4287 254.764 45.1787C255.608 44.9287 256.311 44.9131 256.874 45.1318C257.436 45.3506 257.827 45.6943 258.045 46.1631C258.264 46.6318 258.436 47.1318 258.561 47.6631C258.717 48.1943 258.858 48.7412 258.983 49.3037C259.139 49.835 259.389 50.2725 259.733 50.6162C260.077 50.96 260.327 51.3818 260.483 51.8818C260.639 52.3506 260.78 52.8037 260.905 53.2412C261.03 53.6787 261.155 54.0537 261.28 54.3662C261.405 54.6475 261.608 54.7881 261.889 54.7881C262.17 54.7881 262.327 54.3975 262.358 53.6162C262.42 52.8037 262.436 51.8818 262.405 50.8506C262.405 49.8193 262.389 48.8193 262.358 47.8506C262.358 46.8506 262.452 46.1318 262.639 45.6943C262.827 45.2256 263.155 44.8818 263.624 44.6631C264.124 44.4443 264.686 44.5068 265.311 44.8506ZM276.885 51.9287L276.979 49.2568C276.979 48.8193 276.932 48.3818 276.839 47.9443C276.776 47.5068 276.885 47.0537 277.167 46.585C277.479 46.085 277.932 45.6475 278.526 45.2725C279.12 44.8975 279.792 44.71 280.542 44.71C281.292 44.71 281.885 44.835 282.323 45.085C282.76 45.335 283.167 45.5381 283.542 45.6943C283.917 45.8506 284.339 45.9756 284.807 46.0693C285.807 46.2256 286.776 46.085 287.714 45.6475C288.745 45.1475 289.573 45.1787 290.198 45.7412C290.854 45.7725 291.542 45.71 292.26 45.5537C293.448 45.3037 294.26 45.2881 294.698 45.5068C295.667 46.0693 295.823 47.1943 295.167 48.8818C295.073 49.1318 295.026 49.3506 295.026 49.5381C295.026 49.7256 295.026 49.9131 295.026 50.1006C295.026 50.6631 294.979 51.085 294.885 51.3662C294.792 51.6475 294.745 51.8818 294.745 52.0693C294.745 52.2568 294.745 52.4756 294.745 52.7256C294.807 53.2256 294.729 53.71 294.51 54.1787C294.385 54.46 294.323 54.6943 294.323 54.8818C294.323 55.0381 294.323 55.1943 294.323 55.3506C294.323 55.7568 294.104 56.1475 293.667 56.5225C292.948 57.2725 292.354 57.6475 291.885 57.6475C291.792 57.6475 291.698 57.6162 291.604 57.5537C291.51 57.4912 291.37 57.4287 291.182 57.3662C290.432 57.1162 289.635 56.96 288.792 56.8975C287.979 56.835 287.385 56.8506 287.01 56.9443C286.073 57.1318 285.495 57.585 285.276 58.3037C285.026 59.0537 285.089 59.6318 285.464 60.0381C285.62 60.2256 285.792 60.3506 285.979 60.4131C286.167 60.4756 286.339 60.4912 286.495 60.46C286.682 60.3975 286.917 60.3975 287.198 60.46C287.51 60.5225 287.823 60.6006 288.135 60.6943C288.979 60.8818 289.542 60.9131 289.823 60.7881C290.135 60.6318 290.339 60.5693 290.432 60.6006C290.557 60.6318 290.651 60.6787 290.714 60.7412C290.932 60.96 291.135 61.0693 291.323 61.0693C291.823 61.0381 292.167 61.2568 292.354 61.7256C292.542 62.1631 292.51 62.71 292.26 63.3662C292.26 63.46 292.214 63.6943 292.12 64.0693C291.901 64.8193 291.792 65.335 291.792 65.6162C291.823 65.8975 291.776 66.1943 291.651 66.5068C291.526 66.7881 291.354 67.0381 291.135 67.2568C290.604 67.7256 290.026 67.8662 289.401 67.6787C289.12 67.5537 288.87 67.3818 288.651 67.1631C287.057 66.6943 285.979 66.8037 285.417 67.4912C285.104 67.8662 284.932 68.1943 284.901 68.4756C284.87 68.7568 284.854 69.2568 284.854 69.9756V71.71C285.26 71.9912 285.635 72.3193 285.979 72.6943C286.323 73.0381 286.745 73.2256 287.245 73.2568C287.745 73.2881 288.182 73.2568 288.557 73.1631C288.964 73.0381 289.339 72.9131 289.682 72.7881C290.432 72.4756 291.12 72.4287 291.745 72.6475C292.37 72.835 292.76 73.1006 292.917 73.4443C293.073 73.7881 293.104 74.2412 293.01 74.8037C292.917 75.3662 292.87 75.7881 292.87 76.0693C292.901 76.3193 292.917 76.5537 292.917 76.7725C292.917 77.3037 292.714 77.8193 292.307 78.3193C291.87 78.9756 291.464 79.3818 291.089 79.5381C290.714 79.6631 290.229 79.6943 289.635 79.6318C289.042 79.5381 288.557 79.5693 288.182 79.7256C287.807 79.8506 287.464 80.0225 287.151 80.2412C286.87 80.46 286.589 80.6631 286.307 80.8506C285.839 81.1631 285.307 81.1631 284.714 80.8506C284.495 80.7256 284.276 80.6006 284.057 80.4756C283.495 80.1943 282.807 80.0693 281.995 80.1006C281.182 80.1631 280.464 79.9443 279.839 79.4443C279.214 78.9131 278.885 78.2725 278.854 77.5225C278.854 76.7725 278.901 76.2412 278.995 75.9287C279.089 75.585 279.182 75.3193 279.276 75.1318C279.401 74.7256 279.339 74.4131 279.089 74.1943C278.339 73.6006 278.073 72.8193 278.292 71.8506C278.385 71.3506 278.479 70.96 278.573 70.6787C278.667 70.3975 278.682 70.1006 278.62 69.7881C278.557 69.4443 278.526 69.1475 278.526 68.8975C278.557 68.6162 278.557 68.3506 278.526 68.1006C278.464 67.6006 278.245 67.3193 277.87 67.2568C277.401 67.1943 277.089 66.6943 276.932 65.7568C276.745 64.8506 276.807 63.9443 277.12 63.0381C277.464 62.1318 277.604 61.4287 277.542 60.9287C277.479 60.3975 277.432 59.9131 277.401 59.4756L277.448 57.6475C277.448 56.7412 277.37 56.1318 277.214 55.8193C277.057 55.5068 277.01 55.0537 277.073 54.46C277.135 53.835 277.12 53.3662 277.026 53.0537C276.932 52.71 276.885 52.335 276.885 51.9287Z" fill="#E6E6E6"/>
<path d="M155.556 53.8213C155.556 54.0674 155.52 54.2783 155.45 54.4541C155.38 54.6299 155.286 54.7939 155.169 54.9463C155.063 55.0869 154.946 55.2275 154.817 55.3682C154.7 55.4971 154.589 55.6436 154.483 55.8076C154.331 56.0303 154.202 56.2705 154.097 56.5283C154.003 56.7744 153.909 57.0264 153.815 57.2842C153.733 57.542 153.64 57.7998 153.534 58.0576C153.44 58.3037 153.311 58.5381 153.147 58.7607C152.901 59.0537 152.708 59.376 152.567 59.7275C152.427 60.0791 152.321 60.4424 152.251 60.8174C152.192 61.1924 152.151 61.5732 152.128 61.96C152.116 62.3467 152.11 62.7275 152.11 63.1025C152.11 63.2314 152.099 63.4424 152.075 63.7354C152.052 64.0283 152.017 64.3447 151.97 64.6846C151.935 65.0244 151.888 65.3584 151.829 65.6865C151.77 66.0029 151.706 66.249 151.636 66.4248L151.425 66.8994C151.39 67.0635 151.372 67.2158 151.372 67.3564C151.372 67.5557 151.384 67.7549 151.407 67.9541C151.442 68.1533 151.46 68.3525 151.46 68.5518C151.46 68.8447 151.407 69.1201 151.302 69.3779C151.196 69.6357 151.144 69.9111 151.144 70.2041C151.144 70.3447 151.173 70.4736 151.231 70.5908C151.29 70.6963 151.354 70.8076 151.425 70.9248C151.495 71.042 151.56 71.165 151.618 71.2939C151.677 71.4229 151.706 71.5752 151.706 71.751C151.706 71.9385 151.694 72.1201 151.671 72.2959C151.647 72.4717 151.636 72.6416 151.636 72.8057C151.636 73.1572 151.677 73.4326 151.759 73.6318C151.841 73.8193 151.935 73.9834 152.04 74.124C152.157 74.2529 152.269 74.3877 152.374 74.5283C152.479 74.6689 152.556 74.8623 152.602 75.1084C152.661 75.3193 152.685 75.5303 152.673 75.7412C152.673 75.9404 152.69 76.1455 152.726 76.3564C152.749 76.5322 152.79 76.7021 152.849 76.8662C152.907 77.0186 152.966 77.1768 153.024 77.3408C153.083 77.4932 153.136 77.6572 153.183 77.833C153.229 77.9971 153.253 78.167 153.253 78.3428C153.253 78.4365 153.282 78.5361 153.341 78.6416C153.399 78.7354 153.47 78.8291 153.552 78.9229C153.634 79.0049 153.716 79.0869 153.798 79.1689C153.892 79.251 153.962 79.3213 154.009 79.3799C154.114 79.5205 154.179 79.667 154.202 79.8193C154.237 79.9834 154.261 80.1416 154.272 80.2939C154.296 80.458 154.325 80.6162 154.36 80.7686C154.407 80.9326 154.495 81.085 154.624 81.2256C154.683 81.2607 154.735 81.2959 154.782 81.3311C154.829 81.3662 154.864 81.4131 154.888 81.4717L154.993 81.7354C154.993 81.8174 154.946 81.8936 154.852 81.9639C154.77 82.0459 154.671 82.1162 154.554 82.1748C154.436 82.2334 154.313 82.2803 154.185 82.3154C154.067 82.3506 153.974 82.3682 153.903 82.3682C153.88 82.3682 153.804 82.3096 153.675 82.1924C153.558 82.0752 153.429 81.9404 153.288 81.7881C153.147 81.6475 153.007 81.5068 152.866 81.3662C152.737 81.2256 152.649 81.1318 152.602 81.085C152.567 80.8506 152.526 80.6807 152.479 80.5752C152.433 80.4814 152.356 80.335 152.251 80.1357C152.181 79.9951 152.134 79.8486 152.11 79.6963C152.099 79.5322 152.075 79.3682 152.04 79.2041C151.981 78.9346 151.87 78.6943 151.706 78.4834C151.554 78.2607 151.413 78.0322 151.284 77.7979C151.085 77.4229 150.921 77.0244 150.792 76.6025C150.675 76.1807 150.563 75.7646 150.458 75.3545C150.388 75.0732 150.311 74.8623 150.229 74.7217C150.159 74.5693 150.089 74.4287 150.019 74.2998C149.96 74.1592 149.907 74.001 149.86 73.8252C149.825 73.6377 149.808 73.3682 149.808 73.0166C149.808 72.876 149.784 72.7354 149.737 72.5947C149.69 72.4424 149.667 72.2959 149.667 72.1553C149.667 72.0615 149.685 71.9678 149.72 71.874C149.755 71.7686 149.772 71.6689 149.772 71.5752C149.772 71.3994 149.737 71.2354 149.667 71.083C149.608 70.9307 149.567 70.7725 149.544 70.6084C149.485 70.3037 149.444 70.0049 149.421 69.7119C149.397 69.4072 149.374 69.1084 149.351 68.8154C149.327 68.5107 149.286 68.2178 149.227 67.9365C149.181 67.6436 149.099 67.3564 148.981 67.0752C148.981 66.9111 149.011 66.7588 149.069 66.6182C149.128 66.4658 149.157 66.3076 149.157 66.1436C149.157 65.8037 149.099 65.4697 148.981 65.1416C148.876 64.8018 148.823 64.4619 148.823 64.1221C148.823 63.9932 148.87 63.8291 148.964 63.6299C149.069 63.4307 149.181 63.2197 149.298 62.9971C149.415 62.7744 149.52 62.5576 149.614 62.3467C149.72 62.124 149.772 61.9248 149.772 61.749C149.772 61.6436 149.755 61.5439 149.72 61.4502C149.685 61.3447 149.667 61.2393 149.667 61.1338C149.667 60.9932 149.696 60.8701 149.755 60.7646C149.813 60.6475 149.878 60.5361 149.948 60.4307C150.019 60.3252 150.083 60.2197 150.142 60.1143C150.2 59.9971 150.229 59.8682 150.229 59.7275C150.229 59.5869 150.206 59.4463 150.159 59.3057C150.112 59.1533 150.089 59.0068 150.089 58.8662C150.276 58.7959 150.435 58.6846 150.563 58.5322C150.704 58.3799 150.774 58.2041 150.774 58.0049C150.774 57.8994 150.757 57.7939 150.722 57.6885C150.686 57.5713 150.669 57.46 150.669 57.3545C150.669 57.2256 150.692 57.0674 150.739 56.8799C150.786 56.6924 150.839 56.499 150.897 56.2998C150.968 56.1006 151.038 55.9072 151.108 55.7197C151.19 55.5322 151.261 55.3799 151.319 55.2627C151.413 55.0869 151.472 54.9053 151.495 54.7178C151.519 54.5303 151.577 54.3428 151.671 54.1553C151.776 53.9209 151.923 53.71 152.11 53.5225C152.298 53.3232 152.509 53.1533 152.743 53.0127C152.977 52.8721 153.224 52.7666 153.481 52.6963C153.751 52.6143 154.015 52.5732 154.272 52.5732C154.671 52.5732 154.981 52.6846 155.204 52.9072C155.438 53.1182 155.556 53.4229 155.556 53.8213ZM161.477 57.2666C161.43 57.3252 161.377 57.3779 161.318 57.4248C161.272 57.4717 161.213 57.4951 161.143 57.4951C161.061 57.4951 160.99 57.46 160.932 57.3896C160.885 57.3193 160.861 57.2432 160.861 57.1611C160.861 57.1494 160.867 57.1318 160.879 57.1084C160.891 57.085 160.897 57.0615 160.897 57.0381L161.002 57.0029C161.096 57.0029 161.184 57.0322 161.266 57.0908C161.348 57.1494 161.418 57.208 161.477 57.2666ZM166.486 69.7998V69.8525C166.475 69.8174 166.469 69.7881 166.469 69.7646C166.469 69.7295 166.469 69.7002 166.469 69.6768L166.486 69.7822V69.7998ZM178.738 61.6963C178.738 61.8721 178.732 62.0713 178.721 62.2939C178.709 62.5166 178.686 62.7451 178.65 62.9795C178.627 63.2139 178.592 63.4424 178.545 63.665C178.51 63.876 178.463 64.0635 178.404 64.2275C178.24 64.626 178.024 64.9893 177.754 65.3174C177.496 65.6455 177.291 66.0146 177.139 66.4248C177.104 66.5303 177.004 66.6475 176.84 66.7764C176.676 66.9053 176.494 67.0342 176.295 67.1631C176.096 67.292 175.897 67.415 175.697 67.5322C175.51 67.6377 175.363 67.7256 175.258 67.7959C174.59 68.2061 173.922 68.5166 173.254 68.7275C172.586 68.9385 171.865 69.0439 171.092 69.0439H170.986C170.799 68.9385 170.641 68.8682 170.512 68.833C170.395 68.7979 170.225 68.7803 170.002 68.7803C169.779 68.7803 169.563 68.7861 169.352 68.7979C169.141 68.8096 168.93 68.8271 168.719 68.8506C168.637 68.8623 168.473 68.9092 168.227 68.9912C167.992 69.0615 167.746 69.1494 167.488 69.2549C167.231 69.3486 166.996 69.4482 166.785 69.5537C166.586 69.6475 166.486 69.7236 166.486 69.7822V69.8525C166.51 69.9346 166.539 69.9756 166.574 69.9756C166.633 69.9756 166.686 69.9463 166.732 69.8877C166.791 69.8174 166.856 69.7822 166.926 69.7822C166.984 69.7822 167.031 69.8115 167.066 69.8701C167.102 69.9287 167.125 69.999 167.137 70.0811C167.16 70.1514 167.172 70.2275 167.172 70.3096C167.184 70.3799 167.19 70.4326 167.19 70.4678C167.19 70.8076 167.154 71.1475 167.084 71.4873C167.014 71.8154 166.979 72.1494 166.979 72.4893C166.979 72.8291 166.973 73.1689 166.961 73.5088C166.961 73.8369 166.961 74.1709 166.961 74.5107C166.961 75.1318 166.99 75.6006 167.049 75.917C167.119 76.2334 167.248 76.4736 167.436 76.6377C167.623 76.79 167.881 76.9072 168.209 76.9893C168.537 77.0596 168.965 77.165 169.492 77.3057C169.457 77.4111 169.44 77.5107 169.44 77.6045C169.44 77.7451 169.481 77.8506 169.563 77.9209C169.656 77.9795 169.75 78.0439 169.844 78.1143C169.949 78.1729 170.043 78.2432 170.125 78.3252C170.219 78.4072 170.266 78.5361 170.266 78.7119C170.266 78.8643 170.207 78.999 170.09 79.1162C169.949 79.2568 169.856 79.374 169.809 79.4678C169.774 79.5615 169.738 79.6377 169.703 79.6963C169.668 79.7432 169.604 79.7842 169.51 79.8193C169.416 79.8428 169.246 79.8604 169 79.8721C168.438 79.9072 167.881 79.9248 167.33 79.9248C167.119 79.9248 166.908 79.9189 166.697 79.9072C166.486 79.9072 166.27 79.9072 166.047 79.9072C165.484 79.9072 164.934 79.9248 164.395 79.96C164.066 79.9834 163.744 80.0361 163.428 80.1182C163.123 80.2002 162.801 80.2412 162.461 80.2412C162.074 80.2412 161.811 80.1299 161.67 79.9072C161.529 79.6846 161.459 79.3975 161.459 79.0459C161.459 78.7061 161.535 78.4248 161.688 78.2021C161.84 77.9678 162.027 77.7803 162.25 77.6396C162.484 77.4873 162.731 77.3643 162.988 77.2705C163.258 77.1768 163.504 77.0889 163.727 77.0068C163.961 76.9131 164.154 76.8193 164.307 76.7256C164.459 76.6318 164.535 76.5088 164.535 76.3564C164.535 76.2158 164.506 76.0811 164.447 75.9521C164.4 75.8232 164.377 75.6885 164.377 75.5479C164.377 75.4658 164.418 75.3076 164.5 75.0732C164.582 74.8389 164.623 74.5635 164.623 74.2471C164.623 74.1182 164.623 73.9951 164.623 73.8779C164.623 73.749 164.617 73.6201 164.606 73.4912C164.535 73.4561 164.482 73.3857 164.447 73.2803C164.412 73.1748 164.383 73.0635 164.359 72.9463C164.348 72.8174 164.342 72.6943 164.342 72.5771C164.342 72.4482 164.342 72.3486 164.342 72.2783C164.342 71.833 164.371 71.3936 164.43 70.96C164.488 70.5146 164.518 70.0693 164.518 69.624C164.518 69.3428 164.5 69.0674 164.465 68.7979C164.43 68.5283 164.412 68.2529 164.412 67.9717C164.412 67.8896 164.436 67.8311 164.482 67.7959C164.377 67.7139 164.324 67.5967 164.324 67.4443C164.324 67.2803 164.348 67.1279 164.395 66.9873C164.453 66.8467 164.482 66.7002 164.482 66.5479C164.482 66.3135 164.459 66.0791 164.412 65.8447C164.365 65.6104 164.313 65.3818 164.254 65.1592C164.207 64.9248 164.16 64.6963 164.113 64.4736C164.078 64.2393 164.061 64.0049 164.061 63.7705C164.061 63.6299 164.078 63.4951 164.113 63.3662C164.16 63.2373 164.201 63.1084 164.236 62.9795C164.283 62.8389 164.324 62.7041 164.359 62.5752C164.406 62.4346 164.43 62.2881 164.43 62.1357C164.43 61.7373 164.389 61.3506 164.307 60.9756C164.236 60.5889 164.201 60.1963 164.201 59.7979C164.201 59.5635 164.254 59.3936 164.359 59.2881C164.477 59.1709 164.6 59.0771 164.729 59.0068C164.857 58.9365 164.975 58.8721 165.08 58.8135C165.197 58.7432 165.256 58.6436 165.256 58.5146C165.256 58.4326 165.215 58.3623 165.133 58.3037C165.063 58.2451 164.992 58.2158 164.922 58.2158C164.758 58.2158 164.617 58.2686 164.5 58.374C164.383 58.4795 164.248 58.5322 164.096 58.5322C164.002 58.5322 163.914 58.4736 163.832 58.3564C163.762 58.2275 163.68 58.0928 163.586 57.9521C163.504 57.8115 163.404 57.6826 163.287 57.5654C163.182 57.4365 163.053 57.3721 162.9 57.3721C162.772 57.3721 162.643 57.3896 162.514 57.4248C162.385 57.46 162.256 57.4775 162.127 57.4775C161.951 57.4775 161.84 57.4365 161.793 57.3545C161.746 57.2725 161.723 57.167 161.723 57.0381C161.723 56.9795 161.723 56.9209 161.723 56.8623C161.734 56.8037 161.74 56.7451 161.74 56.6865C161.74 56.5928 161.723 56.4932 161.688 56.3877C161.652 56.2822 161.57 56.2295 161.441 56.2295C161.371 56.2295 161.301 56.2412 161.231 56.2646C161.395 56.0537 161.611 55.8955 161.881 55.79C162.15 55.6729 162.432 55.585 162.725 55.5264C163.029 55.4678 163.334 55.4268 163.639 55.4033C163.955 55.3682 164.236 55.3213 164.482 55.2627C164.576 55.2393 164.658 55.2217 164.729 55.21C164.811 55.1982 164.899 55.1924 164.992 55.1924C165.203 55.1924 165.408 55.2158 165.607 55.2627C165.818 55.2979 166.024 55.3154 166.223 55.3154C166.445 55.3154 166.621 55.2686 166.75 55.1748C166.891 55.0693 167.055 55.0166 167.242 55.0166C167.336 55.0635 167.459 55.1221 167.611 55.1924C167.764 55.251 167.887 55.2803 167.981 55.2803C168.379 55.2803 168.772 55.2568 169.158 55.21C169.545 55.1631 169.932 55.1396 170.318 55.1396C170.74 55.1396 171.145 55.1982 171.531 55.3154C171.93 55.4209 172.322 55.5439 172.709 55.6846C173.107 55.8252 173.5 55.9658 173.887 56.1064C174.274 56.2471 174.672 56.3525 175.082 56.4229C175.223 56.4463 175.357 56.499 175.486 56.5811C175.627 56.6631 175.762 56.7627 175.891 56.8799C176.02 56.9854 176.143 57.0967 176.26 57.2139C176.389 57.3311 176.506 57.4307 176.611 57.5127C176.775 57.6416 176.904 57.7881 176.998 57.9521C177.104 58.1162 177.203 58.2861 177.297 58.4619C177.402 58.626 177.508 58.79 177.613 58.9541C177.731 59.1064 177.877 59.2412 178.053 59.3584C178.217 59.4639 178.346 59.6162 178.44 59.8154C178.533 60.0029 178.598 60.208 178.633 60.4307C178.68 60.6533 178.709 60.876 178.721 61.0986C178.732 61.3213 178.738 61.5205 178.738 61.6963ZM175.838 62.7686C175.838 62.0186 175.721 61.3389 175.486 60.7295C175.264 60.1084 174.936 59.5811 174.502 59.1475C174.08 58.7021 173.565 58.3564 172.955 58.1104C172.346 57.8643 171.666 57.7412 170.916 57.7412C170.799 57.7412 170.623 57.7412 170.389 57.7412C170.154 57.7412 169.897 57.7471 169.615 57.7588C169.334 57.7705 169.041 57.7881 168.736 57.8115C168.432 57.835 168.15 57.8701 167.893 57.917C167.635 57.9521 167.406 58.0049 167.207 58.0752C167.02 58.1338 166.897 58.21 166.838 58.3037C166.756 58.4326 166.639 58.5908 166.486 58.7783C166.346 58.9541 166.275 59.1123 166.275 59.2529C166.275 59.3818 166.311 59.5166 166.381 59.6572C166.451 59.7861 166.527 59.9268 166.609 60.0791C166.703 60.2314 166.785 60.3896 166.856 60.5537C166.938 60.7061 166.979 60.8643 166.979 61.0283C166.885 61.04 166.797 61.0693 166.715 61.1162C166.633 61.1514 166.592 61.2217 166.592 61.3271C166.592 61.5029 166.645 61.6963 166.75 61.9072C166.867 62.1182 166.926 62.335 166.926 62.5576C166.926 62.7217 166.891 62.8506 166.82 62.9443C166.75 63.0264 166.674 63.0967 166.592 63.1553C166.51 63.2139 166.434 63.2725 166.363 63.3311C166.293 63.3896 166.258 63.4658 166.258 63.5596C166.258 63.665 166.334 63.8408 166.486 64.0869C166.639 64.333 166.809 64.5967 166.996 64.8779C167.184 65.1475 167.354 65.3994 167.506 65.6338C167.658 65.8564 167.734 65.9912 167.734 66.0381C168.016 66.0732 168.291 66.0908 168.561 66.0908C168.736 66.0908 169.024 66.085 169.422 66.0732C169.832 66.0498 170.26 66.0264 170.705 66.0029C171.15 65.9678 171.566 65.9326 171.953 65.8975C172.34 65.8623 172.604 65.8271 172.744 65.792C172.897 65.7568 173.002 65.7041 173.061 65.6338C173.119 65.5635 173.178 65.4932 173.236 65.4229C173.295 65.3525 173.365 65.2939 173.447 65.2471C173.541 65.1885 173.688 65.1592 173.887 65.1592C174.25 65.1592 174.555 65.0947 174.801 64.9658C175.059 64.8369 175.264 64.667 175.416 64.4561C175.568 64.2334 175.674 63.9814 175.732 63.7002C175.803 63.4072 175.838 63.0967 175.838 62.7686ZM203.714 62.2764C203.714 62.3232 203.685 62.417 203.626 62.5576C203.568 62.6982 203.497 62.8506 203.415 63.0146C203.345 63.1787 203.269 63.3311 203.187 63.4717C203.105 63.6123 203.04 63.7061 202.993 63.7529L203.029 63.7705C203.005 63.7705 202.982 63.7764 202.958 63.7881H202.87C202.823 63.7998 202.771 63.8057 202.712 63.8057C202.665 63.8057 202.613 63.8057 202.554 63.8057L202.624 63.7881C202.355 63.7764 202.109 63.7295 201.886 63.6475C201.675 63.5537 201.499 63.3838 201.359 63.1377C201.335 63.0908 201.3 63.0088 201.253 62.8916C201.206 62.7627 201.159 62.6279 201.113 62.4873C201.066 62.3467 201.025 62.2178 200.989 62.1006C200.966 61.9717 200.954 61.8779 200.954 61.8193C200.954 61.7256 200.96 61.626 200.972 61.5205C200.995 61.415 201.007 61.3154 201.007 61.2217C201.007 60.8584 200.972 60.501 200.902 60.1494C200.831 59.7979 200.796 59.4404 200.796 59.0771C200.796 58.8428 200.825 58.6143 200.884 58.3916C200.943 58.1689 201.048 57.9639 201.2 57.7764H201.113C200.972 57.7764 200.861 57.7354 200.779 57.6533C200.696 57.5596 200.562 57.5127 200.374 57.5127C199.929 57.5127 199.495 57.5654 199.073 57.6709C198.652 57.7764 198.206 57.8291 197.738 57.8291C197.55 57.8291 197.363 57.8291 197.175 57.8291C196.988 57.8174 196.794 57.8115 196.595 57.8115C196.232 57.8115 195.874 57.8525 195.523 57.9346C195.171 58.0166 194.831 58.0576 194.503 58.0576C194.468 58.0576 194.45 58.0518 194.45 58.04C194.45 58.0166 194.491 57.9873 194.573 57.9521C194.655 57.9053 194.696 57.8701 194.696 57.8467C194.696 57.7998 194.655 57.7764 194.573 57.7764C194.503 57.7764 194.456 57.7764 194.433 57.7764C194.339 57.7764 194.257 57.8232 194.187 57.917C194.128 58.0107 194.034 58.0752 193.905 58.1104C193.73 58.1572 193.542 58.1807 193.343 58.1807C193.144 58.1807 192.95 58.1807 192.763 58.1807C192.646 58.1807 192.476 58.1748 192.253 58.1631C192.03 58.1514 191.808 58.1279 191.585 58.0928C191.363 58.0459 191.157 57.9814 190.97 57.8994C190.794 57.8057 190.695 57.6768 190.671 57.5127C190.542 57.5479 190.454 57.6123 190.407 57.7061C190.372 57.7881 190.337 57.876 190.302 57.9697C190.279 58.0635 190.238 58.1514 190.179 58.2334C190.12 58.3037 190.003 58.3447 189.827 58.3564C189.499 58.3799 189.288 58.4854 189.195 58.6729C189.101 58.8604 189.054 59.0713 189.054 59.3057C189.054 59.4346 189.06 59.5635 189.071 59.6924C189.083 59.8213 189.089 59.9502 189.089 60.0791C189.089 60.5479 189.077 61.0166 189.054 61.4854C189.042 61.9424 189.036 62.4053 189.036 62.874C189.036 63.0732 189.036 63.3428 189.036 63.6826C189.048 64.0107 189.071 64.3389 189.107 64.667C189.154 64.9834 189.218 65.2705 189.3 65.5283C189.382 65.7744 189.499 65.915 189.652 65.9502C189.745 65.9736 189.845 65.9912 189.95 66.0029C190.056 66.0029 190.161 66.0029 190.267 66.0029C190.677 66.0029 191.075 65.9561 191.462 65.8623C191.861 65.7686 192.265 65.7217 192.675 65.7217C192.839 65.7217 192.991 65.7451 193.132 65.792C193.284 65.8389 193.437 65.8623 193.589 65.8623C193.812 65.8623 193.982 65.7568 194.099 65.5459C194.228 65.3232 194.316 65.0713 194.363 64.79C194.421 64.4971 194.456 64.2041 194.468 63.9111C194.48 63.6182 194.486 63.4014 194.486 63.2607C194.486 62.9678 194.474 62.6807 194.45 62.3994C194.439 62.1064 194.433 61.8135 194.433 61.5205H194.538C194.831 61.5205 195.107 61.5674 195.364 61.6611C195.622 61.7549 195.892 61.8018 196.173 61.8018C196.29 61.8018 196.378 61.7959 196.437 61.7842C196.437 62.0186 196.478 62.2529 196.56 62.4873C196.642 62.7217 196.683 62.9619 196.683 63.208C196.683 63.5127 196.519 63.7061 196.191 63.7881C196.284 63.9521 196.361 64.1162 196.419 64.2803C196.478 64.4443 196.507 64.6143 196.507 64.79C196.507 64.9189 196.495 65.0479 196.472 65.1768C196.448 65.2939 196.437 65.417 196.437 65.5459C196.437 65.6631 196.472 65.7568 196.542 65.8271C196.624 65.8857 196.665 65.9561 196.665 66.0381C196.665 66.1787 196.607 66.3545 196.489 66.5654C196.384 66.7764 196.331 66.9932 196.331 67.2158C196.331 67.4736 196.355 67.7432 196.402 68.0244C196.448 68.3057 196.501 68.5986 196.56 68.9033C196.618 69.208 196.671 69.5186 196.718 69.835C196.765 70.1396 196.788 70.4502 196.788 70.7666C196.788 70.9541 196.777 71.1475 196.753 71.3467C196.741 71.5459 196.7 71.7393 196.63 71.9268C196.571 72.1025 196.484 72.2666 196.366 72.4189C196.261 72.5713 196.12 72.7002 195.945 72.8057C195.722 72.7822 195.534 72.7178 195.382 72.6123C195.23 72.4951 195.101 72.3604 194.995 72.208C194.902 72.0439 194.825 71.8682 194.767 71.6807C194.72 71.4814 194.685 71.2822 194.661 71.083C194.614 70.7783 194.591 70.4971 194.591 70.2393C194.591 69.9814 194.532 69.7646 194.415 69.5889C194.31 69.4014 194.099 69.2549 193.782 69.1494C193.478 69.0439 192.997 68.9912 192.341 68.9912C192.154 68.9912 191.884 69.0088 191.532 69.0439C191.193 69.0791 190.853 69.1436 190.513 69.2373C190.173 69.3193 189.874 69.4424 189.616 69.6064C189.37 69.7705 189.247 69.9756 189.247 70.2217C189.247 70.3623 189.259 70.5029 189.282 70.6436C189.318 70.7725 189.335 70.9072 189.335 71.0479C189.335 71.165 189.329 71.2822 189.318 71.3994C189.306 71.5166 189.3 71.6396 189.3 71.7686C189.3 72.085 189.318 72.4014 189.353 72.7178C189.388 73.0225 189.405 73.333 189.405 73.6494C189.405 73.9893 189.359 74.3232 189.265 74.6514C189.183 74.9795 189.142 75.3135 189.142 75.6533C189.142 76.0283 189.23 76.3271 189.405 76.5498C189.593 76.7607 189.827 76.9248 190.109 77.042C190.39 77.1475 190.695 77.2178 191.023 77.2529C191.351 77.2881 191.655 77.3057 191.937 77.3057C192.499 77.3057 193.062 77.2705 193.624 77.2002C194.187 77.1299 194.749 77.0947 195.312 77.0947C195.663 77.0947 196.015 77.1123 196.366 77.1475C196.718 77.1826 197.07 77.2002 197.421 77.2002C197.691 77.2002 197.989 77.1943 198.318 77.1826C198.646 77.1592 198.956 77.1006 199.249 77.0068C199.554 76.9131 199.812 76.7783 200.023 76.6025C200.245 76.415 200.386 76.1514 200.445 75.8115C200.456 75.7178 200.486 75.6533 200.532 75.6182C200.591 75.5713 200.65 75.5361 200.708 75.5127C200.779 75.4775 200.837 75.4424 200.884 75.4072C200.931 75.3721 200.954 75.3135 200.954 75.2314C200.954 75.1377 200.919 75.0322 200.849 74.915C200.779 74.7861 200.732 74.6689 200.708 74.5635C200.661 74.3408 200.632 74.1182 200.62 73.8955C200.62 73.6611 200.62 73.4326 200.62 73.21C200.62 72.8584 200.673 72.5537 200.779 72.2959C200.896 72.0264 200.954 71.7334 200.954 71.417C200.954 71.3232 200.948 71.2354 200.937 71.1533C200.937 71.0713 200.937 70.9834 200.937 70.8896C200.937 70.8193 200.989 70.749 201.095 70.6787C201.2 70.6084 201.323 70.5498 201.464 70.5029C201.605 70.4443 201.745 70.3975 201.886 70.3623C202.027 70.3271 202.132 70.3096 202.202 70.3096C202.495 70.3096 202.736 70.415 202.923 70.626C203.111 70.8252 203.251 71.0713 203.345 71.3643C203.45 71.6572 203.521 71.9619 203.556 72.2783C203.591 72.5947 203.609 72.8643 203.609 73.0869C203.609 73.4502 203.579 73.8604 203.521 74.3174C203.462 74.7744 203.38 75.2432 203.275 75.7236C203.181 76.2041 203.07 76.6729 202.941 77.1299C202.812 77.5752 202.683 77.9678 202.554 78.3076C202.484 78.4717 202.413 78.5947 202.343 78.6768C202.284 78.7588 202.214 78.8291 202.132 78.8877C202.062 78.9346 201.98 78.9873 201.886 79.0459C201.804 79.0928 201.71 79.1748 201.605 79.292C201.511 79.3975 201.329 79.4678 201.06 79.5029C200.802 79.5381 200.527 79.5557 200.234 79.5557C200.011 79.5557 199.8 79.5498 199.601 79.5381C199.402 79.5264 199.249 79.5205 199.144 79.5205C198.757 79.5205 198.441 79.5674 198.195 79.6611C197.96 79.7549 197.738 79.8018 197.527 79.8018C197.374 79.8018 197.275 79.7725 197.228 79.7139C197.181 79.6436 197.111 79.6084 197.017 79.6084C196.935 79.6084 196.859 79.6436 196.788 79.7139C196.718 79.7842 196.613 79.8193 196.472 79.8193C196.331 79.8193 196.185 79.8193 196.032 79.8193C195.892 79.8076 195.745 79.8018 195.593 79.8018C194.714 79.8018 193.841 79.8252 192.974 79.8721C192.107 79.9307 191.234 79.9717 190.355 79.9951C189.757 80.0186 189.165 80.0889 188.579 80.2061C187.993 80.3232 187.402 80.3818 186.804 80.3818C186.593 80.3818 186.353 80.3584 186.083 80.3115C185.814 80.2764 185.556 80.2061 185.31 80.1006C185.075 79.9951 184.876 79.8545 184.712 79.6787C184.548 79.4912 184.466 79.2627 184.466 78.9932C184.466 78.7354 184.56 78.4893 184.747 78.2549C184.935 78.0205 185.157 77.8037 185.415 77.6045C185.685 77.4053 185.96 77.2236 186.241 77.0596C186.523 76.8838 186.751 76.7197 186.927 76.5674C186.915 76.4736 186.909 76.3857 186.909 76.3037C186.909 76.2217 186.909 76.1396 186.909 76.0576C186.909 75.8818 186.909 75.7061 186.909 75.5303C186.921 75.3545 186.956 75.1787 187.015 75.0029C187.038 74.8975 187.097 74.7744 187.191 74.6338C187.296 74.4814 187.349 74.3525 187.349 74.2471C187.349 74.165 187.331 74.0889 187.296 74.0186C187.273 73.9482 187.249 73.8721 187.226 73.79C187.097 73.4736 187.003 73.1924 186.945 72.9463C186.898 72.7002 186.874 72.4014 186.874 72.0498C186.874 71.8389 186.874 71.6572 186.874 71.5049C186.886 71.3408 186.898 71.1885 186.909 71.0479C186.933 70.8955 186.962 70.7432 186.997 70.5908C187.044 70.4268 187.103 70.2451 187.173 70.0459C187.126 69.9639 187.073 69.8408 187.015 69.6768C186.956 69.5127 186.927 69.3838 186.927 69.29L187.173 66.7939C187.161 66.7588 187.155 66.7002 187.155 66.6182C187.155 66.5127 187.173 66.4072 187.208 66.3018C187.243 66.1963 187.261 66.085 187.261 65.9678C187.261 65.6982 187.214 65.4346 187.12 65.1768C187.027 64.9072 186.98 64.6377 186.98 64.3682C186.98 64.2744 187.003 64.1631 187.05 64.0342C187.097 63.9053 187.144 63.7646 187.191 63.6123C187.249 63.46 187.302 63.2959 187.349 63.1201C187.396 62.9326 187.419 62.7334 187.419 62.5225C187.419 62.3584 187.378 62.2178 187.296 62.1006C187.226 61.9834 187.191 61.8486 187.191 61.6963C187.191 61.5557 187.226 61.415 187.296 61.2744C187.366 61.1338 187.402 60.9814 187.402 60.8174C187.402 60.583 187.355 60.3604 187.261 60.1494C187.179 59.9268 187.091 59.7158 186.997 59.5166C186.857 59.2236 186.745 58.9893 186.663 58.8135C186.593 58.626 186.505 58.4795 186.4 58.374C186.294 58.2568 186.148 58.1748 185.96 58.1279C185.784 58.0693 185.527 58.0283 185.187 58.0049C185.023 57.9932 184.864 57.9463 184.712 57.8643C184.571 57.7705 184.443 57.6533 184.325 57.5127C184.22 57.3721 184.132 57.2197 184.062 57.0557C183.991 56.8916 183.956 56.7334 183.956 56.5811C183.956 56.3701 184.05 56.1943 184.238 56.0537C184.425 55.9014 184.665 55.7842 184.958 55.7021C185.251 55.6084 185.579 55.5381 185.943 55.4912C186.306 55.4326 186.657 55.3916 186.997 55.3682C187.349 55.333 187.665 55.3096 187.946 55.2979C188.239 55.2861 188.462 55.2686 188.614 55.2451C188.849 55.21 189.077 55.1865 189.3 55.1748C189.523 55.1631 189.751 55.1572 189.986 55.1572C190.443 55.1572 190.9 55.1748 191.357 55.21C191.825 55.2334 192.288 55.2451 192.745 55.2451C193.238 55.2451 193.718 55.1982 194.187 55.1045C194.667 55.0107 195.154 54.9639 195.646 54.9639C196.091 54.9639 196.53 55.0166 196.964 55.1221C197.398 55.2158 197.825 55.2627 198.247 55.2627C198.657 55.2627 199.062 55.2158 199.46 55.1221C199.859 55.0166 200.263 54.9639 200.673 54.9639C200.849 54.9639 201.025 54.9814 201.2 55.0166C201.458 55.2979 201.693 55.5322 201.904 55.7197C202.126 55.9072 202.314 56.1006 202.466 56.2998C202.63 56.4873 202.759 56.71 202.853 56.9678C202.958 57.2256 203.029 57.5654 203.064 57.9873C203.075 58.1396 203.081 58.3271 203.081 58.5498C203.081 58.7607 203.087 58.9717 203.099 59.1826C203.111 59.3818 203.14 59.5635 203.187 59.7275C203.245 59.8916 203.333 59.9912 203.45 60.0264C203.45 60.1904 203.368 60.2725 203.204 60.2725C203.216 60.4365 203.251 60.6064 203.31 60.7822C203.368 60.9463 203.427 61.1162 203.486 61.292C203.544 61.4561 203.597 61.626 203.644 61.8018C203.691 61.9658 203.714 62.124 203.714 62.2764ZM188.491 66.6006C188.421 66.6006 188.357 66.6123 188.298 66.6357C188.239 66.6592 188.198 66.7119 188.175 66.7939C188.62 67.0518 188.972 67.2979 189.23 67.5322C189.499 67.7549 189.704 67.9365 189.845 68.0771C189.997 68.2178 190.109 68.2998 190.179 68.3232C190.249 68.335 190.32 68.2588 190.39 68.0947C190.484 67.8838 190.466 67.6846 190.337 67.4971C190.22 67.3096 190.05 67.1514 189.827 67.0225C189.616 66.8936 189.382 66.7939 189.124 66.7236C188.878 66.6416 188.667 66.6006 188.491 66.6006ZM229.85 56.7217C229.85 56.8271 229.821 56.9443 229.762 57.0732C229.715 57.2021 229.627 57.2666 229.498 57.2666C229.451 57.2666 229.405 57.2432 229.358 57.1963C229.323 57.1494 229.287 57.0967 229.252 57.0381C229.217 56.9795 229.176 56.9268 229.129 56.8799C229.094 56.833 229.053 56.8037 229.006 56.792C229.018 57.0146 229.018 57.1846 229.006 57.3018C228.994 57.4189 228.977 57.5068 228.953 57.5654C228.93 57.6123 228.895 57.6416 228.848 57.6533C228.813 57.6533 228.772 57.6533 228.725 57.6533C228.631 57.6533 228.543 57.6592 228.461 57.6709C228.379 57.6826 228.297 57.7002 228.215 57.7236C227.946 57.7822 227.741 57.8232 227.6 57.8467C227.471 57.8584 227.377 57.8936 227.319 57.9521C227.26 58.0107 227.225 58.1045 227.213 58.2334C227.201 58.3623 227.184 58.5674 227.16 58.8486C227.137 59.0596 227.119 59.2705 227.108 59.4814C227.096 59.6807 227.09 59.8857 227.09 60.0967C227.09 60.6592 227.114 61.21 227.16 61.749C227.219 62.2881 227.248 62.8389 227.248 63.4014C227.248 63.6709 227.225 63.9346 227.178 64.1924C227.143 64.4502 227.125 64.7139 227.125 64.9834C227.125 65.2178 227.172 65.4521 227.266 65.6865C227.371 65.9092 227.424 66.1201 227.424 66.3193C227.424 66.3779 227.401 66.4365 227.354 66.4951C227.319 66.542 227.272 66.5947 227.213 66.6533C227.166 66.7119 227.119 66.7764 227.073 66.8467C227.037 66.917 227.02 66.999 227.02 67.0928C227.02 67.3389 227.061 67.5791 227.143 67.8135C227.237 68.0361 227.284 68.2705 227.284 68.5166C227.284 68.8916 227.26 69.2666 227.213 69.6416C227.166 70.0166 227.114 70.3916 227.055 70.7666C227.008 71.1416 226.961 71.5166 226.914 71.8916C226.867 72.2666 226.844 72.6416 226.844 73.0166C226.844 73.3213 226.862 73.6143 226.897 73.8955C226.944 74.165 227.02 74.4346 227.125 74.7041C227.149 74.7627 227.172 74.8271 227.196 74.8975C227.219 74.9678 227.231 75.0322 227.231 75.0908C227.231 75.2432 227.19 75.3721 227.108 75.4775C227.037 75.5713 227.002 75.6533 227.002 75.7236C227.002 75.7822 227.037 75.8525 227.108 75.9346C227.19 76.0166 227.242 76.0928 227.266 76.1631C227.348 76.4326 227.412 76.7314 227.459 77.0596C227.506 77.376 227.53 77.6748 227.53 77.9561C227.53 78.2021 227.465 78.4424 227.336 78.6768C227.207 78.9111 227.037 79.1221 226.826 79.3096C226.616 79.4854 226.375 79.6318 226.106 79.749C225.848 79.8662 225.584 79.9248 225.315 79.9248C224.951 79.9248 224.641 79.8135 224.383 79.5908C224.137 79.3682 223.92 79.0986 223.733 78.7822C223.557 78.4541 223.393 78.1143 223.241 77.7627C223.1 77.4111 222.959 77.1064 222.819 76.8486C222.701 76.6377 222.608 76.4385 222.537 76.251C222.479 76.0518 222.414 75.8584 222.344 75.6709C222.274 75.4834 222.186 75.3018 222.08 75.126C221.975 74.9385 221.828 74.7568 221.641 74.5811C221.489 74.4404 221.371 74.2764 221.289 74.0889C221.207 73.8896 221.137 73.6846 221.078 73.4736C221.032 73.251 220.985 73.0342 220.938 72.8232C220.903 72.6006 220.862 72.3955 220.815 72.208C220.686 71.751 220.534 71.2998 220.358 70.8545C220.182 70.4092 220.012 69.9639 219.848 69.5186C219.789 69.3779 219.713 69.2197 219.619 69.0439C219.537 68.8682 219.45 68.6924 219.356 68.5166C219.262 68.3408 219.174 68.1709 219.092 68.0068C219.022 67.8428 218.981 67.6904 218.969 67.5498C218.922 67.1631 218.823 66.8174 218.67 66.5127C218.518 66.1963 218.354 65.8975 218.178 65.6162C218.002 65.335 217.832 65.0479 217.668 64.7549C217.504 64.4619 217.393 64.1338 217.334 63.7705C217.311 63.6533 217.27 63.501 217.211 63.3135C217.153 63.1143 217.076 62.9209 216.983 62.7334C216.889 62.5342 216.778 62.3643 216.649 62.2236C216.52 62.083 216.385 62.0127 216.244 62.0127C216.116 62.0127 216.01 62.0771 215.928 62.2061C215.858 62.3232 215.799 62.4697 215.752 62.6455C215.705 62.8096 215.67 62.9795 215.647 63.1553C215.635 63.3193 215.629 63.4424 215.629 63.5244C215.629 63.7588 215.641 63.9932 215.664 64.2275C215.7 64.4619 215.717 64.6963 215.717 64.9307C215.717 65.1064 215.682 65.2764 215.612 65.4404C215.541 65.6045 215.506 65.7686 215.506 65.9326C215.506 66.0381 215.541 66.126 215.612 66.1963C215.694 66.2666 215.735 66.3486 215.735 66.4424C215.735 66.5361 215.723 66.6299 215.7 66.7236C215.676 66.8057 215.664 66.8936 215.664 66.9873C215.664 67.2803 215.676 67.5674 215.7 67.8486C215.735 68.1299 215.752 68.4111 215.752 68.6924C215.752 68.8916 215.741 69.0967 215.717 69.3076C215.694 69.5068 215.647 69.6943 215.576 69.8701C215.506 70.0459 215.401 70.1982 215.26 70.3271C215.119 70.4443 214.938 70.5205 214.715 70.5557C214.762 70.6494 214.821 70.7139 214.891 70.749C214.973 70.7725 215.055 70.79 215.137 70.8018C215.219 70.8135 215.289 70.8311 215.348 70.8545C215.407 70.8779 215.436 70.9424 215.436 71.0479C215.436 71.1064 215.43 71.1592 215.418 71.2061C215.418 71.2412 215.418 71.2822 215.418 71.3291C215.418 71.458 215.442 71.5635 215.489 71.6455C215.547 71.7275 215.612 71.8096 215.682 71.8916C215.752 71.9619 215.811 72.0381 215.858 72.1201C215.916 72.1904 215.946 72.2842 215.946 72.4014C215.946 72.542 215.928 72.6768 215.893 72.8057C215.858 72.9346 215.84 73.0635 215.84 73.1924C215.84 73.4736 215.875 73.749 215.946 74.0186C216.016 74.2764 216.051 74.5459 216.051 74.8271C216.051 74.9795 216.034 75.0908 215.998 75.1611C215.975 75.2197 215.94 75.2666 215.893 75.3018C215.858 75.3369 215.823 75.3662 215.787 75.3896C215.764 75.4014 215.752 75.4424 215.752 75.5127C215.752 75.6299 215.77 75.7412 215.805 75.8467C215.84 75.9404 215.858 76.0459 215.858 76.1631C215.858 76.2334 215.846 76.3037 215.823 76.374C215.811 76.4443 215.776 76.5088 215.717 76.5674C215.729 76.708 215.776 76.8076 215.858 76.8662C215.94 76.9248 216.034 76.9775 216.139 77.0244C216.256 77.0713 216.367 77.124 216.473 77.1826C216.578 77.2295 216.66 77.3174 216.719 77.4463C216.766 77.5518 216.813 77.6514 216.86 77.7451C216.918 77.8271 217.012 77.8682 217.141 77.8682C217.34 77.8682 217.522 77.8271 217.686 77.7451C217.85 77.6514 218.026 77.6045 218.213 77.6045C218.518 77.6045 218.729 77.7275 218.846 77.9736C218.963 78.208 219.022 78.4541 219.022 78.7119C219.022 79.04 218.963 79.2744 218.846 79.415C218.741 79.5439 218.617 79.6436 218.477 79.7139C218.348 79.7725 218.225 79.8311 218.108 79.8896C218.002 79.9482 217.95 80.0596 217.95 80.2236C217.95 80.2471 217.95 80.2646 217.95 80.2764C217.961 80.2881 217.967 80.3057 217.967 80.3291C217.803 80.2236 217.627 80.1475 217.44 80.1006C217.264 80.0537 217.076 80.0303 216.877 80.0303C216.526 80.0303 216.174 80.0771 215.823 80.1709C215.483 80.2764 215.137 80.3291 214.785 80.3291C214.528 80.3291 214.276 80.3057 214.03 80.2588C213.784 80.2119 213.532 80.1885 213.274 80.1885C213.11 80.1885 212.946 80.2061 212.782 80.2412C212.629 80.2881 212.471 80.3115 212.307 80.3115C212.143 80.3115 211.926 80.2705 211.657 80.1885C211.387 80.1182 211.123 80.0186 210.866 79.8896C210.608 79.7725 210.385 79.6436 210.198 79.5029C210.022 79.3506 209.934 79.21 209.934 79.0811C209.934 78.7295 210.051 78.4131 210.285 78.1318C210.52 77.8389 210.813 77.6631 211.164 77.6045C211.34 77.5693 211.534 77.5518 211.744 77.5518C211.967 77.5518 212.184 77.5459 212.395 77.5342C212.606 77.5107 212.805 77.4697 212.992 77.4111C213.18 77.3408 213.338 77.2236 213.467 77.0596C213.42 76.8838 213.397 76.6846 213.397 76.4619C213.397 76.0518 213.45 75.6533 213.555 75.2666C213.66 74.8799 213.713 74.4814 213.713 74.0713C213.713 73.9072 213.696 73.7373 213.66 73.5615C213.52 72.7529 213.45 71.9385 213.45 71.1182C213.45 70.8838 213.455 70.6494 213.467 70.415C213.479 70.1689 213.485 69.9287 213.485 69.6943C213.485 69.085 213.438 68.4814 213.344 67.8838C213.262 67.2861 213.209 66.6826 213.186 66.0732C213.162 65.4287 213.151 64.7959 213.151 64.1748C213.151 63.542 213.086 62.9092 212.957 62.2764C212.922 62.1123 212.899 61.9541 212.887 61.8018C212.887 61.6494 212.887 61.4912 212.887 61.3271V60.6943C212.887 60.2021 212.864 59.833 212.817 59.5869C212.77 59.3408 212.688 59.165 212.571 59.0596C212.453 58.9424 212.301 58.8721 212.114 58.8486C211.938 58.8135 211.715 58.7783 211.446 58.7432C211.293 58.7197 211.135 58.6436 210.971 58.5146C210.819 58.3857 210.672 58.2334 210.532 58.0576C210.403 57.8818 210.291 57.7002 210.198 57.5127C210.116 57.3252 210.075 57.1553 210.075 57.0029V56.6162C210.075 56.1475 210.145 55.79 210.285 55.5439C210.426 55.2861 210.619 55.0986 210.866 54.9814C211.112 54.8525 211.399 54.7764 211.727 54.7529C212.067 54.7295 212.43 54.7178 212.817 54.7178C213.203 54.7178 213.602 54.7354 214.012 54.7705C214.434 54.7939 214.838 54.8584 215.225 54.9639C215.612 55.0576 215.963 55.2041 216.28 55.4033C216.596 55.5908 216.854 55.8486 217.053 56.1768C217.182 56.3994 217.293 56.6338 217.387 56.8799C217.481 57.1143 217.569 57.3545 217.651 57.6006C217.733 57.8467 217.815 58.0928 217.897 58.3389C217.979 58.5732 218.084 58.8018 218.213 59.0244C218.272 59.1299 218.313 59.2471 218.336 59.376C218.371 59.4932 218.401 59.6162 218.424 59.7451C218.459 59.8623 218.494 59.9795 218.53 60.0967C218.565 60.2021 218.617 60.3076 218.688 60.4131C218.77 60.5068 218.864 60.6064 218.969 60.7119C219.086 60.8057 219.174 60.9111 219.233 61.0283C219.338 61.2627 219.409 61.5088 219.444 61.7666C219.491 62.0127 219.532 62.2646 219.567 62.5225C219.602 62.7686 219.637 63.0205 219.672 63.2783C219.719 63.5244 219.795 63.7646 219.901 63.999C219.971 64.1396 220.035 64.2568 220.094 64.3506C220.164 64.4443 220.223 64.5381 220.27 64.6318C220.328 64.7139 220.375 64.8135 220.41 64.9307C220.457 65.0361 220.492 65.1768 220.516 65.3525C220.539 65.6104 220.563 65.8682 220.586 66.126C220.61 66.3721 220.668 66.6182 220.762 66.8643C220.832 67.04 220.926 67.2041 221.043 67.3564C221.16 67.5088 221.278 67.6611 221.395 67.8135C221.524 67.9541 221.647 68.1006 221.764 68.2529C221.881 68.4053 221.969 68.5752 222.028 68.7627C222.145 69.1143 222.256 69.4424 222.362 69.7471C222.467 70.0518 222.672 70.3213 222.977 70.5557C222.907 70.6611 222.842 70.7783 222.784 70.9072C222.737 71.0244 222.713 71.1475 222.713 71.2764C222.713 71.5225 222.772 71.7686 222.889 72.0146C223.018 72.249 223.129 72.4775 223.223 72.7002C223.293 72.876 223.364 73.0283 223.434 73.1572C223.516 73.2861 223.651 73.3975 223.838 73.4912C224.002 73.5732 224.114 73.6494 224.172 73.7197C224.231 73.7783 224.266 73.8486 224.278 73.9307C224.289 74.001 224.289 74.0889 224.278 74.1943C224.278 74.2881 224.295 74.4111 224.33 74.5635C224.342 74.6338 224.366 74.7217 224.401 74.8271C224.436 74.9209 224.477 75.0205 224.524 75.126C224.582 75.2197 224.647 75.3018 224.717 75.3721C224.787 75.4424 224.864 75.4775 224.946 75.4775C225.016 75.4775 225.069 75.4541 225.104 75.4072C225.139 75.3486 225.168 75.2842 225.192 75.2139C225.215 75.1436 225.227 75.0732 225.227 75.0029C225.239 74.9209 225.244 74.8564 225.244 74.8096C225.244 74.6455 225.285 74.499 225.367 74.3701C225.461 74.2295 225.508 74.0713 225.508 73.8955C225.508 73.6963 225.461 73.5146 225.367 73.3506C225.285 73.1865 225.244 73.0049 225.244 72.8057C225.244 72.6416 225.274 72.4951 225.332 72.3662C225.403 72.2256 225.438 72.0732 225.438 71.9092C225.438 71.792 225.391 71.6924 225.297 71.6104C225.215 71.5283 225.174 71.4463 225.174 71.3643C225.174 71.3291 225.192 71.3115 225.227 71.3115C225.262 71.2998 225.297 71.2881 225.332 71.2764C225.367 71.2646 225.403 71.2471 225.438 71.2236C225.473 71.1885 225.491 71.1299 225.491 71.0479C225.491 70.7666 225.455 70.4971 225.385 70.2393C225.326 69.9697 225.256 69.7002 225.174 69.4307C225.092 69.1611 225.016 68.8916 224.946 68.6221C224.887 68.3408 224.858 68.0596 224.858 67.7783C224.858 67.4971 224.916 67.251 225.034 67.04C225.151 66.8291 225.209 66.6885 225.209 66.6182C225.209 66.4658 225.168 66.3311 225.086 66.2139C225.016 66.085 224.981 65.9443 224.981 65.792C224.981 65.6162 225.022 65.4521 225.104 65.2998C225.198 65.1357 225.244 64.9658 225.244 64.79C225.244 64.6846 225.221 64.585 225.174 64.4912C225.127 64.3857 225.075 64.2803 225.016 64.1748C224.957 64.0693 224.899 63.9639 224.84 63.8584C224.793 63.7412 224.758 63.6299 224.735 63.5244C224.7 63.3486 224.676 63.167 224.664 62.9795C224.664 62.792 224.664 62.6045 224.664 62.417V61.6611C224.664 61.3447 224.647 61.04 224.612 60.7471C224.588 60.4424 224.535 60.1377 224.453 59.833C224.383 59.5518 224.342 59.2939 224.33 59.0596C224.319 58.8252 224.284 58.6201 224.225 58.4443C224.166 58.2686 224.055 58.1279 223.891 58.0225C223.727 57.9053 223.457 57.835 223.082 57.8115C222.813 57.7881 222.543 57.7764 222.274 57.7764C222.004 57.7646 221.735 57.7236 221.465 57.6533C221.289 57.6064 221.155 57.5068 221.061 57.3545C220.979 57.2021 220.92 57.0322 220.885 56.8447C220.85 56.6572 220.832 56.4697 220.832 56.2822C220.832 56.083 220.832 55.9248 220.832 55.8076C220.832 55.585 220.938 55.4033 221.149 55.2627C221.371 55.1104 221.629 54.9873 221.922 54.8936C222.227 54.7998 222.532 54.7354 222.836 54.7002C223.141 54.6533 223.375 54.6299 223.539 54.6299C223.645 54.6299 223.832 54.6357 224.102 54.6475C224.371 54.6592 224.67 54.6826 224.998 54.7178C225.326 54.7529 225.666 54.7998 226.018 54.8584C226.369 54.9053 226.692 54.9756 226.985 55.0693C227.278 55.1514 227.518 55.251 227.705 55.3682C227.893 55.4854 227.987 55.6201 227.987 55.7725C228.092 55.6553 228.209 55.5557 228.338 55.4736C228.467 55.3916 228.614 55.3506 228.778 55.3506C228.93 55.3506 229.071 55.3975 229.2 55.4912C229.34 55.5732 229.457 55.6846 229.551 55.8252C229.645 55.9658 229.715 56.1182 229.762 56.2822C229.821 56.4346 229.85 56.5811 229.85 56.7217ZM213.239 78.624C213.239 78.5186 213.209 78.4424 213.151 78.3955C213.092 78.3369 213.016 78.2959 212.922 78.2725C212.84 78.249 212.752 78.2256 212.659 78.2021C212.576 78.167 212.512 78.1201 212.465 78.0615C212.453 78.0967 212.442 78.1318 212.43 78.167C212.43 78.1904 212.43 78.2197 212.43 78.2549C212.43 78.3604 212.459 78.4424 212.518 78.501C212.576 78.5479 212.647 78.583 212.729 78.6064C212.823 78.6299 212.91 78.6592 212.992 78.6943C213.075 78.7178 213.145 78.7588 213.203 78.8174C213.215 78.7822 213.221 78.7529 213.221 78.7295C213.233 78.6943 213.239 78.6592 213.239 78.624ZM242.169 66.46C242.169 66.7646 242.111 67.0518 241.994 67.3213C241.876 67.5908 241.818 67.8779 241.818 68.1826C241.818 68.3467 241.847 68.499 241.906 68.6396C241.964 68.7686 241.994 68.9092 241.994 69.0615C241.994 69.1904 241.953 69.4658 241.871 69.8877C241.8 70.2979 241.712 70.7432 241.607 71.2236C241.501 71.6924 241.396 72.1318 241.29 72.542C241.185 72.9404 241.109 73.1924 241.062 73.2979C240.945 73.5088 240.81 73.6963 240.658 73.8604C240.517 74.0244 240.447 74.2236 240.447 74.458C240.447 74.5869 240.464 74.71 240.499 74.8271C240.535 74.9326 240.552 75.0498 240.552 75.1787C240.552 75.2842 240.517 75.3896 240.447 75.4951C240.376 75.6006 240.3 75.7119 240.218 75.8291C240.148 75.9463 240.078 76.0752 240.007 76.2158C239.937 76.3447 239.902 76.4912 239.902 76.6553C239.902 76.749 239.914 76.8311 239.937 76.9014C239.96 76.9717 239.984 77.0537 240.007 77.1475C239.82 77.2998 239.685 77.4463 239.603 77.5869C239.521 77.7275 239.462 77.8682 239.427 78.0088C239.392 78.1494 239.363 78.2959 239.339 78.4482C239.328 78.5889 239.298 78.7354 239.251 78.8877C239.205 79.0986 239.087 79.374 238.9 79.7139C238.724 80.0537 238.513 80.3818 238.267 80.6982C238.021 81.0264 237.757 81.3076 237.476 81.542C237.206 81.7881 236.949 81.9111 236.703 81.9111C236.539 81.9111 236.374 81.876 236.21 81.8057C236.058 81.7471 235.917 81.6592 235.789 81.542C235.66 81.4365 235.554 81.3076 235.472 81.1553C235.402 81.0146 235.367 80.8564 235.367 80.6807C235.367 80.3525 235.46 80.0596 235.648 79.8018C235.835 79.5439 236.052 79.2861 236.298 79.0283C236.544 78.7705 236.785 78.501 237.019 78.2197C237.253 77.9385 237.412 77.6104 237.494 77.2354C237.54 77.0127 237.581 76.8369 237.617 76.708C237.664 76.5791 237.71 76.4678 237.757 76.374C237.816 76.2803 237.88 76.1865 237.951 76.0928C238.021 75.9873 238.109 75.8467 238.214 75.6709C238.542 75.0264 238.777 74.3291 238.917 73.5791C239.07 72.8174 239.146 72.0674 239.146 71.3291C239.146 71.0361 239.181 70.7549 239.251 70.4854C239.322 70.2041 239.392 69.9287 239.462 69.6592C239.544 69.3779 239.621 69.1025 239.691 68.833C239.761 68.5518 239.796 68.2646 239.796 67.9717C239.796 67.5732 239.779 67.1572 239.744 66.7236C239.708 66.29 239.621 65.8916 239.48 65.5283C239.433 65.4346 239.386 65.3525 239.339 65.2822C239.304 65.2002 239.287 65.1123 239.287 65.0186C239.287 64.8428 239.322 64.6729 239.392 64.5088C239.474 64.333 239.515 64.1572 239.515 63.9814C239.515 63.8174 239.474 63.665 239.392 63.5244C239.31 63.3721 239.251 63.2256 239.216 63.085C239.099 62.7686 239.029 62.4463 239.005 62.1182C238.982 61.7783 238.953 61.4502 238.917 61.1338C238.882 60.8057 238.806 60.4951 238.689 60.2021C238.572 59.9092 238.355 59.6455 238.039 59.4111C238.015 59.376 238.003 59.3408 238.003 59.3057C238.003 59.2588 238.003 59.2178 238.003 59.1826V59.0068C238.003 58.8311 237.956 58.667 237.863 58.5146C237.781 58.3506 237.74 58.1807 237.74 58.0049C237.74 57.7354 237.664 57.5068 237.511 57.3193C237.371 57.1318 237.218 56.9385 237.054 56.7393C236.914 56.5752 236.814 56.3936 236.755 56.1943C236.697 55.9951 236.621 55.8076 236.527 55.6318C236.41 55.4326 236.275 55.251 236.122 55.0869C235.982 54.9229 235.847 54.7529 235.718 54.5771C235.601 54.4014 235.501 54.2021 235.419 53.9795C235.337 53.7568 235.296 53.4873 235.296 53.1709C235.296 52.9717 235.343 52.8076 235.437 52.6787C235.542 52.5381 235.671 52.4326 235.824 52.3623C235.976 52.2803 236.14 52.2217 236.316 52.1865C236.503 52.1514 236.679 52.1338 236.843 52.1338C237.218 52.1338 237.529 52.2158 237.775 52.3799C238.021 52.5322 238.238 52.7314 238.425 52.9775C238.613 53.2236 238.777 53.4932 238.917 53.7861C239.07 54.0791 239.228 54.3545 239.392 54.6123C239.509 54.8115 239.638 55.0049 239.779 55.1924C239.931 55.3682 240.072 55.5557 240.201 55.7549C240.33 55.9541 240.435 56.165 240.517 56.3877C240.611 56.5986 240.658 56.8389 240.658 57.1084C240.658 57.3193 240.687 57.5186 240.746 57.7061C240.816 57.8936 240.898 58.0869 240.992 58.2861C241.378 59.2119 241.63 60.1611 241.747 61.1338C241.865 62.1064 241.923 63.0908 241.923 64.0869C241.923 64.2158 241.917 64.3447 241.906 64.4736C241.906 64.5908 241.906 64.7139 241.906 64.8428C241.906 65.1357 241.947 65.4229 242.029 65.7041C242.122 65.9736 242.169 66.2256 242.169 66.46Z" fill="#990000"/>
<defs>
<clipPath id="clip0_24_46">
<rect width="61.9992" height="61.829" fill="white" transform="matrix(0.74329 0.668969 -0.710291 0.703908 193.917 0)"/>
</clipPath>
</defs>
</svg>
