<svg width="296" height="40" viewBox="0 0 296 40" fill="none" xmlns="http://www.w3.org/2000/svg">
<path d="M15.2188 3.72559C16.125 3.78809 16.9375 4.25684 17.6562 5.13184C17.7812 5.31934 17.9062 5.50684 18.0312 5.69434C18.1562 5.85059 18.25 6.03809 18.3125 6.25684C18.5 6.72559 18.5625 7.39746 18.5 8.27246C18.4375 9.14746 18.4844 9.86621 18.6406 10.4287C18.7969 10.96 18.9531 11.4756 19.1094 11.9756C19.3906 12.8506 19.2188 14.0225 18.5938 15.4912C18.125 16.835 17.5469 17.6318 16.8594 17.8818L16.0156 18.1631C15.2031 18.4443 14.5 18.5537 13.9062 18.4912C13.3438 18.3975 12.9531 18.2256 12.7344 17.9756C12.1094 17.1631 11.9531 16.2256 12.2656 15.1631C12.3281 14.9443 12.3281 14.6006 12.2656 14.1318C12.2031 13.6631 11.9375 13.3662 11.4688 13.2412C11.2188 13.1787 11.0469 13.0693 10.9531 12.9131C10.8906 12.7568 10.8281 12.6318 10.7656 12.5381C10.7344 12.4131 10.6875 12.335 10.625 12.3037C10.5938 12.2412 10.4531 12.3037 10.2031 12.4912C9.95312 12.6787 9.8125 12.7881 9.78125 12.8193C9.75 12.8193 9.64062 12.7881 9.45312 12.7256C9.29688 12.6631 9.14062 12.6787 8.98438 12.7725C8.82812 12.8662 8.67188 13.0381 8.51562 13.2881C7.95312 14.2568 7.84375 15.835 8.1875 18.0225C8.3125 18.6787 8.4375 19.2881 8.5625 19.8506C8.8125 21.2568 8.92188 22.1943 8.89062 22.6631C8.89062 23.1318 8.79688 23.6318 8.60938 24.1631C8.45312 24.6631 8.3125 25.1631 8.1875 25.6631C7.8125 26.9443 7.85938 28.0381 8.32812 28.9443C8.89062 30.0693 9.25 30.7256 9.40625 30.9131C9.6875 31.1943 10.0312 31.3193 10.4375 31.2881C10.8438 31.2256 11.1562 31.0225 11.375 30.6787C11.5938 30.3037 11.7969 29.9131 11.9844 29.5068C12.1719 29.0693 12.375 28.6631 12.5938 28.2881C12.8125 27.9131 13.0625 27.6943 13.3438 27.6318C13.6562 27.5693 14.0469 27.5693 14.5156 27.6318C14.9844 27.6631 15.2969 27.6787 15.4531 27.6787C15.6406 27.6787 15.8594 27.7881 16.1094 28.0068C16.3594 28.1943 16.4844 28.6475 16.4844 29.3662C16.5156 30.0537 16.5469 30.6162 16.5781 31.0537C16.6094 31.46 16.5 31.835 16.25 32.1787C16 32.4912 15.8281 32.7881 15.7344 33.0693C15.6719 33.3193 15.625 33.5693 15.5938 33.8193C15.5625 34.4756 15.4375 34.96 15.2188 35.2725C15.0312 35.585 14.8438 35.8506 14.6562 36.0693C14.5 36.2568 14.0469 36.3506 13.2969 36.3506C12.5781 36.3506 11.9219 36.6943 11.3281 37.3818C10.7344 38.0693 10.1719 38.3662 9.64062 38.2725C9.10938 38.21 8.73438 37.8975 8.51562 37.335C8.29688 36.835 7.8125 36.5693 7.0625 36.5381C6.84375 36.5068 6.64062 36.46 6.45312 36.3975C6.26562 36.3037 6.04688 36.2412 5.79688 36.21C5.54688 36.1475 5.29688 36.0381 5.04688 35.8818C4.42188 35.5381 3.90625 34.9912 3.5 34.2412C3.25 33.7725 3 33.3818 2.75 33.0693C2.53125 32.7568 2.34375 32.46 2.1875 32.1787C1.78125 31.5537 1.625 30.96 1.71875 30.3975C1.90625 28.8975 1.70312 27.9131 1.10938 27.4443C0.765625 27.2256 0.59375 27.0537 0.59375 26.9287C0.59375 26.8037 0.53125 26.5381 0.40625 26.1318C0.21875 25.5693 0.21875 24.9131 0.40625 24.1631C0.625 23.4131 0.703125 22.8037 0.640625 22.335C0.578125 21.835 0.5 21.3193 0.40625 20.7881C0.21875 19.4131 0.203125 18.5068 0.359375 18.0693C0.515625 17.6318 0.546875 17.0068 0.453125 16.1943C0.390625 15.3818 0.359375 14.7256 0.359375 14.2256C0.359375 13.6943 0.3125 13.0068 0.21875 12.1631C0.15625 11.3193 0.15625 10.4131 0.21875 9.44434C0.4375 7.00684 1.26562 5.33496 2.70312 4.42871C4.85938 3.14746 6.23438 2.53809 6.82812 2.60059C7.01562 2.60059 7.23438 2.63184 7.48438 2.69434C7.76562 2.72559 8.03125 2.70996 8.28125 2.64746C8.53125 2.58496 8.75 2.49121 8.9375 2.36621C9.125 2.24121 9.3125 2.10059 9.5 1.94434C10.25 1.25684 10.9219 1.17871 11.5156 1.70996C12.0781 2.36621 12.5156 2.80371 12.8281 3.02246C13.3594 3.42871 14.1562 3.66309 15.2188 3.72559ZM32.6994 28.3818L32.84 30.6318C32.9025 31.8506 32.59 32.6475 31.9025 33.0225C31.715 34.2725 31.6213 35.3818 31.6213 36.3506C31.4025 36.7881 31.0431 37.0537 30.5431 37.1475C29.6056 37.2725 28.9963 37.0225 28.715 36.3975C28.3088 35.6162 27.9806 35.1943 27.7306 35.1318C27.6681 35.1006 27.5588 35.085 27.4025 35.085C27.2775 35.0537 27.1213 35.0068 26.9338 34.9443C26.7463 34.8506 26.6681 34.6006 26.6994 34.1943C26.7619 33.7881 26.7619 33.46 26.6994 33.21C26.6369 32.96 26.5588 32.6943 26.465 32.4131C26.215 31.6006 26.09 30.8193 26.09 30.0693C26.09 29.5381 26.09 29.0537 26.09 28.6162C26.1213 28.1787 26.1369 27.7412 26.1369 27.3037C26.0744 25.8975 25.8869 24.6943 25.5744 23.6943C25.2931 22.6943 25.1056 22.0381 25.0119 21.7256C24.8244 21.0381 24.7306 20.3818 24.7306 19.7568C24.7306 19.3818 24.7775 19.1162 24.8713 18.96C24.965 18.7725 25.0588 18.585 25.1525 18.3975C25.4025 17.9287 25.4963 17.3818 25.4338 16.7568C25.4025 16.1318 25.3556 15.5068 25.2931 14.8818C25.2619 14.2256 25.215 13.5068 25.1525 12.7256C25.1213 11.9131 25.0744 11.0537 25.0119 10.1475C24.9806 9.24121 24.965 8.36621 24.965 7.52246C24.965 4.77246 25.3088 3.22559 25.9963 2.88184C26.1213 2.81934 26.2619 2.75684 26.4181 2.69434C26.6056 2.60059 26.8244 2.47559 27.0744 2.31934C27.3244 2.16309 27.5431 2.00684 27.7306 1.85059C27.9494 1.69434 28.1681 1.56934 28.3869 1.47559C28.7931 1.28809 29.2775 1.31934 29.84 1.56934C30.4338 1.78809 30.8556 1.94434 31.1056 2.03809C31.3556 2.10059 31.6056 2.16309 31.8556 2.22559C32.1056 2.25684 32.3869 2.27246 32.6994 2.27246C33.0431 2.24121 33.5119 2.22559 34.1056 2.22559C34.7306 2.19434 35.3869 2.19434 36.0744 2.22559C36.7931 2.25684 37.4806 2.35059 38.1369 2.50684C40.2619 2.94434 41.9025 4.11621 43.0588 6.02246C43.5588 6.86621 43.8244 7.61621 43.8556 8.27246C43.8869 8.92871 43.9181 9.56934 43.9494 10.1943C44.0119 10.7881 44.1369 11.4756 44.3244 12.2568C44.5119 13.0068 44.5744 13.7256 44.5119 14.4131C44.4494 15.1006 44.3713 15.585 44.2775 15.8662C44.215 16.1162 44.1369 16.3506 44.0431 16.5693C43.8869 17.0381 43.8244 17.5225 43.8556 18.0225C43.9181 18.835 43.8556 19.4756 43.6681 19.9443C43.4806 20.3818 43.2931 20.835 43.1056 21.3037C42.5744 22.46 41.9963 23.1162 41.3713 23.2725C41.0275 23.335 40.7463 23.3975 40.5275 23.46C40.3088 23.5225 40.1838 23.6631 40.1525 23.8818C40.09 24.0381 40.1838 24.2256 40.4338 24.4443C40.6838 24.6318 40.9338 24.9287 41.1838 25.335C41.465 25.7412 41.6994 26.0068 41.8869 26.1318C42.0744 26.2568 42.2463 26.335 42.4025 26.3662C42.8713 26.46 43.1681 26.5693 43.2931 26.6943C43.5744 27.0381 43.7775 27.3193 43.9025 27.5381C44.0588 27.7568 44.1056 28.085 44.0431 28.5225C43.9806 28.96 43.9806 29.4131 44.0431 29.8818C44.1056 30.3506 44.1681 30.8506 44.2306 31.3818C44.2931 31.8818 44.2931 32.3037 44.2306 32.6475C44.1994 32.9912 44.1838 33.2412 44.1838 33.3975L44.3713 34.6162C44.3713 35.3662 44.1525 35.9756 43.715 36.4443C43.2775 36.9131 42.9338 37.1787 42.6838 37.2412C42.4338 37.3037 42.1994 37.2881 41.9806 37.1943C41.7619 37.1006 41.5744 36.9756 41.4181 36.8193C41.2619 36.6943 41.1369 36.6162 41.0431 36.585C40.9494 36.5225 40.8244 36.4912 40.6681 36.4912C40.5431 36.46 40.4025 36.4131 40.2463 36.3506C39.6838 36.1943 39.1994 35.1006 38.7931 33.0693C38.5744 32.0693 38.1994 31.4287 37.6681 31.1475C36.8556 30.7412 36.4181 30.1787 36.3556 29.46C36.3244 29.1162 36.2931 28.6475 36.2619 28.0537C36.1369 26.8662 35.7306 26.1318 35.0431 25.8506C34.6994 25.7256 34.3869 25.6631 34.1056 25.6631C33.8244 25.6631 33.5431 25.8193 33.2619 26.1318C32.8869 26.6006 32.6994 27.3506 32.6994 28.3818ZM35.0431 19.4756C35.4494 19.1006 35.84 18.7725 36.215 18.4912C36.6213 18.1787 36.9494 17.7881 37.1994 17.3193C37.4806 16.8193 37.6994 16.3193 37.8556 15.8193C38.1056 14.8818 38.1838 14.0225 38.09 13.2412C38.0275 12.4287 37.9338 11.8975 37.8088 11.6475C37.715 11.3662 37.4025 11.2256 36.8713 11.2256C36.3713 11.2256 35.8556 11.1006 35.3244 10.8506C34.8244 10.6006 34.5431 10.3037 34.4806 9.95996C34.4181 9.20996 34.1838 8.94434 33.7775 9.16309C33.5588 9.28809 33.4025 9.41309 33.3088 9.53809C33.215 9.63184 33.1369 9.94434 33.0744 10.4756C32.9806 11.5693 32.9806 12.4287 33.0744 13.0537C33.1994 13.6787 33.2775 14.1006 33.3088 14.3193C33.34 14.5068 33.3556 14.7256 33.3556 14.9756C33.3869 15.1943 33.4025 15.46 33.4025 15.7725C33.4338 16.0537 33.465 16.5225 33.4963 17.1787C33.5588 17.8037 33.5744 18.335 33.5431 18.7725C33.5119 19.21 33.5588 19.6631 33.6838 20.1318C34.1838 20.0693 34.6369 19.8506 35.0431 19.4756ZM50.8363 8.92871L50.93 6.25684C50.93 5.81934 50.8831 5.38184 50.7894 4.94434C50.7269 4.50684 50.8363 4.05371 51.1175 3.58496C51.43 3.08496 51.8831 2.64746 52.4769 2.27246C53.0706 1.89746 53.7425 1.70996 54.4925 1.70996C55.2425 1.70996 55.8363 1.83496 56.2738 2.08496C56.7113 2.33496 57.1175 2.53809 57.4925 2.69434C57.8675 2.85059 58.2894 2.97559 58.7581 3.06934C59.7581 3.22559 60.7269 3.08496 61.6644 2.64746C62.6956 2.14746 63.5238 2.17871 64.1488 2.74121C64.805 2.77246 65.4925 2.70996 66.2113 2.55371C67.3988 2.30371 68.2113 2.28809 68.6488 2.50684C69.6175 3.06934 69.7738 4.19434 69.1175 5.88184C69.0238 6.13184 68.9769 6.35059 68.9769 6.53809C68.9769 6.72559 68.9769 6.91309 68.9769 7.10059C68.9769 7.66309 68.93 8.08496 68.8363 8.36621C68.7425 8.64746 68.6956 8.88184 68.6956 9.06934C68.6956 9.25684 68.6956 9.47559 68.6956 9.72559C68.7581 10.2256 68.68 10.71 68.4613 11.1787C68.3363 11.46 68.2738 11.6943 68.2738 11.8818C68.2738 12.0381 68.2738 12.1943 68.2738 12.3506C68.2738 12.7568 68.055 13.1475 67.6175 13.5225C66.8988 14.2725 66.305 14.6475 65.8363 14.6475C65.7425 14.6475 65.6488 14.6162 65.555 14.5537C65.4613 14.4912 65.3206 14.4287 65.1331 14.3662C64.3831 14.1162 63.5863 13.96 62.7425 13.8975C61.93 13.835 61.3363 13.8506 60.9613 13.9443C60.0238 14.1318 59.4456 14.585 59.2269 15.3037C58.9769 16.0537 59.0394 16.6318 59.4144 17.0381C59.5706 17.2256 59.7425 17.3506 59.93 17.4131C60.1175 17.4756 60.2894 17.4912 60.4456 17.46C60.6331 17.3975 60.8675 17.3975 61.1488 17.46C61.4613 17.5225 61.7738 17.6006 62.0863 17.6943C62.93 17.8818 63.4925 17.9131 63.7738 17.7881C64.0863 17.6318 64.2894 17.5693 64.3831 17.6006C64.5081 17.6318 64.6019 17.6787 64.6644 17.7412C64.8831 17.96 65.0863 18.0693 65.2738 18.0693C65.7738 18.0381 66.1175 18.2568 66.305 18.7256C66.4925 19.1631 66.4613 19.71 66.2113 20.3662C66.2113 20.46 66.1644 20.6943 66.0706 21.0693C65.8519 21.8193 65.7425 22.335 65.7425 22.6162C65.7738 22.8975 65.7269 23.1943 65.6019 23.5068C65.4769 23.7881 65.305 24.0381 65.0863 24.2568C64.555 24.7256 63.9769 24.8662 63.3519 24.6787C63.0706 24.5537 62.8206 24.3818 62.6019 24.1631C61.0081 23.6943 59.93 23.8037 59.3675 24.4912C59.055 24.8662 58.8831 25.1943 58.8519 25.4756C58.8206 25.7568 58.805 26.2568 58.805 26.9756V28.71C59.2113 28.9912 59.5863 29.3193 59.93 29.6943C60.2738 30.0381 60.6956 30.2256 61.1956 30.2568C61.6956 30.2881 62.1331 30.2568 62.5081 30.1631C62.9144 30.0381 63.2894 29.9131 63.6331 29.7881C64.3831 29.4756 65.0706 29.4287 65.6956 29.6475C66.3206 29.835 66.7113 30.1006 66.8675 30.4443C67.0238 30.7881 67.055 31.2412 66.9613 31.8037C66.8675 32.3662 66.8206 32.7881 66.8206 33.0693C66.8519 33.3193 66.8675 33.5537 66.8675 33.7725C66.8675 34.3037 66.6644 34.8193 66.2581 35.3193C65.8206 35.9756 65.4144 36.3818 65.0394 36.5381C64.6644 36.6631 64.18 36.6943 63.5863 36.6318C62.9925 36.5381 62.5081 36.5693 62.1331 36.7256C61.7581 36.8506 61.4144 37.0225 61.1019 37.2412C60.8206 37.46 60.5394 37.6631 60.2581 37.8506C59.7894 38.1631 59.2581 38.1631 58.6644 37.8506C58.4456 37.7256 58.2269 37.6006 58.0081 37.4756C57.4456 37.1943 56.7581 37.0693 55.9456 37.1006C55.1331 37.1631 54.4144 36.9443 53.7894 36.4443C53.1644 35.9131 52.8363 35.2725 52.805 34.5225C52.805 33.7725 52.8519 33.2412 52.9456 32.9287C53.0394 32.585 53.1331 32.3193 53.2269 32.1318C53.3519 31.7256 53.2894 31.4131 53.0394 31.1943C52.2894 30.6006 52.0238 29.8193 52.2425 28.8506C52.3363 28.3506 52.43 27.96 52.5238 27.6787C52.6175 27.3975 52.6331 27.1006 52.5706 26.7881C52.5081 26.4443 52.4769 26.1475 52.4769 25.8975C52.5081 25.6162 52.5081 25.3506 52.4769 25.1006C52.4144 24.6006 52.1956 24.3193 51.8206 24.2568C51.3519 24.1943 51.0394 23.6943 50.8831 22.7568C50.6956 21.8506 50.7581 20.9443 51.0706 20.0381C51.4144 19.1318 51.555 18.4287 51.4925 17.9287C51.43 17.3975 51.3831 16.9131 51.3519 16.4756L51.3988 14.6475C51.3988 13.7412 51.3206 13.1318 51.1644 12.8193C51.0081 12.5068 50.9613 12.0537 51.0238 11.46C51.0863 10.835 51.0706 10.3662 50.9769 10.0537C50.8831 9.70996 50.8363 9.33496 50.8363 8.92871ZM74.8325 8.92871L74.9262 6.25684C74.9262 5.81934 74.8794 5.38184 74.7856 4.94434C74.7231 4.50684 74.8325 4.05371 75.1137 3.58496C75.4262 3.08496 75.8794 2.64746 76.4731 2.27246C77.0669 1.89746 77.7387 1.70996 78.4887 1.70996C79.2387 1.70996 79.8325 1.83496 80.27 2.08496C80.7075 2.33496 81.1137 2.53809 81.4887 2.69434C81.8637 2.85059 82.2856 2.97559 82.7544 3.06934C83.7544 3.22559 84.7231 3.08496 85.6606 2.64746C86.6919 2.14746 87.52 2.17871 88.145 2.74121C88.8012 2.77246 89.4887 2.70996 90.2075 2.55371C91.395 2.30371 92.2075 2.28809 92.645 2.50684C93.6137 3.06934 93.77 4.19434 93.1137 5.88184C93.02 6.13184 92.9731 6.35059 92.9731 6.53809C92.9731 6.72559 92.9731 6.91309 92.9731 7.10059C92.9731 7.66309 92.9262 8.08496 92.8325 8.36621C92.7387 8.64746 92.6919 8.88184 92.6919 9.06934C92.6919 9.25684 92.6919 9.47559 92.6919 9.72559C92.7544 10.2256 92.6762 10.71 92.4575 11.1787C92.3325 11.46 92.27 11.6943 92.27 11.8818C92.27 12.0381 92.27 12.1943 92.27 12.3506C92.27 12.7568 92.0512 13.1475 91.6137 13.5225C90.895 14.2725 90.3012 14.6475 89.8325 14.6475C89.7387 14.6475 89.645 14.6162 89.5512 14.5537C89.4575 14.4912 89.3169 14.4287 89.1294 14.3662C88.3794 14.1162 87.5825 13.96 86.7387 13.8975C85.9262 13.835 85.3325 13.8506 84.9575 13.9443C84.02 14.1318 83.4419 14.585 83.2231 15.3037C82.9731 16.0537 83.0356 16.6318 83.4106 17.0381C83.5669 17.2256 83.7387 17.3506 83.9262 17.4131C84.1137 17.4756 84.2856 17.4912 84.4419 17.46C84.6294 17.3975 84.8637 17.3975 85.145 17.46C85.4575 17.5225 85.77 17.6006 86.0825 17.6943C86.9262 17.8818 87.4887 17.9131 87.77 17.7881C88.0825 17.6318 88.2856 17.5693 88.3794 17.6006C88.5044 17.6318 88.5981 17.6787 88.6606 17.7412C88.8794 17.96 89.0825 18.0693 89.27 18.0693C89.77 18.0381 90.1137 18.2568 90.3012 18.7256C90.4887 19.1631 90.4575 19.71 90.2075 20.3662C90.2075 20.46 90.1606 20.6943 90.0669 21.0693C89.8481 21.8193 89.7387 22.335 89.7387 22.6162C89.77 22.8975 89.7231 23.1943 89.5981 23.5068C89.4731 23.7881 89.3012 24.0381 89.0825 24.2568C88.5512 24.7256 87.9731 24.8662 87.3481 24.6787C87.0669 24.5537 86.8169 24.3818 86.5981 24.1631C85.0044 23.6943 83.9262 23.8037 83.3637 24.4912C83.0512 24.8662 82.8794 25.1943 82.8481 25.4756C82.8169 25.7568 82.8012 26.2568 82.8012 26.9756V28.71C83.2075 28.9912 83.5825 29.3193 83.9262 29.6943C84.27 30.0381 84.6919 30.2256 85.1919 30.2568C85.6919 30.2881 86.1294 30.2568 86.5044 30.1631C86.9106 30.0381 87.2856 29.9131 87.6294 29.7881C88.3794 29.4756 89.0669 29.4287 89.6919 29.6475C90.3169 29.835 90.7075 30.1006 90.8637 30.4443C91.02 30.7881 91.0512 31.2412 90.9575 31.8037C90.8637 32.3662 90.8169 32.7881 90.8169 33.0693C90.8481 33.3193 90.8637 33.5537 90.8637 33.7725C90.8637 34.3037 90.6606 34.8193 90.2544 35.3193C89.8169 35.9756 89.4106 36.3818 89.0356 36.5381C88.6606 36.6631 88.1762 36.6943 87.5825 36.6318C86.9887 36.5381 86.5044 36.5693 86.1294 36.7256C85.7544 36.8506 85.4106 37.0225 85.0981 37.2412C84.8169 37.46 84.5356 37.6631 84.2544 37.8506C83.7856 38.1631 83.2544 38.1631 82.6606 37.8506C82.4419 37.7256 82.2231 37.6006 82.0044 37.4756C81.4419 37.1943 80.7544 37.0693 79.9419 37.1006C79.1294 37.1631 78.4106 36.9443 77.7856 36.4443C77.1606 35.9131 76.8325 35.2725 76.8012 34.5225C76.8012 33.7725 76.8481 33.2412 76.9419 32.9287C77.0356 32.585 77.1294 32.3193 77.2231 32.1318C77.3481 31.7256 77.2856 31.4131 77.0356 31.1943C76.2856 30.6006 76.02 29.8193 76.2387 28.8506C76.3325 28.3506 76.4262 27.96 76.52 27.6787C76.6137 27.3975 76.6294 27.1006 76.5669 26.7881C76.5044 26.4443 76.4731 26.1475 76.4731 25.8975C76.5044 25.6162 76.5044 25.3506 76.4731 25.1006C76.4106 24.6006 76.1919 24.3193 75.8169 24.2568C75.3481 24.1943 75.0356 23.6943 74.8794 22.7568C74.6919 21.8506 74.7544 20.9443 75.0669 20.0381C75.4106 19.1318 75.5512 18.4287 75.4887 17.9287C75.4262 17.3975 75.3794 16.9131 75.3481 16.4756L75.395 14.6475C75.395 13.7412 75.3169 13.1318 75.1606 12.8193C75.0044 12.5068 74.9575 12.0537 75.02 11.46C75.0825 10.835 75.0669 10.3662 74.9731 10.0537C74.8794 9.70996 74.8325 9.33496 74.8325 8.92871ZM98.8756 12.3037L98.6413 8.41309C98.6413 7.75684 98.6256 7.05371 98.5944 6.30371C98.4694 4.42871 98.5944 3.38184 98.9694 3.16309C99.3131 2.97559 99.5475 2.77246 99.6725 2.55371C99.8288 2.33496 99.985 2.22559 100.141 2.22559C100.329 2.22559 100.594 2.22559 100.938 2.22559C101.313 2.19434 101.704 2.19434 102.11 2.22559C103.079 2.28809 103.719 2.42871 104.032 2.64746C104.376 2.86621 104.751 3.00684 105.157 3.06934C105.563 3.13184 105.969 3.17871 106.376 3.20996C106.813 3.20996 107.219 3.20996 107.594 3.20996C107.969 3.17871 108.298 3.16309 108.579 3.16309C108.891 3.16309 109.094 3.19434 109.188 3.25684C109.563 3.41309 109.876 3.47559 110.126 3.44434C110.407 3.41309 110.673 3.53809 110.923 3.81934C111.173 4.06934 111.344 4.27246 111.438 4.42871C111.532 4.55371 111.829 4.64746 112.329 4.70996C112.86 4.77246 113.298 4.83496 113.641 4.89746C113.985 4.92871 114.329 5.06934 114.673 5.31934C115.016 5.56934 115.298 5.72559 115.516 5.78809C115.735 5.85059 115.969 6.05371 116.219 6.39746C116.501 6.74121 116.688 6.99121 116.782 7.14746C116.876 7.30371 116.938 7.56934 116.969 7.94434C117.001 8.81934 117.219 9.45996 117.626 9.86621C118.032 10.2725 118.251 10.6631 118.282 11.0381C118.344 11.4131 118.391 11.8506 118.423 12.3506C118.454 12.8506 118.501 13.4756 118.563 14.2256C118.657 14.9443 118.501 15.7568 118.094 16.6631C117.719 17.5381 117.329 18.1475 116.923 18.4912C116.548 18.835 116.235 19.2568 115.985 19.7568C115.735 20.2256 115.548 20.7725 115.423 21.3975C115.329 21.9912 115.001 22.6006 114.438 23.2256C114.094 23.6631 113.813 23.9287 113.594 24.0225C113.407 24.1162 113.219 24.2256 113.032 24.3506C112.844 24.4443 112.626 24.585 112.376 24.7725C112.126 24.9287 111.844 25.0693 111.532 25.1943C110.751 25.5693 110.079 25.6475 109.516 25.4287C109.173 25.585 108.829 25.6943 108.485 25.7568C108.173 25.7881 107.844 25.8506 107.501 25.9443C106.782 26.1943 106.376 26.6162 106.282 27.21C106.219 27.8037 106.282 28.4131 106.469 29.0381C106.688 29.6631 106.813 30.1943 106.844 30.6318C107.001 32.0381 106.657 33.2568 105.813 34.2881C105.282 34.9131 104.938 35.585 104.782 36.3037C104.626 36.9912 104.344 37.46 103.938 37.71C103.251 38.335 102.594 38.1943 101.969 37.2881C101.876 37.1943 101.673 37.0693 101.36 36.9131C100.923 36.6631 100.641 36.2725 100.516 35.7412C100.423 35.1787 100.376 34.6162 100.376 34.0537C100.376 33.4912 100.329 32.96 100.235 32.46C100.141 31.96 100.032 31.4287 99.9069 30.8662C99.6256 29.335 99.485 28.2881 99.485 27.7256C99.485 27.1631 99.4694 26.585 99.4381 25.9912C99.4381 25.3975 99.5163 24.8662 99.6725 24.3975C99.86 23.9287 99.9381 23.6162 99.9069 23.46C99.8756 23.3037 99.9069 23.1318 100.001 22.9443C100.094 22.7256 100.204 22.4756 100.329 22.1943C100.454 21.8818 100.548 21.5693 100.61 21.2568C100.735 20.6006 100.548 20.0381 100.048 19.5693C99.485 19.0381 99.2038 18.4756 99.2038 17.8818V17.6006C99.2975 16.5381 99.3131 15.8193 99.2506 15.4443C99.0006 14.3818 98.8756 13.335 98.8756 12.3037ZM106.376 14.46C106.438 14.585 106.485 14.7725 106.516 15.0225C106.579 15.2412 106.626 15.5693 106.657 16.0068C106.719 16.4443 106.719 16.9131 106.657 17.4131C106.626 17.8818 106.594 18.3193 106.563 18.7256C106.501 19.7568 106.626 20.335 106.938 20.46C107.282 20.6162 107.844 20.1943 108.626 19.1943C109.469 18.1631 110.173 16.9131 110.735 15.4443C111.016 14.6631 111.032 14.085 110.782 13.71C110.251 13.085 110.032 12.5225 110.126 12.0225C110.157 11.9912 110.157 11.9131 110.126 11.7881C110.063 11.7256 109.985 11.6475 109.891 11.5537C109.798 11.4287 109.657 11.3193 109.469 11.2256C108.751 10.9443 108.094 10.9443 107.501 11.2256C106.938 11.4756 106.563 11.8506 106.376 12.3506C106.219 12.8506 106.141 13.2412 106.141 13.5225C106.173 13.7725 106.204 13.96 106.235 14.085C106.266 14.1787 106.313 14.3037 106.376 14.46ZM135.387 29.7412C135.544 31.1475 135.622 32.1475 135.622 32.7412C135.653 33.3037 135.637 33.7725 135.575 34.1475C135.544 34.5225 135.481 34.8662 135.387 35.1787C135.169 35.8975 134.856 36.2881 134.45 36.3506C134.169 36.3506 133.887 36.4912 133.606 36.7725C133.356 37.0225 133.153 37.21 132.997 37.335C132.841 37.46 132.606 37.5225 132.294 37.5225C132.012 37.5225 131.684 37.4756 131.309 37.3818C130.966 37.2881 130.653 37.0381 130.372 36.6318C129.747 35.7256 129.544 33.9443 129.762 31.2881C129.325 30.9756 129.012 30.5225 128.825 29.9287C128.669 29.335 128.684 28.46 128.872 27.3037C129.091 26.1475 129.216 25.3037 129.247 24.7725C129.309 24.2412 129.309 23.8037 129.247 23.46C129.216 23.085 129.137 22.7881 129.012 22.5693C128.887 22.3193 128.716 21.9756 128.497 21.5381C128.278 21.0693 128.122 20.6318 128.028 20.2256C127.966 19.7881 127.841 19.4756 127.653 19.2881C127.466 19.0693 127.341 18.8037 127.278 18.4912C127.216 18.1475 127.106 17.8193 126.95 17.5068C126.794 17.1943 126.684 16.7412 126.622 16.1475C126.591 15.5537 126.45 15.0693 126.2 14.6943C125.981 14.2881 125.747 13.96 125.497 13.71C125.278 13.4287 125.059 13.1631 124.841 12.9131C124.216 12.2256 123.778 11.6475 123.528 11.1787C123.278 10.6787 123.137 10.2568 123.106 9.91309C123.106 9.56934 123.122 9.24121 123.153 8.92871C123.247 8.11621 123.216 7.56934 123.059 7.28809L122.544 6.25684C122.012 5.19434 121.747 4.35059 121.747 3.72559C121.747 3.10059 121.919 2.63184 122.262 2.31934C122.575 2.00684 122.919 1.91309 123.294 2.03809C123.669 2.16309 124.184 2.30371 124.841 2.45996C125.497 2.58496 125.997 2.61621 126.341 2.55371C126.716 2.45996 127.059 2.35059 127.372 2.22559C128.153 1.97559 128.778 1.94434 129.247 2.13184C129.716 2.28809 130.028 2.56934 130.184 2.97559C130.372 3.35059 130.481 3.77246 130.512 4.24121C130.544 4.70996 130.559 5.17871 130.559 5.64746C130.591 6.11621 130.7 6.52246 130.887 6.86621C131.106 7.20996 131.278 7.50684 131.403 7.75684C131.528 8.00684 131.622 8.27246 131.684 8.55371C131.778 8.80371 131.841 9.06934 131.872 9.35059C131.903 9.63184 131.934 9.97559 131.966 10.3818C132.028 10.7881 132.122 11.085 132.247 11.2725C132.372 11.4287 132.512 11.5068 132.669 11.5068C133.044 11.4443 133.294 11.0693 133.419 10.3818C133.544 9.66309 133.684 9.06934 133.841 8.60059C133.997 8.10059 134.137 7.66309 134.262 7.28809C134.544 6.53809 134.653 6.02246 134.591 5.74121C134.559 5.42871 134.528 5.11621 134.497 4.80371C134.497 4.45996 134.559 4.14746 134.684 3.86621C134.997 3.17871 135.653 2.89746 136.653 3.02246C137.684 3.14746 138.512 3.22559 139.137 3.25684C139.762 3.28809 140.247 3.16309 140.591 2.88184C140.934 2.60059 141.278 2.47559 141.622 2.50684C141.966 2.53809 142.262 2.67871 142.512 2.92871C143.106 3.52246 143.059 4.38184 142.372 5.50684C141.716 6.60059 141.278 7.47559 141.059 8.13184C140.841 8.75684 140.778 9.30371 140.872 9.77246C140.997 10.21 141.044 10.5381 141.012 10.7568C140.981 10.9756 140.903 11.21 140.778 11.46C140.653 11.6787 140.497 11.9443 140.309 12.2568C138.966 14.6318 137.762 17.6006 136.7 21.1631C136.169 22.9131 135.809 25.0693 135.622 27.6318C135.559 28.6006 135.481 29.3037 135.387 29.7412ZM264.311 1.85059C265.28 1.56934 265.983 1.67871 266.42 2.17871C267.233 2.02246 267.983 2.20996 268.67 2.74121C269.358 3.27246 269.53 4.28809 269.186 5.78809C268.967 6.53809 268.905 7.06934 268.999 7.38184C269.092 7.69434 269.217 8.00684 269.374 8.31934C269.561 8.63184 269.624 9.00684 269.561 9.44434C269.499 9.85059 269.42 10.3037 269.327 10.8037C269.014 12.21 268.952 13.3506 269.139 14.2256C269.608 16.2881 269.42 18.4443 268.577 20.6943C267.67 23.1631 267.389 26.1318 267.733 29.6006C268.014 32.1006 268.108 33.7412 268.014 34.5225C267.952 35.2725 267.78 35.8818 267.499 36.3506C267.217 36.8193 266.749 37.0537 266.092 37.0537C264.967 37.0537 264.186 36.7256 263.749 36.0693C263.499 35.6943 263.374 35.21 263.374 34.6162C263.374 34.0225 263.28 33.4912 263.092 33.0225C262.936 32.5537 262.733 32.1162 262.483 31.71C261.889 30.835 261.327 30.2256 260.795 29.8818C259.92 29.2881 259.249 27.8662 258.78 25.6162C258.499 23.96 258.139 22.6006 257.702 21.5381C257.577 21.2256 257.483 20.8975 257.42 20.5537C257.358 20.1787 257.295 19.8193 257.233 19.4756C257.045 18.7256 256.717 18.3506 256.249 18.3506C255.53 18.3506 255.249 19.3818 255.405 21.4443C255.436 21.8818 255.499 22.2881 255.592 22.6631C255.717 23.0068 255.733 23.4287 255.639 23.9287C255.545 24.4287 255.42 24.9443 255.264 25.4756C254.889 26.8506 254.811 27.8662 255.03 28.5225C255.249 29.2725 255.327 30.0693 255.264 30.9131C255.202 31.7256 255.077 32.3662 254.889 32.835C254.702 33.2725 254.374 33.585 253.905 33.7725C253.624 34.2725 253.389 34.8506 253.202 35.5068C253.014 36.1318 252.874 36.5537 252.78 36.7725C252.717 36.9912 252.624 37.1162 252.499 37.1475C251.967 37.335 251.42 37.3037 250.858 37.0537C250.327 36.8037 249.983 36.46 249.827 36.0225C249.67 35.5537 249.592 35.1162 249.592 34.71C249.624 34.3037 249.577 33.9443 249.452 33.6318C249.358 33.2881 249.311 33.0068 249.311 32.7881C249.342 32.5693 249.358 32.3506 249.358 32.1318C249.42 31.6318 249.342 31.2568 249.124 31.0068C248.842 30.6943 248.686 30.2725 248.655 29.7412C248.655 29.21 248.655 28.7568 248.655 28.3818C248.655 28.0068 248.686 27.6943 248.749 27.4443C248.967 26.8506 249.061 25.9443 249.03 24.7256C248.936 22.4443 248.655 21.0693 248.186 20.6006C247.592 20.0068 247.264 18.9131 247.202 17.3193C247.17 16.9443 247.186 16.6006 247.249 16.2881C247.342 15.9443 247.358 15.6006 247.295 15.2568C247.264 14.9131 247.327 14.5693 247.483 14.2256C247.733 13.5693 247.811 12.6475 247.717 11.46C247.624 10.2412 247.561 9.38184 247.53 8.88184C247.53 8.35059 247.499 7.80371 247.436 7.24121C247.405 6.64746 247.452 6.13184 247.577 5.69434C247.733 5.22559 247.983 4.81934 248.327 4.47559C249.108 3.63184 250.202 3.20996 251.608 3.20996C252.233 2.77246 252.952 2.42871 253.764 2.17871C254.608 1.92871 255.311 1.91309 255.874 2.13184C256.436 2.35059 256.827 2.69434 257.045 3.16309C257.264 3.63184 257.436 4.13184 257.561 4.66309C257.717 5.19434 257.858 5.74121 257.983 6.30371C258.139 6.83496 258.389 7.27246 258.733 7.61621C259.077 7.95996 259.327 8.38184 259.483 8.88184C259.639 9.35059 259.78 9.80371 259.905 10.2412C260.03 10.6787 260.155 11.0537 260.28 11.3662C260.405 11.6475 260.608 11.7881 260.889 11.7881C261.17 11.7881 261.327 11.3975 261.358 10.6162C261.42 9.80371 261.436 8.88184 261.405 7.85059C261.405 6.81934 261.389 5.81934 261.358 4.85059C261.358 3.85059 261.452 3.13184 261.639 2.69434C261.827 2.22559 262.155 1.88184 262.624 1.66309C263.124 1.44434 263.686 1.50684 264.311 1.85059ZM275.885 8.92871L275.979 6.25684C275.979 5.81934 275.932 5.38184 275.839 4.94434C275.776 4.50684 275.885 4.05371 276.167 3.58496C276.479 3.08496 276.932 2.64746 277.526 2.27246C278.12 1.89746 278.792 1.70996 279.542 1.70996C280.292 1.70996 280.885 1.83496 281.323 2.08496C281.76 2.33496 282.167 2.53809 282.542 2.69434C282.917 2.85059 283.339 2.97559 283.807 3.06934C284.807 3.22559 285.776 3.08496 286.714 2.64746C287.745 2.14746 288.573 2.17871 289.198 2.74121C289.854 2.77246 290.542 2.70996 291.26 2.55371C292.448 2.30371 293.26 2.28809 293.698 2.50684C294.667 3.06934 294.823 4.19434 294.167 5.88184C294.073 6.13184 294.026 6.35059 294.026 6.53809C294.026 6.72559 294.026 6.91309 294.026 7.10059C294.026 7.66309 293.979 8.08496 293.885 8.36621C293.792 8.64746 293.745 8.88184 293.745 9.06934C293.745 9.25684 293.745 9.47559 293.745 9.72559C293.807 10.2256 293.729 10.71 293.51 11.1787C293.385 11.46 293.323 11.6943 293.323 11.8818C293.323 12.0381 293.323 12.1943 293.323 12.3506C293.323 12.7568 293.104 13.1475 292.667 13.5225C291.948 14.2725 291.354 14.6475 290.885 14.6475C290.792 14.6475 290.698 14.6162 290.604 14.5537C290.51 14.4912 290.37 14.4287 290.182 14.3662C289.432 14.1162 288.635 13.96 287.792 13.8975C286.979 13.835 286.385 13.8506 286.01 13.9443C285.073 14.1318 284.495 14.585 284.276 15.3037C284.026 16.0537 284.089 16.6318 284.464 17.0381C284.62 17.2256 284.792 17.3506 284.979 17.4131C285.167 17.4756 285.339 17.4912 285.495 17.46C285.682 17.3975 285.917 17.3975 286.198 17.46C286.51 17.5225 286.823 17.6006 287.135 17.6943C287.979 17.8818 288.542 17.9131 288.823 17.7881C289.135 17.6318 289.339 17.5693 289.432 17.6006C289.557 17.6318 289.651 17.6787 289.714 17.7412C289.932 17.96 290.135 18.0693 290.323 18.0693C290.823 18.0381 291.167 18.2568 291.354 18.7256C291.542 19.1631 291.51 19.71 291.26 20.3662C291.26 20.46 291.214 20.6943 291.12 21.0693C290.901 21.8193 290.792 22.335 290.792 22.6162C290.823 22.8975 290.776 23.1943 290.651 23.5068C290.526 23.7881 290.354 24.0381 290.135 24.2568C289.604 24.7256 289.026 24.8662 288.401 24.6787C288.12 24.5537 287.87 24.3818 287.651 24.1631C286.057 23.6943 284.979 23.8037 284.417 24.4912C284.104 24.8662 283.932 25.1943 283.901 25.4756C283.87 25.7568 283.854 26.2568 283.854 26.9756V28.71C284.26 28.9912 284.635 29.3193 284.979 29.6943C285.323 30.0381 285.745 30.2256 286.245 30.2568C286.745 30.2881 287.182 30.2568 287.557 30.1631C287.964 30.0381 288.339 29.9131 288.682 29.7881C289.432 29.4756 290.12 29.4287 290.745 29.6475C291.37 29.835 291.76 30.1006 291.917 30.4443C292.073 30.7881 292.104 31.2412 292.01 31.8037C291.917 32.3662 291.87 32.7881 291.87 33.0693C291.901 33.3193 291.917 33.5537 291.917 33.7725C291.917 34.3037 291.714 34.8193 291.307 35.3193C290.87 35.9756 290.464 36.3818 290.089 36.5381C289.714 36.6631 289.229 36.6943 288.635 36.6318C288.042 36.5381 287.557 36.5693 287.182 36.7256C286.807 36.8506 286.464 37.0225 286.151 37.2412C285.87 37.46 285.589 37.6631 285.307 37.8506C284.839 38.1631 284.307 38.1631 283.714 37.8506C283.495 37.7256 283.276 37.6006 283.057 37.4756C282.495 37.1943 281.807 37.0693 280.995 37.1006C280.182 37.1631 279.464 36.9443 278.839 36.4443C278.214 35.9131 277.885 35.2725 277.854 34.5225C277.854 33.7725 277.901 33.2412 277.995 32.9287C278.089 32.585 278.182 32.3193 278.276 32.1318C278.401 31.7256 278.339 31.4131 278.089 31.1943C277.339 30.6006 277.073 29.8193 277.292 28.8506C277.385 28.3506 277.479 27.96 277.573 27.6787C277.667 27.3975 277.682 27.1006 277.62 26.7881C277.557 26.4443 277.526 26.1475 277.526 25.8975C277.557 25.6162 277.557 25.3506 277.526 25.1006C277.464 24.6006 277.245 24.3193 276.87 24.2568C276.401 24.1943 276.089 23.6943 275.932 22.7568C275.745 21.8506 275.807 20.9443 276.12 20.0381C276.464 19.1318 276.604 18.4287 276.542 17.9287C276.479 17.3975 276.432 16.9131 276.401 16.4756L276.448 14.6475C276.448 13.7412 276.37 13.1318 276.214 12.8193C276.057 12.5068 276.01 12.0537 276.073 11.46C276.135 10.835 276.12 10.3662 276.026 10.0537C275.932 9.70996 275.885 9.33496 275.885 8.92871Z" fill="#E6E6E6"/>
<path d="M154.556 10.8213C154.556 11.0674 154.52 11.2783 154.45 11.4541C154.38 11.6299 154.286 11.7939 154.169 11.9463C154.063 12.0869 153.946 12.2275 153.817 12.3682C153.7 12.4971 153.589 12.6436 153.483 12.8076C153.331 13.0303 153.202 13.2705 153.097 13.5283C153.003 13.7744 152.909 14.0264 152.815 14.2842C152.733 14.542 152.64 14.7998 152.534 15.0576C152.44 15.3037 152.311 15.5381 152.147 15.7607C151.901 16.0537 151.708 16.376 151.567 16.7275C151.427 17.0791 151.321 17.4424 151.251 17.8174C151.192 18.1924 151.151 18.5732 151.128 18.96C151.116 19.3467 151.11 19.7275 151.11 20.1025C151.11 20.2314 151.099 20.4424 151.075 20.7354C151.052 21.0283 151.017 21.3447 150.97 21.6846C150.935 22.0244 150.888 22.3584 150.829 22.6865C150.77 23.0029 150.706 23.249 150.636 23.4248L150.425 23.8994C150.39 24.0635 150.372 24.2158 150.372 24.3564C150.372 24.5557 150.384 24.7549 150.407 24.9541C150.442 25.1533 150.46 25.3525 150.46 25.5518C150.46 25.8447 150.407 26.1201 150.302 26.3779C150.196 26.6357 150.144 26.9111 150.144 27.2041C150.144 27.3447 150.173 27.4736 150.231 27.5908C150.29 27.6963 150.354 27.8076 150.425 27.9248C150.495 28.042 150.56 28.165 150.618 28.2939C150.677 28.4229 150.706 28.5752 150.706 28.751C150.706 28.9385 150.694 29.1201 150.671 29.2959C150.647 29.4717 150.636 29.6416 150.636 29.8057C150.636 30.1572 150.677 30.4326 150.759 30.6318C150.841 30.8193 150.935 30.9834 151.04 31.124C151.157 31.2529 151.269 31.3877 151.374 31.5283C151.479 31.6689 151.556 31.8623 151.602 32.1084C151.661 32.3193 151.685 32.5303 151.673 32.7412C151.673 32.9404 151.69 33.1455 151.726 33.3564C151.749 33.5322 151.79 33.7021 151.849 33.8662C151.907 34.0186 151.966 34.1768 152.024 34.3408C152.083 34.4932 152.136 34.6572 152.183 34.833C152.229 34.9971 152.253 35.167 152.253 35.3428C152.253 35.4365 152.282 35.5361 152.341 35.6416C152.399 35.7354 152.47 35.8291 152.552 35.9229C152.634 36.0049 152.716 36.0869 152.798 36.1689C152.892 36.251 152.962 36.3213 153.009 36.3799C153.114 36.5205 153.179 36.667 153.202 36.8193C153.237 36.9834 153.261 37.1416 153.272 37.2939C153.296 37.458 153.325 37.6162 153.36 37.7686C153.407 37.9326 153.495 38.085 153.624 38.2256C153.683 38.2607 153.735 38.2959 153.782 38.3311C153.829 38.3662 153.864 38.4131 153.888 38.4717L153.993 38.7354C153.993 38.8174 153.946 38.8936 153.852 38.9639C153.77 39.0459 153.671 39.1162 153.554 39.1748C153.436 39.2334 153.313 39.2803 153.185 39.3154C153.067 39.3506 152.974 39.3682 152.903 39.3682C152.88 39.3682 152.804 39.3096 152.675 39.1924C152.558 39.0752 152.429 38.9404 152.288 38.7881C152.147 38.6475 152.007 38.5068 151.866 38.3662C151.737 38.2256 151.649 38.1318 151.602 38.085C151.567 37.8506 151.526 37.6807 151.479 37.5752C151.433 37.4814 151.356 37.335 151.251 37.1357C151.181 36.9951 151.134 36.8486 151.11 36.6963C151.099 36.5322 151.075 36.3682 151.04 36.2041C150.981 35.9346 150.87 35.6943 150.706 35.4834C150.554 35.2607 150.413 35.0322 150.284 34.7979C150.085 34.4229 149.921 34.0244 149.792 33.6025C149.675 33.1807 149.563 32.7646 149.458 32.3545C149.388 32.0732 149.311 31.8623 149.229 31.7217C149.159 31.5693 149.089 31.4287 149.019 31.2998C148.96 31.1592 148.907 31.001 148.86 30.8252C148.825 30.6377 148.808 30.3682 148.808 30.0166C148.808 29.876 148.784 29.7354 148.737 29.5947C148.69 29.4424 148.667 29.2959 148.667 29.1553C148.667 29.0615 148.685 28.9678 148.72 28.874C148.755 28.7686 148.772 28.6689 148.772 28.5752C148.772 28.3994 148.737 28.2354 148.667 28.083C148.608 27.9307 148.567 27.7725 148.544 27.6084C148.485 27.3037 148.444 27.0049 148.421 26.7119C148.397 26.4072 148.374 26.1084 148.351 25.8154C148.327 25.5107 148.286 25.2178 148.227 24.9365C148.181 24.6436 148.099 24.3564 147.981 24.0752C147.981 23.9111 148.011 23.7588 148.069 23.6182C148.128 23.4658 148.157 23.3076 148.157 23.1436C148.157 22.8037 148.099 22.4697 147.981 22.1416C147.876 21.8018 147.823 21.4619 147.823 21.1221C147.823 20.9932 147.87 20.8291 147.964 20.6299C148.069 20.4307 148.181 20.2197 148.298 19.9971C148.415 19.7744 148.52 19.5576 148.614 19.3467C148.72 19.124 148.772 18.9248 148.772 18.749C148.772 18.6436 148.755 18.5439 148.72 18.4502C148.685 18.3447 148.667 18.2393 148.667 18.1338C148.667 17.9932 148.696 17.8701 148.755 17.7646C148.813 17.6475 148.878 17.5361 148.948 17.4307C149.019 17.3252 149.083 17.2197 149.142 17.1143C149.2 16.9971 149.229 16.8682 149.229 16.7275C149.229 16.5869 149.206 16.4463 149.159 16.3057C149.112 16.1533 149.089 16.0068 149.089 15.8662C149.276 15.7959 149.435 15.6846 149.563 15.5322C149.704 15.3799 149.774 15.2041 149.774 15.0049C149.774 14.8994 149.757 14.7939 149.722 14.6885C149.686 14.5713 149.669 14.46 149.669 14.3545C149.669 14.2256 149.692 14.0674 149.739 13.8799C149.786 13.6924 149.839 13.499 149.897 13.2998C149.968 13.1006 150.038 12.9072 150.108 12.7197C150.19 12.5322 150.261 12.3799 150.319 12.2627C150.413 12.0869 150.472 11.9053 150.495 11.7178C150.519 11.5303 150.577 11.3428 150.671 11.1553C150.776 10.9209 150.923 10.71 151.11 10.5225C151.298 10.3232 151.509 10.1533 151.743 10.0127C151.977 9.87207 152.224 9.7666 152.481 9.69629C152.751 9.61426 153.015 9.57324 153.272 9.57324C153.671 9.57324 153.981 9.68457 154.204 9.90723C154.438 10.1182 154.556 10.4229 154.556 10.8213ZM160.477 14.2666C160.43 14.3252 160.377 14.3779 160.318 14.4248C160.272 14.4717 160.213 14.4951 160.143 14.4951C160.061 14.4951 159.99 14.46 159.932 14.3896C159.885 14.3193 159.861 14.2432 159.861 14.1611C159.861 14.1494 159.867 14.1318 159.879 14.1084C159.891 14.085 159.897 14.0615 159.897 14.0381L160.002 14.0029C160.096 14.0029 160.184 14.0322 160.266 14.0908C160.348 14.1494 160.418 14.208 160.477 14.2666ZM165.486 26.7998V26.8525C165.475 26.8174 165.469 26.7881 165.469 26.7646C165.469 26.7295 165.469 26.7002 165.469 26.6768L165.486 26.7822V26.7998ZM177.738 18.6963C177.738 18.8721 177.732 19.0713 177.721 19.2939C177.709 19.5166 177.686 19.7451 177.65 19.9795C177.627 20.2139 177.592 20.4424 177.545 20.665C177.51 20.876 177.463 21.0635 177.404 21.2275C177.24 21.626 177.024 21.9893 176.754 22.3174C176.496 22.6455 176.291 23.0146 176.139 23.4248C176.104 23.5303 176.004 23.6475 175.84 23.7764C175.676 23.9053 175.494 24.0342 175.295 24.1631C175.096 24.292 174.897 24.415 174.697 24.5322C174.51 24.6377 174.363 24.7256 174.258 24.7959C173.59 25.2061 172.922 25.5166 172.254 25.7275C171.586 25.9385 170.865 26.0439 170.092 26.0439H169.986C169.799 25.9385 169.641 25.8682 169.512 25.833C169.395 25.7979 169.225 25.7803 169.002 25.7803C168.779 25.7803 168.563 25.7861 168.352 25.7979C168.141 25.8096 167.93 25.8271 167.719 25.8506C167.637 25.8623 167.473 25.9092 167.227 25.9912C166.992 26.0615 166.746 26.1494 166.488 26.2549C166.231 26.3486 165.996 26.4482 165.785 26.5537C165.586 26.6475 165.486 26.7236 165.486 26.7822V26.8525C165.51 26.9346 165.539 26.9756 165.574 26.9756C165.633 26.9756 165.686 26.9463 165.732 26.8877C165.791 26.8174 165.856 26.7822 165.926 26.7822C165.984 26.7822 166.031 26.8115 166.066 26.8701C166.102 26.9287 166.125 26.999 166.137 27.0811C166.16 27.1514 166.172 27.2275 166.172 27.3096C166.184 27.3799 166.19 27.4326 166.19 27.4678C166.19 27.8076 166.154 28.1475 166.084 28.4873C166.014 28.8154 165.979 29.1494 165.979 29.4893C165.979 29.8291 165.973 30.1689 165.961 30.5088C165.961 30.8369 165.961 31.1709 165.961 31.5107C165.961 32.1318 165.99 32.6006 166.049 32.917C166.119 33.2334 166.248 33.4736 166.436 33.6377C166.623 33.79 166.881 33.9072 167.209 33.9893C167.537 34.0596 167.965 34.165 168.492 34.3057C168.457 34.4111 168.44 34.5107 168.44 34.6045C168.44 34.7451 168.481 34.8506 168.563 34.9209C168.656 34.9795 168.75 35.0439 168.844 35.1143C168.949 35.1729 169.043 35.2432 169.125 35.3252C169.219 35.4072 169.266 35.5361 169.266 35.7119C169.266 35.8643 169.207 35.999 169.09 36.1162C168.949 36.2568 168.856 36.374 168.809 36.4678C168.774 36.5615 168.738 36.6377 168.703 36.6963C168.668 36.7432 168.604 36.7842 168.51 36.8193C168.416 36.8428 168.246 36.8604 168 36.8721C167.438 36.9072 166.881 36.9248 166.33 36.9248C166.119 36.9248 165.908 36.9189 165.697 36.9072C165.486 36.9072 165.27 36.9072 165.047 36.9072C164.484 36.9072 163.934 36.9248 163.395 36.96C163.066 36.9834 162.744 37.0361 162.428 37.1182C162.123 37.2002 161.801 37.2412 161.461 37.2412C161.074 37.2412 160.811 37.1299 160.67 36.9072C160.529 36.6846 160.459 36.3975 160.459 36.0459C160.459 35.7061 160.535 35.4248 160.688 35.2021C160.84 34.9678 161.027 34.7803 161.25 34.6396C161.484 34.4873 161.731 34.3643 161.988 34.2705C162.258 34.1768 162.504 34.0889 162.727 34.0068C162.961 33.9131 163.154 33.8193 163.307 33.7256C163.459 33.6318 163.535 33.5088 163.535 33.3564C163.535 33.2158 163.506 33.0811 163.447 32.9521C163.4 32.8232 163.377 32.6885 163.377 32.5479C163.377 32.4658 163.418 32.3076 163.5 32.0732C163.582 31.8389 163.623 31.5635 163.623 31.2471C163.623 31.1182 163.623 30.9951 163.623 30.8779C163.623 30.749 163.617 30.6201 163.606 30.4912C163.535 30.4561 163.482 30.3857 163.447 30.2803C163.412 30.1748 163.383 30.0635 163.359 29.9463C163.348 29.8174 163.342 29.6943 163.342 29.5771C163.342 29.4482 163.342 29.3486 163.342 29.2783C163.342 28.833 163.371 28.3936 163.43 27.96C163.488 27.5146 163.518 27.0693 163.518 26.624C163.518 26.3428 163.5 26.0674 163.465 25.7979C163.43 25.5283 163.412 25.2529 163.412 24.9717C163.412 24.8896 163.436 24.8311 163.482 24.7959C163.377 24.7139 163.324 24.5967 163.324 24.4443C163.324 24.2803 163.348 24.1279 163.395 23.9873C163.453 23.8467 163.482 23.7002 163.482 23.5479C163.482 23.3135 163.459 23.0791 163.412 22.8447C163.365 22.6104 163.313 22.3818 163.254 22.1592C163.207 21.9248 163.16 21.6963 163.113 21.4736C163.078 21.2393 163.061 21.0049 163.061 20.7705C163.061 20.6299 163.078 20.4951 163.113 20.3662C163.16 20.2373 163.201 20.1084 163.236 19.9795C163.283 19.8389 163.324 19.7041 163.359 19.5752C163.406 19.4346 163.43 19.2881 163.43 19.1357C163.43 18.7373 163.389 18.3506 163.307 17.9756C163.236 17.5889 163.201 17.1963 163.201 16.7979C163.201 16.5635 163.254 16.3936 163.359 16.2881C163.477 16.1709 163.6 16.0771 163.729 16.0068C163.857 15.9365 163.975 15.8721 164.08 15.8135C164.197 15.7432 164.256 15.6436 164.256 15.5146C164.256 15.4326 164.215 15.3623 164.133 15.3037C164.063 15.2451 163.992 15.2158 163.922 15.2158C163.758 15.2158 163.617 15.2686 163.5 15.374C163.383 15.4795 163.248 15.5322 163.096 15.5322C163.002 15.5322 162.914 15.4736 162.832 15.3564C162.762 15.2275 162.68 15.0928 162.586 14.9521C162.504 14.8115 162.404 14.6826 162.287 14.5654C162.182 14.4365 162.053 14.3721 161.9 14.3721C161.772 14.3721 161.643 14.3896 161.514 14.4248C161.385 14.46 161.256 14.4775 161.127 14.4775C160.951 14.4775 160.84 14.4365 160.793 14.3545C160.746 14.2725 160.723 14.167 160.723 14.0381C160.723 13.9795 160.723 13.9209 160.723 13.8623C160.734 13.8037 160.74 13.7451 160.74 13.6865C160.74 13.5928 160.723 13.4932 160.688 13.3877C160.652 13.2822 160.57 13.2295 160.441 13.2295C160.371 13.2295 160.301 13.2412 160.231 13.2646C160.395 13.0537 160.611 12.8955 160.881 12.79C161.15 12.6729 161.432 12.585 161.725 12.5264C162.029 12.4678 162.334 12.4268 162.639 12.4033C162.955 12.3682 163.236 12.3213 163.482 12.2627C163.576 12.2393 163.658 12.2217 163.729 12.21C163.811 12.1982 163.899 12.1924 163.992 12.1924C164.203 12.1924 164.408 12.2158 164.607 12.2627C164.818 12.2979 165.024 12.3154 165.223 12.3154C165.445 12.3154 165.621 12.2686 165.75 12.1748C165.891 12.0693 166.055 12.0166 166.242 12.0166C166.336 12.0635 166.459 12.1221 166.611 12.1924C166.764 12.251 166.887 12.2803 166.981 12.2803C167.379 12.2803 167.772 12.2568 168.158 12.21C168.545 12.1631 168.932 12.1396 169.318 12.1396C169.74 12.1396 170.145 12.1982 170.531 12.3154C170.93 12.4209 171.322 12.5439 171.709 12.6846C172.107 12.8252 172.5 12.9658 172.887 13.1064C173.274 13.2471 173.672 13.3525 174.082 13.4229C174.223 13.4463 174.357 13.499 174.486 13.5811C174.627 13.6631 174.762 13.7627 174.891 13.8799C175.02 13.9854 175.143 14.0967 175.26 14.2139C175.389 14.3311 175.506 14.4307 175.611 14.5127C175.775 14.6416 175.904 14.7881 175.998 14.9521C176.104 15.1162 176.203 15.2861 176.297 15.4619C176.402 15.626 176.508 15.79 176.613 15.9541C176.731 16.1064 176.877 16.2412 177.053 16.3584C177.217 16.4639 177.346 16.6162 177.44 16.8154C177.533 17.0029 177.598 17.208 177.633 17.4307C177.68 17.6533 177.709 17.876 177.721 18.0986C177.732 18.3213 177.738 18.5205 177.738 18.6963ZM174.838 19.7686C174.838 19.0186 174.721 18.3389 174.486 17.7295C174.264 17.1084 173.936 16.5811 173.502 16.1475C173.08 15.7021 172.565 15.3564 171.955 15.1104C171.346 14.8643 170.666 14.7412 169.916 14.7412C169.799 14.7412 169.623 14.7412 169.389 14.7412C169.154 14.7412 168.897 14.7471 168.615 14.7588C168.334 14.7705 168.041 14.7881 167.736 14.8115C167.432 14.835 167.15 14.8701 166.893 14.917C166.635 14.9521 166.406 15.0049 166.207 15.0752C166.02 15.1338 165.897 15.21 165.838 15.3037C165.756 15.4326 165.639 15.5908 165.486 15.7783C165.346 15.9541 165.275 16.1123 165.275 16.2529C165.275 16.3818 165.311 16.5166 165.381 16.6572C165.451 16.7861 165.527 16.9268 165.609 17.0791C165.703 17.2314 165.785 17.3896 165.856 17.5537C165.938 17.7061 165.979 17.8643 165.979 18.0283C165.885 18.04 165.797 18.0693 165.715 18.1162C165.633 18.1514 165.592 18.2217 165.592 18.3271C165.592 18.5029 165.645 18.6963 165.75 18.9072C165.867 19.1182 165.926 19.335 165.926 19.5576C165.926 19.7217 165.891 19.8506 165.82 19.9443C165.75 20.0264 165.674 20.0967 165.592 20.1553C165.51 20.2139 165.434 20.2725 165.363 20.3311C165.293 20.3896 165.258 20.4658 165.258 20.5596C165.258 20.665 165.334 20.8408 165.486 21.0869C165.639 21.333 165.809 21.5967 165.996 21.8779C166.184 22.1475 166.354 22.3994 166.506 22.6338C166.658 22.8564 166.734 22.9912 166.734 23.0381C167.016 23.0732 167.291 23.0908 167.561 23.0908C167.736 23.0908 168.024 23.085 168.422 23.0732C168.832 23.0498 169.26 23.0264 169.705 23.0029C170.15 22.9678 170.566 22.9326 170.953 22.8975C171.34 22.8623 171.604 22.8271 171.744 22.792C171.897 22.7568 172.002 22.7041 172.061 22.6338C172.119 22.5635 172.178 22.4932 172.236 22.4229C172.295 22.3525 172.365 22.2939 172.447 22.2471C172.541 22.1885 172.688 22.1592 172.887 22.1592C173.25 22.1592 173.555 22.0947 173.801 21.9658C174.059 21.8369 174.264 21.667 174.416 21.4561C174.568 21.2334 174.674 20.9814 174.732 20.7002C174.803 20.4072 174.838 20.0967 174.838 19.7686ZM202.714 19.2764C202.714 19.3232 202.685 19.417 202.626 19.5576C202.568 19.6982 202.497 19.8506 202.415 20.0146C202.345 20.1787 202.269 20.3311 202.187 20.4717C202.105 20.6123 202.04 20.7061 201.993 20.7529L202.029 20.7705C202.005 20.7705 201.982 20.7764 201.958 20.7881H201.87C201.823 20.7998 201.771 20.8057 201.712 20.8057C201.665 20.8057 201.613 20.8057 201.554 20.8057L201.624 20.7881C201.355 20.7764 201.109 20.7295 200.886 20.6475C200.675 20.5537 200.499 20.3838 200.359 20.1377C200.335 20.0908 200.3 20.0088 200.253 19.8916C200.206 19.7627 200.159 19.6279 200.113 19.4873C200.066 19.3467 200.025 19.2178 199.989 19.1006C199.966 18.9717 199.954 18.8779 199.954 18.8193C199.954 18.7256 199.96 18.626 199.972 18.5205C199.995 18.415 200.007 18.3154 200.007 18.2217C200.007 17.8584 199.972 17.501 199.902 17.1494C199.831 16.7979 199.796 16.4404 199.796 16.0771C199.796 15.8428 199.825 15.6143 199.884 15.3916C199.943 15.1689 200.048 14.9639 200.2 14.7764H200.113C199.972 14.7764 199.861 14.7354 199.779 14.6533C199.696 14.5596 199.562 14.5127 199.374 14.5127C198.929 14.5127 198.495 14.5654 198.073 14.6709C197.652 14.7764 197.206 14.8291 196.738 14.8291C196.55 14.8291 196.363 14.8291 196.175 14.8291C195.988 14.8174 195.794 14.8115 195.595 14.8115C195.232 14.8115 194.874 14.8525 194.523 14.9346C194.171 15.0166 193.831 15.0576 193.503 15.0576C193.468 15.0576 193.45 15.0518 193.45 15.04C193.45 15.0166 193.491 14.9873 193.573 14.9521C193.655 14.9053 193.696 14.8701 193.696 14.8467C193.696 14.7998 193.655 14.7764 193.573 14.7764C193.503 14.7764 193.456 14.7764 193.433 14.7764C193.339 14.7764 193.257 14.8232 193.187 14.917C193.128 15.0107 193.034 15.0752 192.905 15.1104C192.73 15.1572 192.542 15.1807 192.343 15.1807C192.144 15.1807 191.95 15.1807 191.763 15.1807C191.646 15.1807 191.476 15.1748 191.253 15.1631C191.03 15.1514 190.808 15.1279 190.585 15.0928C190.363 15.0459 190.157 14.9814 189.97 14.8994C189.794 14.8057 189.695 14.6768 189.671 14.5127C189.542 14.5479 189.454 14.6123 189.407 14.7061C189.372 14.7881 189.337 14.876 189.302 14.9697C189.279 15.0635 189.238 15.1514 189.179 15.2334C189.12 15.3037 189.003 15.3447 188.827 15.3564C188.499 15.3799 188.288 15.4854 188.195 15.6729C188.101 15.8604 188.054 16.0713 188.054 16.3057C188.054 16.4346 188.06 16.5635 188.071 16.6924C188.083 16.8213 188.089 16.9502 188.089 17.0791C188.089 17.5479 188.077 18.0166 188.054 18.4854C188.042 18.9424 188.036 19.4053 188.036 19.874C188.036 20.0732 188.036 20.3428 188.036 20.6826C188.048 21.0107 188.071 21.3389 188.107 21.667C188.154 21.9834 188.218 22.2705 188.3 22.5283C188.382 22.7744 188.499 22.915 188.652 22.9502C188.745 22.9736 188.845 22.9912 188.95 23.0029C189.056 23.0029 189.161 23.0029 189.267 23.0029C189.677 23.0029 190.075 22.9561 190.462 22.8623C190.861 22.7686 191.265 22.7217 191.675 22.7217C191.839 22.7217 191.991 22.7451 192.132 22.792C192.284 22.8389 192.437 22.8623 192.589 22.8623C192.812 22.8623 192.982 22.7568 193.099 22.5459C193.228 22.3232 193.316 22.0713 193.363 21.79C193.421 21.4971 193.456 21.2041 193.468 20.9111C193.48 20.6182 193.486 20.4014 193.486 20.2607C193.486 19.9678 193.474 19.6807 193.45 19.3994C193.439 19.1064 193.433 18.8135 193.433 18.5205H193.538C193.831 18.5205 194.107 18.5674 194.364 18.6611C194.622 18.7549 194.892 18.8018 195.173 18.8018C195.29 18.8018 195.378 18.7959 195.437 18.7842C195.437 19.0186 195.478 19.2529 195.56 19.4873C195.642 19.7217 195.683 19.9619 195.683 20.208C195.683 20.5127 195.519 20.7061 195.191 20.7881C195.284 20.9521 195.361 21.1162 195.419 21.2803C195.478 21.4443 195.507 21.6143 195.507 21.79C195.507 21.9189 195.495 22.0479 195.472 22.1768C195.448 22.2939 195.437 22.417 195.437 22.5459C195.437 22.6631 195.472 22.7568 195.542 22.8271C195.624 22.8857 195.665 22.9561 195.665 23.0381C195.665 23.1787 195.607 23.3545 195.489 23.5654C195.384 23.7764 195.331 23.9932 195.331 24.2158C195.331 24.4736 195.355 24.7432 195.402 25.0244C195.448 25.3057 195.501 25.5986 195.56 25.9033C195.618 26.208 195.671 26.5186 195.718 26.835C195.765 27.1396 195.788 27.4502 195.788 27.7666C195.788 27.9541 195.777 28.1475 195.753 28.3467C195.741 28.5459 195.7 28.7393 195.63 28.9268C195.571 29.1025 195.484 29.2666 195.366 29.4189C195.261 29.5713 195.12 29.7002 194.945 29.8057C194.722 29.7822 194.534 29.7178 194.382 29.6123C194.23 29.4951 194.101 29.3604 193.995 29.208C193.902 29.0439 193.825 28.8682 193.767 28.6807C193.72 28.4814 193.685 28.2822 193.661 28.083C193.614 27.7783 193.591 27.4971 193.591 27.2393C193.591 26.9814 193.532 26.7646 193.415 26.5889C193.31 26.4014 193.099 26.2549 192.782 26.1494C192.478 26.0439 191.997 25.9912 191.341 25.9912C191.154 25.9912 190.884 26.0088 190.532 26.0439C190.193 26.0791 189.853 26.1436 189.513 26.2373C189.173 26.3193 188.874 26.4424 188.616 26.6064C188.37 26.7705 188.247 26.9756 188.247 27.2217C188.247 27.3623 188.259 27.5029 188.282 27.6436C188.318 27.7725 188.335 27.9072 188.335 28.0479C188.335 28.165 188.329 28.2822 188.318 28.3994C188.306 28.5166 188.3 28.6396 188.3 28.7686C188.3 29.085 188.318 29.4014 188.353 29.7178C188.388 30.0225 188.405 30.333 188.405 30.6494C188.405 30.9893 188.359 31.3232 188.265 31.6514C188.183 31.9795 188.142 32.3135 188.142 32.6533C188.142 33.0283 188.23 33.3271 188.405 33.5498C188.593 33.7607 188.827 33.9248 189.109 34.042C189.39 34.1475 189.695 34.2178 190.023 34.2529C190.351 34.2881 190.655 34.3057 190.937 34.3057C191.499 34.3057 192.062 34.2705 192.624 34.2002C193.187 34.1299 193.749 34.0947 194.312 34.0947C194.663 34.0947 195.015 34.1123 195.366 34.1475C195.718 34.1826 196.07 34.2002 196.421 34.2002C196.691 34.2002 196.989 34.1943 197.318 34.1826C197.646 34.1592 197.956 34.1006 198.249 34.0068C198.554 33.9131 198.812 33.7783 199.023 33.6025C199.245 33.415 199.386 33.1514 199.445 32.8115C199.456 32.7178 199.486 32.6533 199.532 32.6182C199.591 32.5713 199.65 32.5361 199.708 32.5127C199.779 32.4775 199.837 32.4424 199.884 32.4072C199.931 32.3721 199.954 32.3135 199.954 32.2314C199.954 32.1377 199.919 32.0322 199.849 31.915C199.779 31.7861 199.732 31.6689 199.708 31.5635C199.661 31.3408 199.632 31.1182 199.62 30.8955C199.62 30.6611 199.62 30.4326 199.62 30.21C199.62 29.8584 199.673 29.5537 199.779 29.2959C199.896 29.0264 199.954 28.7334 199.954 28.417C199.954 28.3232 199.948 28.2354 199.937 28.1533C199.937 28.0713 199.937 27.9834 199.937 27.8896C199.937 27.8193 199.989 27.749 200.095 27.6787C200.2 27.6084 200.323 27.5498 200.464 27.5029C200.605 27.4443 200.745 27.3975 200.886 27.3623C201.027 27.3271 201.132 27.3096 201.202 27.3096C201.495 27.3096 201.736 27.415 201.923 27.626C202.111 27.8252 202.251 28.0713 202.345 28.3643C202.45 28.6572 202.521 28.9619 202.556 29.2783C202.591 29.5947 202.609 29.8643 202.609 30.0869C202.609 30.4502 202.579 30.8604 202.521 31.3174C202.462 31.7744 202.38 32.2432 202.275 32.7236C202.181 33.2041 202.07 33.6729 201.941 34.1299C201.812 34.5752 201.683 34.9678 201.554 35.3076C201.484 35.4717 201.413 35.5947 201.343 35.6768C201.284 35.7588 201.214 35.8291 201.132 35.8877C201.062 35.9346 200.98 35.9873 200.886 36.0459C200.804 36.0928 200.71 36.1748 200.605 36.292C200.511 36.3975 200.329 36.4678 200.06 36.5029C199.802 36.5381 199.527 36.5557 199.234 36.5557C199.011 36.5557 198.8 36.5498 198.601 36.5381C198.402 36.5264 198.249 36.5205 198.144 36.5205C197.757 36.5205 197.441 36.5674 197.195 36.6611C196.96 36.7549 196.738 36.8018 196.527 36.8018C196.374 36.8018 196.275 36.7725 196.228 36.7139C196.181 36.6436 196.111 36.6084 196.017 36.6084C195.935 36.6084 195.859 36.6436 195.788 36.7139C195.718 36.7842 195.613 36.8193 195.472 36.8193C195.331 36.8193 195.185 36.8193 195.032 36.8193C194.892 36.8076 194.745 36.8018 194.593 36.8018C193.714 36.8018 192.841 36.8252 191.974 36.8721C191.107 36.9307 190.234 36.9717 189.355 36.9951C188.757 37.0186 188.165 37.0889 187.579 37.2061C186.993 37.3232 186.402 37.3818 185.804 37.3818C185.593 37.3818 185.353 37.3584 185.083 37.3115C184.814 37.2764 184.556 37.2061 184.31 37.1006C184.075 36.9951 183.876 36.8545 183.712 36.6787C183.548 36.4912 183.466 36.2627 183.466 35.9932C183.466 35.7354 183.56 35.4893 183.747 35.2549C183.935 35.0205 184.157 34.8037 184.415 34.6045C184.685 34.4053 184.96 34.2236 185.241 34.0596C185.523 33.8838 185.751 33.7197 185.927 33.5674C185.915 33.4736 185.909 33.3857 185.909 33.3037C185.909 33.2217 185.909 33.1396 185.909 33.0576C185.909 32.8818 185.909 32.7061 185.909 32.5303C185.921 32.3545 185.956 32.1787 186.015 32.0029C186.038 31.8975 186.097 31.7744 186.191 31.6338C186.296 31.4814 186.349 31.3525 186.349 31.2471C186.349 31.165 186.331 31.0889 186.296 31.0186C186.273 30.9482 186.249 30.8721 186.226 30.79C186.097 30.4736 186.003 30.1924 185.945 29.9463C185.898 29.7002 185.874 29.4014 185.874 29.0498C185.874 28.8389 185.874 28.6572 185.874 28.5049C185.886 28.3408 185.898 28.1885 185.909 28.0479C185.933 27.8955 185.962 27.7432 185.997 27.5908C186.044 27.4268 186.103 27.2451 186.173 27.0459C186.126 26.9639 186.073 26.8408 186.015 26.6768C185.956 26.5127 185.927 26.3838 185.927 26.29L186.173 23.7939C186.161 23.7588 186.155 23.7002 186.155 23.6182C186.155 23.5127 186.173 23.4072 186.208 23.3018C186.243 23.1963 186.261 23.085 186.261 22.9678C186.261 22.6982 186.214 22.4346 186.12 22.1768C186.027 21.9072 185.98 21.6377 185.98 21.3682C185.98 21.2744 186.003 21.1631 186.05 21.0342C186.097 20.9053 186.144 20.7646 186.191 20.6123C186.249 20.46 186.302 20.2959 186.349 20.1201C186.396 19.9326 186.419 19.7334 186.419 19.5225C186.419 19.3584 186.378 19.2178 186.296 19.1006C186.226 18.9834 186.191 18.8486 186.191 18.6963C186.191 18.5557 186.226 18.415 186.296 18.2744C186.366 18.1338 186.402 17.9814 186.402 17.8174C186.402 17.583 186.355 17.3604 186.261 17.1494C186.179 16.9268 186.091 16.7158 185.997 16.5166C185.857 16.2236 185.745 15.9893 185.663 15.8135C185.593 15.626 185.505 15.4795 185.4 15.374C185.294 15.2568 185.148 15.1748 184.96 15.1279C184.784 15.0693 184.527 15.0283 184.187 15.0049C184.023 14.9932 183.864 14.9463 183.712 14.8643C183.571 14.7705 183.443 14.6533 183.325 14.5127C183.22 14.3721 183.132 14.2197 183.062 14.0557C182.991 13.8916 182.956 13.7334 182.956 13.5811C182.956 13.3701 183.05 13.1943 183.238 13.0537C183.425 12.9014 183.665 12.7842 183.958 12.7021C184.251 12.6084 184.579 12.5381 184.943 12.4912C185.306 12.4326 185.657 12.3916 185.997 12.3682C186.349 12.333 186.665 12.3096 186.946 12.2979C187.239 12.2861 187.462 12.2686 187.614 12.2451C187.849 12.21 188.077 12.1865 188.3 12.1748C188.523 12.1631 188.751 12.1572 188.986 12.1572C189.443 12.1572 189.9 12.1748 190.357 12.21C190.825 12.2334 191.288 12.2451 191.745 12.2451C192.238 12.2451 192.718 12.1982 193.187 12.1045C193.667 12.0107 194.154 11.9639 194.646 11.9639C195.091 11.9639 195.53 12.0166 195.964 12.1221C196.398 12.2158 196.825 12.2627 197.247 12.2627C197.657 12.2627 198.062 12.2158 198.46 12.1221C198.859 12.0166 199.263 11.9639 199.673 11.9639C199.849 11.9639 200.025 11.9814 200.2 12.0166C200.458 12.2979 200.693 12.5322 200.904 12.7197C201.126 12.9072 201.314 13.1006 201.466 13.2998C201.63 13.4873 201.759 13.71 201.853 13.9678C201.958 14.2256 202.029 14.5654 202.064 14.9873C202.075 15.1396 202.081 15.3271 202.081 15.5498C202.081 15.7607 202.087 15.9717 202.099 16.1826C202.111 16.3818 202.14 16.5635 202.187 16.7275C202.245 16.8916 202.333 16.9912 202.45 17.0264C202.45 17.1904 202.368 17.2725 202.204 17.2725C202.216 17.4365 202.251 17.6064 202.31 17.7822C202.368 17.9463 202.427 18.1162 202.486 18.292C202.544 18.4561 202.597 18.626 202.644 18.8018C202.691 18.9658 202.714 19.124 202.714 19.2764ZM187.491 23.6006C187.421 23.6006 187.357 23.6123 187.298 23.6357C187.239 23.6592 187.198 23.7119 187.175 23.7939C187.62 24.0518 187.972 24.2979 188.23 24.5322C188.499 24.7549 188.704 24.9365 188.845 25.0771C188.997 25.2178 189.109 25.2998 189.179 25.3232C189.249 25.335 189.32 25.2588 189.39 25.0947C189.484 24.8838 189.466 24.6846 189.337 24.4971C189.22 24.3096 189.05 24.1514 188.827 24.0225C188.616 23.8936 188.382 23.7939 188.124 23.7236C187.878 23.6416 187.667 23.6006 187.491 23.6006ZM228.85 13.7217C228.85 13.8271 228.821 13.9443 228.762 14.0732C228.715 14.2021 228.627 14.2666 228.498 14.2666C228.451 14.2666 228.405 14.2432 228.358 14.1963C228.323 14.1494 228.287 14.0967 228.252 14.0381C228.217 13.9795 228.176 13.9268 228.129 13.8799C228.094 13.833 228.053 13.8037 228.006 13.792C228.018 14.0146 228.018 14.1846 228.006 14.3018C227.994 14.4189 227.977 14.5068 227.953 14.5654C227.93 14.6123 227.895 14.6416 227.848 14.6533C227.813 14.6533 227.772 14.6533 227.725 14.6533C227.631 14.6533 227.543 14.6592 227.461 14.6709C227.379 14.6826 227.297 14.7002 227.215 14.7236C226.946 14.7822 226.741 14.8232 226.6 14.8467C226.471 14.8584 226.377 14.8936 226.319 14.9521C226.26 15.0107 226.225 15.1045 226.213 15.2334C226.201 15.3623 226.184 15.5674 226.16 15.8486C226.137 16.0596 226.119 16.2705 226.108 16.4814C226.096 16.6807 226.09 16.8857 226.09 17.0967C226.09 17.6592 226.114 18.21 226.16 18.749C226.219 19.2881 226.248 19.8389 226.248 20.4014C226.248 20.6709 226.225 20.9346 226.178 21.1924C226.143 21.4502 226.125 21.7139 226.125 21.9834C226.125 22.2178 226.172 22.4521 226.266 22.6865C226.371 22.9092 226.424 23.1201 226.424 23.3193C226.424 23.3779 226.401 23.4365 226.354 23.4951C226.319 23.542 226.272 23.5947 226.213 23.6533C226.166 23.7119 226.119 23.7764 226.073 23.8467C226.037 23.917 226.02 23.999 226.02 24.0928C226.02 24.3389 226.061 24.5791 226.143 24.8135C226.237 25.0361 226.284 25.2705 226.284 25.5166C226.284 25.8916 226.26 26.2666 226.213 26.6416C226.166 27.0166 226.114 27.3916 226.055 27.7666C226.008 28.1416 225.961 28.5166 225.914 28.8916C225.867 29.2666 225.844 29.6416 225.844 30.0166C225.844 30.3213 225.862 30.6143 225.897 30.8955C225.944 31.165 226.02 31.4346 226.125 31.7041C226.149 31.7627 226.172 31.8271 226.196 31.8975C226.219 31.9678 226.231 32.0322 226.231 32.0908C226.231 32.2432 226.19 32.3721 226.108 32.4775C226.037 32.5713 226.002 32.6533 226.002 32.7236C226.002 32.7822 226.037 32.8525 226.108 32.9346C226.19 33.0166 226.242 33.0928 226.266 33.1631C226.348 33.4326 226.412 33.7314 226.459 34.0596C226.506 34.376 226.53 34.6748 226.53 34.9561C226.53 35.2021 226.465 35.4424 226.336 35.6768C226.207 35.9111 226.037 36.1221 225.826 36.3096C225.616 36.4854 225.375 36.6318 225.106 36.749C224.848 36.8662 224.584 36.9248 224.315 36.9248C223.951 36.9248 223.641 36.8135 223.383 36.5908C223.137 36.3682 222.92 36.0986 222.733 35.7822C222.557 35.4541 222.393 35.1143 222.241 34.7627C222.1 34.4111 221.959 34.1064 221.819 33.8486C221.701 33.6377 221.608 33.4385 221.537 33.251C221.479 33.0518 221.414 32.8584 221.344 32.6709C221.274 32.4834 221.186 32.3018 221.08 32.126C220.975 31.9385 220.828 31.7568 220.641 31.5811C220.489 31.4404 220.371 31.2764 220.289 31.0889C220.207 30.8896 220.137 30.6846 220.078 30.4736C220.032 30.251 219.985 30.0342 219.938 29.8232C219.903 29.6006 219.862 29.3955 219.815 29.208C219.686 28.751 219.534 28.2998 219.358 27.8545C219.182 27.4092 219.012 26.9639 218.848 26.5186C218.789 26.3779 218.713 26.2197 218.619 26.0439C218.537 25.8682 218.45 25.6924 218.356 25.5166C218.262 25.3408 218.174 25.1709 218.092 25.0068C218.022 24.8428 217.981 24.6904 217.969 24.5498C217.922 24.1631 217.823 23.8174 217.67 23.5127C217.518 23.1963 217.354 22.8975 217.178 22.6162C217.002 22.335 216.832 22.0479 216.668 21.7549C216.504 21.4619 216.393 21.1338 216.334 20.7705C216.311 20.6533 216.27 20.501 216.211 20.3135C216.153 20.1143 216.076 19.9209 215.983 19.7334C215.889 19.5342 215.778 19.3643 215.649 19.2236C215.52 19.083 215.385 19.0127 215.244 19.0127C215.116 19.0127 215.01 19.0771 214.928 19.2061C214.858 19.3232 214.799 19.4697 214.752 19.6455C214.705 19.8096 214.67 19.9795 214.647 20.1553C214.635 20.3193 214.629 20.4424 214.629 20.5244C214.629 20.7588 214.641 20.9932 214.664 21.2275C214.7 21.4619 214.717 21.6963 214.717 21.9307C214.717 22.1064 214.682 22.2764 214.612 22.4404C214.541 22.6045 214.506 22.7686 214.506 22.9326C214.506 23.0381 214.541 23.126 214.612 23.1963C214.694 23.2666 214.735 23.3486 214.735 23.4424C214.735 23.5361 214.723 23.6299 214.7 23.7236C214.676 23.8057 214.664 23.8936 214.664 23.9873C214.664 24.2803 214.676 24.5674 214.7 24.8486C214.735 25.1299 214.752 25.4111 214.752 25.6924C214.752 25.8916 214.741 26.0967 214.717 26.3076C214.694 26.5068 214.647 26.6943 214.576 26.8701C214.506 27.0459 214.401 27.1982 214.26 27.3271C214.119 27.4443 213.938 27.5205 213.715 27.5557C213.762 27.6494 213.821 27.7139 213.891 27.749C213.973 27.7725 214.055 27.79 214.137 27.8018C214.219 27.8135 214.289 27.8311 214.348 27.8545C214.407 27.8779 214.436 27.9424 214.436 28.0479C214.436 28.1064 214.43 28.1592 214.418 28.2061C214.418 28.2412 214.418 28.2822 214.418 28.3291C214.418 28.458 214.442 28.5635 214.489 28.6455C214.547 28.7275 214.612 28.8096 214.682 28.8916C214.752 28.9619 214.811 29.0381 214.858 29.1201C214.916 29.1904 214.946 29.2842 214.946 29.4014C214.946 29.542 214.928 29.6768 214.893 29.8057C214.858 29.9346 214.84 30.0635 214.84 30.1924C214.84 30.4736 214.875 30.749 214.946 31.0186C215.016 31.2764 215.051 31.5459 215.051 31.8271C215.051 31.9795 215.034 32.0908 214.998 32.1611C214.975 32.2197 214.94 32.2666 214.893 32.3018C214.858 32.3369 214.823 32.3662 214.787 32.3896C214.764 32.4014 214.752 32.4424 214.752 32.5127C214.752 32.6299 214.77 32.7412 214.805 32.8467C214.84 32.9404 214.858 33.0459 214.858 33.1631C214.858 33.2334 214.846 33.3037 214.823 33.374C214.811 33.4443 214.776 33.5088 214.717 33.5674C214.729 33.708 214.776 33.8076 214.858 33.8662C214.94 33.9248 215.034 33.9775 215.139 34.0244C215.256 34.0713 215.367 34.124 215.473 34.1826C215.578 34.2295 215.66 34.3174 215.719 34.4463C215.766 34.5518 215.813 34.6514 215.86 34.7451C215.918 34.8271 216.012 34.8682 216.141 34.8682C216.34 34.8682 216.522 34.8271 216.686 34.7451C216.85 34.6514 217.026 34.6045 217.213 34.6045C217.518 34.6045 217.729 34.7275 217.846 34.9736C217.963 35.208 218.022 35.4541 218.022 35.7119C218.022 36.04 217.963 36.2744 217.846 36.415C217.741 36.5439 217.617 36.6436 217.477 36.7139C217.348 36.7725 217.225 36.8311 217.108 36.8896C217.002 36.9482 216.95 37.0596 216.95 37.2236C216.95 37.2471 216.95 37.2646 216.95 37.2764C216.961 37.2881 216.967 37.3057 216.967 37.3291C216.803 37.2236 216.627 37.1475 216.44 37.1006C216.264 37.0537 216.076 37.0303 215.877 37.0303C215.526 37.0303 215.174 37.0771 214.823 37.1709C214.483 37.2764 214.137 37.3291 213.785 37.3291C213.528 37.3291 213.276 37.3057 213.03 37.2588C212.784 37.2119 212.532 37.1885 212.274 37.1885C212.11 37.1885 211.946 37.2061 211.782 37.2412C211.629 37.2881 211.471 37.3115 211.307 37.3115C211.143 37.3115 210.926 37.2705 210.657 37.1885C210.387 37.1182 210.123 37.0186 209.866 36.8896C209.608 36.7725 209.385 36.6436 209.198 36.5029C209.022 36.3506 208.934 36.21 208.934 36.0811C208.934 35.7295 209.051 35.4131 209.285 35.1318C209.52 34.8389 209.813 34.6631 210.164 34.6045C210.34 34.5693 210.534 34.5518 210.744 34.5518C210.967 34.5518 211.184 34.5459 211.395 34.5342C211.606 34.5107 211.805 34.4697 211.992 34.4111C212.18 34.3408 212.338 34.2236 212.467 34.0596C212.42 33.8838 212.397 33.6846 212.397 33.4619C212.397 33.0518 212.45 32.6533 212.555 32.2666C212.66 31.8799 212.713 31.4814 212.713 31.0713C212.713 30.9072 212.696 30.7373 212.66 30.5615C212.52 29.7529 212.45 28.9385 212.45 28.1182C212.45 27.8838 212.455 27.6494 212.467 27.415C212.479 27.1689 212.485 26.9287 212.485 26.6943C212.485 26.085 212.438 25.4814 212.344 24.8838C212.262 24.2861 212.209 23.6826 212.186 23.0732C212.162 22.4287 212.151 21.7959 212.151 21.1748C212.151 20.542 212.086 19.9092 211.957 19.2764C211.922 19.1123 211.899 18.9541 211.887 18.8018C211.887 18.6494 211.887 18.4912 211.887 18.3271V17.6943C211.887 17.2021 211.864 16.833 211.817 16.5869C211.77 16.3408 211.688 16.165 211.571 16.0596C211.453 15.9424 211.301 15.8721 211.114 15.8486C210.938 15.8135 210.715 15.7783 210.446 15.7432C210.293 15.7197 210.135 15.6436 209.971 15.5146C209.819 15.3857 209.672 15.2334 209.532 15.0576C209.403 14.8818 209.291 14.7002 209.198 14.5127C209.116 14.3252 209.075 14.1553 209.075 14.0029V13.6162C209.075 13.1475 209.145 12.79 209.285 12.5439C209.426 12.2861 209.619 12.0986 209.866 11.9814C210.112 11.8525 210.399 11.7764 210.727 11.7529C211.067 11.7295 211.43 11.7178 211.817 11.7178C212.203 11.7178 212.602 11.7354 213.012 11.7705C213.434 11.7939 213.838 11.8584 214.225 11.9639C214.612 12.0576 214.963 12.2041 215.28 12.4033C215.596 12.5908 215.854 12.8486 216.053 13.1768C216.182 13.3994 216.293 13.6338 216.387 13.8799C216.481 14.1143 216.569 14.3545 216.651 14.6006C216.733 14.8467 216.815 15.0928 216.897 15.3389C216.979 15.5732 217.084 15.8018 217.213 16.0244C217.272 16.1299 217.313 16.2471 217.336 16.376C217.371 16.4932 217.401 16.6162 217.424 16.7451C217.459 16.8623 217.494 16.9795 217.53 17.0967C217.565 17.2021 217.617 17.3076 217.688 17.4131C217.77 17.5068 217.864 17.6064 217.969 17.7119C218.086 17.8057 218.174 17.9111 218.233 18.0283C218.338 18.2627 218.409 18.5088 218.444 18.7666C218.491 19.0127 218.532 19.2646 218.567 19.5225C218.602 19.7686 218.637 20.0205 218.672 20.2783C218.719 20.5244 218.795 20.7646 218.901 20.999C218.971 21.1396 219.035 21.2568 219.094 21.3506C219.164 21.4443 219.223 21.5381 219.27 21.6318C219.328 21.7139 219.375 21.8135 219.41 21.9307C219.457 22.0361 219.492 22.1768 219.516 22.3525C219.539 22.6104 219.563 22.8682 219.586 23.126C219.61 23.3721 219.668 23.6182 219.762 23.8643C219.832 24.04 219.926 24.2041 220.043 24.3564C220.16 24.5088 220.278 24.6611 220.395 24.8135C220.524 24.9541 220.647 25.1006 220.764 25.2529C220.881 25.4053 220.969 25.5752 221.028 25.7627C221.145 26.1143 221.256 26.4424 221.362 26.7471C221.467 27.0518 221.672 27.3213 221.977 27.5557C221.907 27.6611 221.842 27.7783 221.784 27.9072C221.737 28.0244 221.713 28.1475 221.713 28.2764C221.713 28.5225 221.772 28.7686 221.889 29.0146C222.018 29.249 222.129 29.4775 222.223 29.7002C222.293 29.876 222.364 30.0283 222.434 30.1572C222.516 30.2861 222.651 30.3975 222.838 30.4912C223.002 30.5732 223.114 30.6494 223.172 30.7197C223.231 30.7783 223.266 30.8486 223.278 30.9307C223.289 31.001 223.289 31.0889 223.278 31.1943C223.278 31.2881 223.295 31.4111 223.33 31.5635C223.342 31.6338 223.366 31.7217 223.401 31.8271C223.436 31.9209 223.477 32.0205 223.524 32.126C223.582 32.2197 223.647 32.3018 223.717 32.3721C223.787 32.4424 223.864 32.4775 223.946 32.4775C224.016 32.4775 224.069 32.4541 224.104 32.4072C224.139 32.3486 224.168 32.2842 224.192 32.2139C224.215 32.1436 224.227 32.0732 224.227 32.0029C224.239 31.9209 224.244 31.8564 224.244 31.8096C224.244 31.6455 224.285 31.499 224.367 31.3701C224.461 31.2295 224.508 31.0713 224.508 30.8955C224.508 30.6963 224.461 30.5146 224.367 30.3506C224.285 30.1865 224.244 30.0049 224.244 29.8057C224.244 29.6416 224.274 29.4951 224.332 29.3662C224.403 29.2256 224.438 29.0732 224.438 28.9092C224.438 28.792 224.391 28.6924 224.297 28.6104C224.215 28.5283 224.174 28.4463 224.174 28.3643C224.174 28.3291 224.192 28.3115 224.227 28.3115C224.262 28.2998 224.297 28.2881 224.332 28.2764C224.367 28.2646 224.403 28.2471 224.438 28.2236C224.473 28.1885 224.491 28.1299 224.491 28.0479C224.491 27.7666 224.455 27.4971 224.385 27.2393C224.326 26.9697 224.256 26.7002 224.174 26.4307C224.092 26.1611 224.016 25.8916 223.946 25.6221C223.887 25.3408 223.858 25.0596 223.858 24.7783C223.858 24.4971 223.916 24.251 224.034 24.04C224.151 23.8291 224.209 23.6885 224.209 23.6182C224.209 23.4658 224.168 23.3311 224.086 23.2139C224.016 23.085 223.981 22.9443 223.981 22.792C223.981 22.6162 224.022 22.4521 224.104 22.2998C224.198 22.1357 224.244 21.9658 224.244 21.79C224.244 21.6846 224.221 21.585 224.174 21.4912C224.127 21.3857 224.075 21.2803 224.016 21.1748C223.957 21.0693 223.899 20.9639 223.84 20.8584C223.793 20.7412 223.758 20.6299 223.735 20.5244C223.7 20.3486 223.676 20.167 223.664 19.9795C223.664 19.792 223.664 19.6045 223.664 19.417V18.6611C223.664 18.3447 223.647 18.04 223.612 17.7471C223.588 17.4424 223.535 17.1377 223.453 16.833C223.383 16.5518 223.342 16.2939 223.33 16.0596C223.319 15.8252 223.284 15.6201 223.225 15.4443C223.166 15.2686 223.055 15.1279 222.891 15.0225C222.727 14.9053 222.457 14.835 222.082 14.8115C221.813 14.7881 221.543 14.7764 221.274 14.7764C221.004 14.7646 220.735 14.7236 220.465 14.6533C220.289 14.6064 220.155 14.5068 220.061 14.3545C219.979 14.2021 219.92 14.0322 219.885 13.8447C219.85 13.6572 219.832 13.4697 219.832 13.2822C219.832 13.083 219.832 12.9248 219.832 12.8076C219.832 12.585 219.938 12.4033 220.149 12.2627C220.371 12.1104 220.629 11.9873 220.922 11.8936C221.227 11.7998 221.532 11.7354 221.836 11.7002C222.141 11.6533 222.375 11.6299 222.539 11.6299C222.645 11.6299 222.832 11.6357 223.102 11.6475C223.371 11.6592 223.67 11.6826 223.998 11.7178C224.326 11.7529 224.666 11.7998 225.018 11.8584C225.369 11.9053 225.692 11.9756 225.985 12.0693C226.278 12.1514 226.518 12.251 226.705 12.3682C226.893 12.4854 226.987 12.6201 226.987 12.7725C227.092 12.6553 227.209 12.5557 227.338 12.4736C227.467 12.3916 227.614 12.3506 227.778 12.3506C227.93 12.3506 228.071 12.3975 228.2 12.4912C228.34 12.5732 228.457 12.6846 228.551 12.8252C228.645 12.9658 228.715 13.1182 228.762 13.2822C228.821 13.4346 228.85 13.5811 228.85 13.7217ZM212.239 35.624C212.239 35.5186 212.209 35.4424 212.151 35.3955C212.092 35.3369 212.016 35.2959 211.922 35.2725C211.84 35.249 211.752 35.2256 211.659 35.2021C211.576 35.167 211.512 35.1201 211.465 35.0615C211.453 35.0967 211.442 35.1318 211.43 35.167C211.43 35.1904 211.43 35.2197 211.43 35.2549C211.43 35.3604 211.459 35.4424 211.518 35.501C211.576 35.5479 211.647 35.583 211.729 35.6064C211.823 35.6299 211.91 35.6592 211.992 35.6943C212.075 35.7178 212.145 35.7588 212.203 35.8174C212.215 35.7822 212.221 35.7529 212.221 35.7295C212.233 35.6943 212.239 35.6592 212.239 35.624ZM241.169 23.46C241.169 23.7646 241.111 24.0518 240.994 24.3213C240.876 24.5908 240.818 24.8779 240.818 25.1826C240.818 25.3467 240.847 25.499 240.906 25.6396C240.964 25.7686 240.994 25.9092 240.994 26.0615C240.994 26.1904 240.953 26.4658 240.871 26.8877C240.8 27.2979 240.712 27.7432 240.607 28.2236C240.501 28.6924 240.396 29.1318 240.29 29.542C240.185 29.9404 240.109 30.1924 240.062 30.2979C239.945 30.5088 239.81 30.6963 239.658 30.8604C239.517 31.0244 239.447 31.2236 239.447 31.458C239.447 31.5869 239.464 31.71 239.499 31.8271C239.535 31.9326 239.552 32.0498 239.552 32.1787C239.552 32.2842 239.517 32.3896 239.447 32.4951C239.376 32.6006 239.3 32.7119 239.218 32.8291C239.148 32.9463 239.078 33.0752 239.007 33.2158C238.937 33.3447 238.902 33.4912 238.902 33.6553C238.902 33.749 238.914 33.8311 238.937 33.9014C238.96 33.9717 238.984 34.0537 239.007 34.1475C238.82 34.2998 238.685 34.4463 238.603 34.5869C238.521 34.7275 238.462 34.8682 238.427 35.0088C238.392 35.1494 238.363 35.2959 238.339 35.4482C238.328 35.5889 238.298 35.7354 238.251 35.8877C238.205 36.0986 238.087 36.374 237.9 36.7139C237.724 37.0537 237.513 37.3818 237.267 37.6982C237.021 38.0264 236.757 38.3076 236.476 38.542C236.206 38.7881 235.949 38.9111 235.703 38.9111C235.539 38.9111 235.374 38.876 235.21 38.8057C235.058 38.7471 234.917 38.6592 234.789 38.542C234.66 38.4365 234.554 38.3076 234.472 38.1553C234.402 38.0146 234.367 37.8564 234.367 37.6807C234.367 37.3525 234.46 37.0596 234.648 36.8018C234.835 36.5439 235.052 36.2861 235.298 36.0283C235.544 35.7705 235.785 35.501 236.019 35.2197C236.253 34.9385 236.412 34.6104 236.494 34.2354C236.54 34.0127 236.581 33.8369 236.617 33.708C236.664 33.5791 236.71 33.4678 236.757 33.374C236.816 33.2803 236.88 33.1865 236.951 33.0928C237.021 32.9873 237.109 32.8467 237.214 32.6709C237.542 32.0264 237.777 31.3291 237.917 30.5791C238.07 29.8174 238.146 29.0674 238.146 28.3291C238.146 28.0361 238.181 27.7549 238.251 27.4854C238.322 27.2041 238.392 26.9287 238.462 26.6592C238.544 26.3779 238.621 26.1025 238.691 25.833C238.761 25.5518 238.796 25.2646 238.796 24.9717C238.796 24.5732 238.779 24.1572 238.744 23.7236C238.708 23.29 238.621 22.8916 238.48 22.5283C238.433 22.4346 238.386 22.3525 238.339 22.2822C238.304 22.2002 238.287 22.1123 238.287 22.0186C238.287 21.8428 238.322 21.6729 238.392 21.5088C238.474 21.333 238.515 21.1572 238.515 20.9814C238.515 20.8174 238.474 20.665 238.392 20.5244C238.31 20.3721 238.251 20.2256 238.216 20.085C238.099 19.7686 238.029 19.4463 238.005 19.1182C237.982 18.7783 237.953 18.4502 237.917 18.1338C237.882 17.8057 237.806 17.4951 237.689 17.2021C237.572 16.9092 237.355 16.6455 237.039 16.4111C237.015 16.376 237.003 16.3408 237.003 16.3057C237.003 16.2588 237.003 16.2178 237.003 16.1826V16.0068C237.003 15.8311 236.956 15.667 236.863 15.5146C236.781 15.3506 236.74 15.1807 236.74 15.0049C236.74 14.7354 236.664 14.5068 236.511 14.3193C236.371 14.1318 236.218 13.9385 236.054 13.7393C235.914 13.5752 235.814 13.3936 235.755 13.1943C235.697 12.9951 235.621 12.8076 235.527 12.6318C235.41 12.4326 235.275 12.251 235.122 12.0869C234.982 11.9229 234.847 11.7529 234.718 11.5771C234.601 11.4014 234.501 11.2021 234.419 10.9795C234.337 10.7568 234.296 10.4873 234.296 10.1709C234.296 9.97168 234.343 9.80762 234.437 9.67871C234.542 9.53809 234.671 9.43262 234.824 9.3623C234.976 9.28027 235.14 9.22168 235.316 9.18652C235.503 9.15137 235.679 9.13379 235.843 9.13379C236.218 9.13379 236.529 9.21582 236.775 9.37988C237.021 9.53223 237.238 9.73145 237.425 9.97754C237.613 10.2236 237.777 10.4932 237.917 10.7861C238.07 11.0791 238.228 11.3545 238.392 11.6123C238.509 11.8115 238.638 12.0049 238.779 12.1924C238.931 12.3682 239.072 12.5557 239.201 12.7549C239.33 12.9541 239.435 13.165 239.517 13.3877C239.611 13.5986 239.658 13.8389 239.658 14.1084C239.658 14.3193 239.687 14.5186 239.746 14.7061C239.816 14.8936 239.898 15.0869 239.992 15.2861C240.378 16.2119 240.63 17.1611 240.747 18.1338C240.865 19.1064 240.923 20.0908 240.923 21.0869C240.923 21.2158 240.917 21.3447 240.906 21.4736C240.906 21.5908 240.906 21.7139 240.906 21.8428C240.906 22.1357 240.947 22.4229 241.029 22.7041C241.122 22.9736 241.169 23.2256 241.169 23.46Z" fill="#990000"/>
</svg>
