<svg width="169" height="179" viewBox="0 0 169 179" fill="none" xmlns="http://www.w3.org/2000/svg">
<path d="M161.757 71.6H7.24286C0.579428 71.6 0 79.6013 0 89.5C0 99.3987 0.579428 107.4 7.24286 107.4H161.757C168.421 107.4 169 99.3987 169 89.5C169 79.6013 168.421 71.6 161.757 71.6ZM161.757 143.2H7.24286C0.579428 143.2 0 151.201 0 161.1C0 170.999 0.579428 179 7.24286 179H161.757C168.421 179 169 170.999 169 161.1C169 151.201 168.421 143.2 161.757 143.2ZM7.24286 35.8H161.757C168.421 35.8 169 27.7987 169 17.9C169 8.0013 168.421 0 161.757 0H7.24286C0.579428 0 0 8.0013 0 17.9C0 27.7987 0.579428 35.8 7.24286 35.8Z" fill="#990000"/>
</svg>
