<svg width="177" height="177" viewBox="0 0 177 177" fill="none" xmlns="http://www.w3.org/2000/svg">
<g clip-path="url(#clip0_43_57)">
<path d="M170.328 7.05224C165.919 2.64707 159.941 0.172607 153.708 0.172607C147.476 0.172607 141.498 2.64707 137.089 7.05224L124.002 20.1358C124.002 20.1358 110.024 25.2582 84.5417 50.743C59.0599 76.2249 53.9405 90.2065 53.9405 90.2065L26.8841 117.257L31.9385 122.314L6.2528 137.897C6.2528 137.897 8.19954 155.707 -0.0305176 172.997L27.9062 145.052C27.8677 144.392 27.9692 143.732 28.2039 143.115C28.4386 142.497 28.8012 141.936 29.268 141.469C30.1504 140.587 31.3465 140.092 32.5937 140.091C33.8409 140.091 35.0374 140.585 35.9206 141.466C37.7521 143.309 37.7521 146.278 35.9206 148.121C35.4484 148.584 34.8854 148.944 34.2672 149.178C33.6489 149.413 32.9888 149.517 32.3284 149.483L4.39173 177.417C21.676 169.187 39.4832 171.133 39.4832 171.133L55.066 145.439L60.1263 150.502L87.1709 123.446C87.1709 123.446 101.155 118.329 126.637 92.8416C152.122 67.3686 157.233 53.3781 157.233 53.3781L170.328 40.2856C174.734 35.8782 177.21 29.9011 177.21 23.6689C177.21 17.4367 174.734 11.4597 170.328 7.05224ZM80.2642 125.401L51.979 97.1161L56.416 92.685L84.6983 120.97L80.2642 125.401ZM154.76 50.8996L126.478 22.6084L130.906 18.1832L159.191 46.4685L154.76 50.8996Z" fill="#999999"/>
</g>
<defs>
<clipPath id="clip0_43_57">
<rect width="176.231" height="176.231" fill="white"/>
</clipPath>
</defs>
</svg>
