<svg width="298" height="298" viewBox="0 0 298 298" fill="none" xmlns="http://www.w3.org/2000/svg">
<path d="M206.308 126.077C206.308 103.99 198.458 85.096 182.758 69.396C167.058 53.6961 148.164 45.8462 126.077 45.8462C103.99 45.8462 85.096 53.6961 69.396 69.396C53.6961 85.096 45.8462 103.99 45.8462 126.077C45.8462 148.164 53.6961 167.058 69.396 182.758C85.096 198.458 103.99 206.308 126.077 206.308C148.164 206.308 167.058 198.458 182.758 182.758C198.458 167.058 206.308 148.164 206.308 126.077ZM298 275.077C298 281.285 295.732 286.658 291.195 291.195C286.658 295.732 281.285 298 275.077 298C268.63 298 263.257 295.732 258.959 291.195L197.532 229.947C176.161 244.752 152.343 252.154 126.077 252.154C109.004 252.154 92.6773 248.841 77.0968 242.215C61.5162 235.588 48.0847 226.634 36.8023 215.352C25.5198 204.069 16.5655 190.638 9.9393 175.057C3.3131 159.477 0 143.15 0 126.077C0 109.004 3.3131 92.6773 9.9393 77.0968C16.5655 61.5162 25.5198 48.0847 36.8023 36.8023C48.0847 25.5198 61.5162 16.5655 77.0968 9.9393C92.6773 3.3131 109.004 0 126.077 0C143.15 0 159.477 3.3131 175.057 9.9393C190.638 16.5655 204.069 25.5198 215.352 36.8023C226.634 48.0847 235.588 61.5162 242.215 77.0968C248.841 92.6773 252.154 109.004 252.154 126.077C252.154 152.343 244.752 176.161 229.947 197.532L291.374 258.959C295.791 263.377 298 268.749 298 275.077Z" fill="#999999"/>
</svg>
