<svg width="360" height="360" viewBox="0 0 360 360" fill="none" xmlns="http://www.w3.org/2000/svg">
<path d="M127.266 11.25C127.266 100.316 79.1325 180 11.25 180C79.1325 180 127.266 259.689 127.266 348.75C127.266 259.689 175.399 180 243.281 180C175.399 180 127.266 100.316 127.266 11.25ZM264.375 180C264.375 224.539 240.317 264.375 206.364 264.375C240.317 264.375 264.375 304.223 264.375 348.75C264.375 304.223 288.433 264.375 322.386 264.375C288.433 264.375 264.375 224.539 264.375 180ZM290.745 11.25C290.745 55.7831 266.687 95.625 232.734 95.625C266.681 95.625 290.745 135.473 290.745 180C290.745 135.473 314.803 95.625 348.756 95.625C314.803 95.625 290.745 55.7831 290.745 11.25Z" fill="#E5E5E5"/>
</svg>
