<svg width="199" height="199" viewBox="0 0 199 199" fill="none" xmlns="http://www.w3.org/2000/svg">
<g clip-path="url(#clip0_49_4)">
<path d="M31.0938 12.4375C27.7951 12.4375 24.6316 13.7479 22.2991 16.0804C19.9666 18.4128 18.6563 21.5764 18.6562 24.875V37.3125C18.6563 40.6111 19.9666 43.7747 22.2991 46.1071C24.6316 48.4396 27.7951 49.75 31.0938 49.75H37.3125V161.688C37.3125 168.285 39.9333 174.612 44.5982 179.277C49.2632 183.942 55.5902 186.562 62.1875 186.562H136.812C143.41 186.562 149.737 183.942 154.402 179.277C159.067 174.612 161.688 168.285 161.688 161.688V49.75H167.906C171.205 49.75 174.368 48.4396 176.701 46.1071C179.033 43.7747 180.344 40.6111 180.344 37.3125V24.875C180.344 21.5764 179.033 18.4128 176.701 16.0804C174.368 13.7479 171.205 12.4375 167.906 12.4375H124.375C124.375 9.13887 123.065 5.97534 120.732 3.64286C118.4 1.31038 115.236 0 111.938 0L87.0625 0C83.7639 0 80.6003 1.31038 78.2679 3.64286C75.9354 5.97534 74.625 9.13887 74.625 12.4375H31.0938ZM68.4062 62.1875C70.0556 62.1875 71.6373 62.8427 72.8036 64.0089C73.9698 65.1752 74.625 66.7569 74.625 68.4062V155.469C74.625 157.118 73.9698 158.7 72.8036 159.866C71.6373 161.032 70.0556 161.688 68.4062 161.688C66.7569 161.688 65.1752 161.032 64.0089 159.866C62.8427 158.7 62.1875 157.118 62.1875 155.469V68.4062C62.1875 66.7569 62.8427 65.1752 64.0089 64.0089C65.1752 62.8427 66.7569 62.1875 68.4062 62.1875V62.1875ZM99.5 62.1875C101.149 62.1875 102.731 62.8427 103.897 64.0089C105.064 65.1752 105.719 66.7569 105.719 68.4062V155.469C105.719 157.118 105.064 158.7 103.897 159.866C102.731 161.032 101.149 161.688 99.5 161.688C97.8507 161.688 96.2689 161.032 95.1027 159.866C93.9364 158.7 93.2812 157.118 93.2812 155.469V68.4062C93.2812 66.7569 93.9364 65.1752 95.1027 64.0089C96.2689 62.8427 97.8507 62.1875 99.5 62.1875V62.1875ZM136.812 68.4062V155.469C136.812 157.118 136.157 158.7 134.991 159.866C133.825 161.032 132.243 161.688 130.594 161.688C128.944 161.688 127.363 161.032 126.196 159.866C125.03 158.7 124.375 157.118 124.375 155.469V68.4062C124.375 66.7569 125.03 65.1752 126.196 64.0089C127.363 62.8427 128.944 62.1875 130.594 62.1875C132.243 62.1875 133.825 62.8427 134.991 64.0089C136.157 65.1752 136.812 66.7569 136.812 68.4062V68.4062Z" fill="#990000"/>
</g>
<defs>
<clipPath id="clip0_49_4">
<rect width="199" height="199" fill="white"/>
</clipPath>
</defs>
</svg>
